<svg x="0" y="0" width="700" height="350" viewBox="0 0 700 350" xmlns="http://www.w3.org/2000/svg" xmlns:xlink="http://www.w3.org/1999/xlink" xmlns:fi="http://pattern.flaticon.com/"><rect x="0px" y="0px" width="100%" height="100%" opacity="0" fill="#121212"/><defs><path d="m218 239.828c-6.617 0-12 5.383-12 12s5.383 12 12 12 12-5.383 12-12-5.383-12-12-12zm0 16c-2.207 0-4-1.795-4-4s1.793-4 4-4 4 1.795 4 4-1.793 4-4 4zm-144.484-207.172 2.828-2.828-2.828-2.828c-1.562-1.562-1.562-4.094 0-5.656s4.094-1.562 5.656 0l2.828 2.828 2.828-2.828c1.562-1.562 4.094-1.562 5.656 0s1.562 4.094 0 5.656l-2.828 2.828 2.828 2.828c1.562 1.562 1.562 4.094 0 5.656-.781.781-1.805 1.172-2.828 1.172s-2.047-.391-2.828-1.172l-2.828-2.828-2.828 2.828c-.781.781-1.805 1.172-2.828 1.172s-2.047-.391-2.828-1.172c-1.563-1.562-1.563-4.093 0-5.656zm40.536 7.563c0-2.362 1.915-4.277 4.276-4.277s4.277 1.915 4.277 4.277-1.915 4.276-4.277 4.276-4.276-1.914-4.276-4.276zm-52.052 95.609h32c6.617 0 12-5.383 12-12v-48c0-6.617-5.383-12-12-12h-32c-6.617 0-12 5.383-12 12v48c0 6.617 5.383 12 12 12zm-4-60c0-2.205 1.793-4 4-4h32c2.207 0 4 1.795 4 4v48c0 2.205-1.793 4-4 4h-32c-2.207 0-4-1.795-4-4zm12 44h16c2.211 0 4-1.791 4-4v-32c0-2.209-1.789-4-4-4h-16c-2.211 0-4 1.791-4 4v32c0 2.209 1.789 4 4 4zm4-32h8v24h-8zm48 0v36c0 6.617 5.383 12 12 12s12-5.383 12-12v-48c0-6.617-5.383-12-12-12h-12c-6.617 0-12 5.383-12 12s5.383 12 12 12zm0-16h12c2.207 0 4 1.795 4 4v48c0 2.205-1.793 4-4 4s-4-1.795-4-4v-40c0-2.209-1.789-4-4-4h-4c-2.207 0-4-1.795-4-4s1.793-4 4-4zm52 48h16c2.211 0 4-1.791 4-4v-32c0-2.209-1.789-4-4-4h-16c-2.211 0-4 1.791-4 4v32c0 2.209 1.789 4 4 4zm4-32h8v24h-8zm-12 48h32c6.617 0 12-5.383 12-12v-48c0-6.617-5.383-12-12-12h-32c-6.617 0-12 5.383-12 12v48c0 6.617 5.383 12 12 12zm-4-60c0-2.205 1.793-4 4-4h32c2.207 0 4 1.795 4 4v48c0 2.205-1.793 4-4 4h-32c-2.207 0-4-1.795-4-4zm-24 72h-32c-6.617 0-12 5.383-12 12v48c0 6.617 5.383 12 12 12h32c6.617 0 12-5.383 12-12v-48c0-6.617-5.383-12-12-12zm4 60c0 2.205-1.793 4-4 4h-32c-2.207 0-4-1.795-4-4v-48c0-2.205 1.793-4 4-4h32c2.207 0 4 1.795 4 4zm-12-44h-16c-2.211 0-4 1.791-4 4v32c0 2.209 1.789 4 4 4h16c2.211 0 4-1.791 4-4v-32c0-2.209-1.789-4-4-4zm-4 32h-8v-24h8zm64-32h-16c-2.211 0-4 1.791-4 4v32c0 2.209 1.789 4 4 4h16c2.211 0 4-1.791 4-4v-32c0-2.209-1.789-4-4-4zm-4 32h-8v-24h8zm24 12v-48c0-6.617-5.383-12-12-12h-32c-6.617 0-12 5.383-12 12v48c0 6.617 5.383 12 12 12h32c6.617 0 12-5.383 12-12zm-8 0c0 2.205-1.793 4-4 4h-32c-2.207 0-4-1.795-4-4v-48c0-2.205 1.793-4 4-4h32c2.207 0 4 1.795 4 4zm36-144h-12c-6.617 0-12 5.383-12 12s5.383 12 12 12v36c0 6.617 5.383 12 12 12s12-5.383 12-12v-48c0-6.617-5.383-12-12-12zm-164 84h-12c-6.617 0-12 5.383-12 12s5.383 12 12 12v36c0 6.617 5.383 12 12 12s12-5.383 12-12v-48c0-6.617-5.383-12-12-12zm164 0h-12c-6.617 0-12 5.383-12 12s5.383 12 12 12v36c0 6.617 5.383 12 12 12s12-5.383 12-12v-48c0-6.617-5.383-12-12-12zm4 60c0 2.205-1.793 4-4 4s-4-1.795-4-4v-40c0-2.209-1.789-4-4-4h-4c-2.207 0-4-1.795-4-4s1.793-4 4-4h12c2.207 0 4 1.795 4 4z" transform="matrix(0.5550796985626221 0.3050437867641449 -0.3050437867641449 0.5550796985626221 280.43511962890625 65.03121948242188)" fill="#34b9f5" id="L1_51"/><path d="m218.052 54.219c0-2.362 1.915-4.277 4.276-4.277s4.277 1.915 4.277 4.277-1.915 4.276-4.277 4.276-4.276-1.914-4.276-4.276zm47.948 44.093v150.135c0 5.172-4.211 9.381-9.383 9.381h-213.236c-5.172 0-9.381-4.209-9.381-9.381v-150.135c0-4.678 4.209-8.484 9.381-8.484h130.369l17.313-18.717c.758-.818 1.824-1.283 2.938-1.283h40c2.211 0 4 1.791 4 4v16h18.617c5.171 0 9.382 3.807 9.382 8.484zm-48 107.516v9.735l12 7.2v-32.726c-4.919 2.453-10.35 3.747-15.953 3.747-.648 0-1.297-.018-1.949-.053-4.987-.264-9.756-1.551-14.098-3.71v32.741l12-7.2v-9.735c0-2.209 1.789-4 4-4s4 1.792 4 4.001zm23.914-46.519c.398-7.457-2.137-14.621-7.129-20.174s-11.848-8.828-19.305-9.223c-.508-.027-1.012-.039-1.516-.039-6.906 0-13.48 2.514-18.656 7.168-5.555 4.994-8.828 11.85-9.223 19.307-.398 7.457 2.137 14.621 7.129 20.174s11.848 8.828 19.305 9.223c7.473.404 14.617-2.135 20.172-7.129s8.829-11.85 9.223-19.307zm-11.914-81.481h-32v47.817c5.493-2.743 11.613-4.062 17.902-3.721 4.987.264 9.756 1.551 14.098 3.71zm28 20.484c-.059-.096-.562-.484-1.383-.484h-18.617v33.238c.95.855 1.868 1.755 2.734 2.719 6.422 7.141 9.68 16.355 9.172 25.945-.508 9.592-4.723 18.41-11.863 24.832-.014.012-.029.023-.043.035v45.23c0 1.441-.773 2.771-2.027 3.48-.613.348-1.293.52-1.973.52-.711 0-1.426-.189-2.059-.57l-17.941-10.765-17.941 10.766c-1.238.746-2.777.762-4.031.051-1.254-.709-2.027-2.039-2.027-3.48v-45.239c-.95-.855-1.868-1.755-2.734-2.719-6.422-7.141-9.68-16.355-9.172-25.945.508-9.592 4.723-18.41 11.863-24.832.014-.012.029-.022.043-.035v-33.231h-146.62c-.82 0-1.32.389-1.393.553l.012 150.066c0 .762.619 1.381 1.381 1.381h213.236c.762 0 1.383-.619 1.383-1.381zm-204 3.516c-2.209 0-4 1.791-4 4s1.791 4 4 4 4-1.791 4-4-1.791-4-4-4zm12 0c-2.209 0-4 1.791-4 4s1.791 4 4 4 4-1.791 4-4-1.791-4-4-4zm12 8c2.209 0 4-1.791 4-4s-1.791-4-4-4-4 1.791-4 4 1.791 4 4 4zm-8.484-49.516c.781.781 1.805 1.172 2.828 1.172s2.047-.391 2.828-1.172l2.828-2.828 2.828 2.828c.781.781 1.805 1.172 2.828 1.172s2.047-.391 2.828-1.172c1.562-1.562 1.562-4.094 0-5.656l-2.828-2.828 2.828-2.828c1.562-1.562 1.562-4.094 0-5.656s-4.094-1.562-5.656 0l-2.828 2.828-2.828-2.828c-1.562-1.562-4.094-1.562-5.656 0s-1.562 4.094 0 5.656l2.828 2.828-2.828 2.828c-1.563 1.563-1.563 4.094 0 5.656zm80.484-2.484c0-6.617 5.383-12 12-12s12 5.383 12 12-5.383 12-12 12-12-5.383-12-12zm8 0c0 2.205 1.793 4 4 4s4-1.795 4-4-1.793-4-4-4-4 1.795-4 4zm-47.672 20.668c2.362 0 4.277-1.915 4.277-4.276s-1.915-4.277-4.277-4.277-4.276 1.915-4.276 4.277 1.915 4.276 4.276 4.276zm123.899 72.758c1.07 3.297-.047 6.744-2.852 8.781l-3.352 2.438 1.332 3.781c1.07 3.299-.051 6.746-2.855 8.783-2.812 2.037-6.434 2.029-9.23-.004l-3.355-2.434-3.184 2.436c-1.402 1.02-3.008 1.529-4.617 1.529-1.605 0-3.211-.51-4.613-1.527-2.805-2.037-3.926-5.484-2.855-8.781l1.281-3.945-3.301-2.275c-2.805-2.037-3.922-5.484-2.852-8.781s4.004-5.426 7.469-5.426h4.145l1.145-3.842c1.07-3.297 4-5.428 7.469-5.428 3.465 0 6.398 2.131 7.469 5.428l1.281 3.941 4.008-.1c3.463 0 6.396 2.129 7.467 5.426zm-111.389-1.338c-2.17-.467-4.285.916-4.75 3.074l-12 56c-.463 2.16.914 4.287 3.074 4.75.283.061.564.088.842.088 1.846 0 3.506-1.285 3.908-3.162l12-56c.463-2.16-.914-4.287-3.074-4.75zm-21.408 17.854c-1.139-1.893-3.596-2.506-5.488-1.371l-20 12c-1.205.723-1.941 2.025-1.941 3.43s.736 2.707 1.941 3.43l20 12c.645.387 1.354.57 2.055.57 1.359 0 2.684-.691 3.434-1.941 1.137-1.895.523-4.352-1.371-5.488l-14.283-8.57 14.283-8.57c1.893-1.139 2.506-3.596 1.37-5.49zm54.629 10.628-20-12c-1.898-1.141-4.352-.52-5.488 1.371-1.137 1.895-.523 4.352 1.371 5.488l14.285 8.57-14.285 8.57c-1.895 1.137-2.508 3.594-1.371 5.488.75 1.25 2.074 1.941 3.434 1.941.699 0 1.41-.184 2.055-.57l20-12c1.203-.723 1.941-2.025 1.941-3.43s-.739-2.705-1.942-3.428z" transform="matrix(0.3924669325351715 0.06458316743373871 -0.06458316743373871 0.3924669325351715 98.7005615234375 -30.16326904296875)" fill="#34b9f5" id="L1_53"/><path d="m52 60c-7.719 0-14 6.281-14 14s6.281 14 14 14 14-6.281 14-14-6.281-14-14-14zm0 20c-3.309 0-6-2.691-6-6s2.691-6 6-6 6 2.691 6 6-2.691 6-6 6zm26 84c0 2.209-1.791 4-4 4s-4-1.791-4-4 1.791-4 4-4 4 1.791 4 4zm-12-44c0 2.209-1.791 4-4 4s-4-1.791-4-4 1.791-4 4-4 4 1.791 4 4zm64-16h44c2.211 0 4-1.791 4-4v-12c0-2.209-1.789-4-4-4h-44c-2.211 0-4 1.791-4 4v12c0 2.209 1.789 4 4 4zm4-12h36v4h-36zm-4 48h44c2.211 0 4-1.791 4-4v-12c0-2.209-1.789-4-4-4h-44c-2.211 0-4 1.791-4 4v12c0 2.209 1.789 4 4 4zm4-12h36v4h-36zm124 52h-4v-104c0-1.061-.422-2.078-1.172-2.828l-32-32c-.75-.75-1.766-1.172-2.828-1.172h-120c-6.617 0-12 5.383-12 12v196c0 6.617 5.383 12 12 12h144c6.617 0 12-5.383 12-12v-12h4c2.211 0 4-1.791 4-4v-48c0-2.209-1.789-4-4-4zm-12 68c0 2.205-1.793 4-4 4h-144c-2.207 0-4-1.795-4-4v-196c0-2.205 1.793-4 4-4h116v28c0 2.209 1.789 4 4 4h28v100h-116c-2.211 0-4 1.791-4 4v48c0 2.209 1.789 4 4 4h116zm8-20h-120v-40h120zm-112-8v-24c0-2.209 1.789-4 4-4s4 1.791 4 4v8h8v-8c0-2.209 1.789-4 4-4s4 1.791 4 4v24c0 2.209-1.789 4-4 4s-4-1.791-4-4v-8h-8v8c0 2.209-1.789 4-4 4s-4-1.791-4-4zm-16-108c0-2.209 1.789-4 4-4h52c2.211 0 4 1.791 4 4s-1.789 4-4 4h-52c-2.211 0-4-1.791-4-4zm0 36c0-2.209 1.789-4 4-4h24c2.211 0 4 1.791 4 4s-1.789 4-4 4h-24c-2.211 0-4-1.791-4-4zm0 12c0-2.209 1.789-4 4-4h64c2.211 0 4 1.791 4 4s-1.789 4-4 4h-64c-2.211 0-4-1.791-4-4zm64-48c0-2.209 1.789-4 4-4h20c2.211 0 4 1.791 4 4s-1.789 4-4 4h-20c-2.211 0-4-1.791-4-4zm28 36c0 2.209-1.789 4-4 4h-48c-2.211 0-4-1.791-4-4s1.789-4 4-4h48c2.211 0 4 1.791 4 4zm-48 48c0-2.209 1.789-4 4-4h16c2.211 0 4 1.791 4 4s-1.789 4-4 4h-4v20c0 2.209-1.789 4-4 4s-4-1.791-4-4v-20h-4c-2.211 0-4-1.791-4-4zm28 24v-24c0-1.617.973-3.076 2.469-3.695 1.5-.615 3.219-.275 4.359.867l5.172 5.172 5.172-5.172c1.145-1.145 2.863-1.484 4.359-.867 1.496.619 2.469 2.078 2.469 3.695v24c0 2.209-1.789 4-4 4s-4-1.791-4-4v-14.344l-1.172 1.172c-1.562 1.562-4.094 1.562-5.656 0l-1.172-1.172v14.344c0 2.209-1.789 4-4 4s-4-1.791-4-4zm28 0v-24c0-2.209 1.789-4 4-4s4 1.791 4 4v20h8c2.211 0 4 1.791 4 4s-1.789 4-4 4h-12c-2.211 0-4-1.791-4-4z" transform="matrix(0.5000974535942078 0.08428608626127243 -0.08428608626127243 0.5000974535942078 37.12828063964844 188.84246826171875)" fill="#34b9f5" id="L1_58"/><path d="m71.723 149.473 6.848 11.414c.723 1.205 2.025 1.941 3.43 1.941s2.707-.736 3.43-1.941l6.848-11.414c17.324-4.608 29.721-20.582 29.721-38.645 0-22.057-17.943-40-40-40s-40 17.943-40 40c0 18.063 12.396 34.037 29.723 38.645zm10.277-70.645c17.645 0 32 14.355 32 32 0 14.922-10.574 28.062-25.145 31.244-1.076.236-2.01.904-2.576 1.85l-4.279 7.133-4.279-7.133c-.566-.945-1.5-1.613-2.576-1.85-14.571-3.181-25.145-16.322-25.145-31.244 0-17.644 14.355-32 32-32zm69.515-29.172 2.828-2.828-2.828-2.828c-1.562-1.562-1.562-4.094 0-5.656s4.094-1.562 5.656 0l2.829 2.828 2.828-2.828c1.562-1.562 4.094-1.562 5.656 0s1.562 4.094 0 5.656l-2.828 2.828 2.828 2.828c1.562 1.562 1.562 4.094 0 5.656-.781.781-1.805 1.172-2.828 1.172s-2.047-.391-2.828-1.172l-2.828-2.828-2.828 2.828c-.781.781-1.805 1.172-2.828 1.172s-2.047-.391-2.828-1.172c-1.563-1.562-1.563-4.093-.001-5.656zm49.955 11.172c0-2.502 2.028-4.53 4.53-4.53s4.53 2.028 4.53 4.53c0 2.501-2.028 4.529-4.53 4.529s-4.53-2.027-4.53-4.529zm44 16c0-2.502 2.028-4.53 4.53-4.53s4.53 2.028 4.53 4.53c0 2.501-2.028 4.529-4.53 4.529s-4.53-2.027-4.53-4.529zm-153.689 38.672 7.008-4.672-7.008-4.672c-1.838-1.225-2.334-3.709-1.109-5.547 1.225-1.84 3.709-2.338 5.547-1.109l12 8c1.113.742 1.781 1.99 1.781 3.328s-.668 2.586-1.781 3.328l-12 8c-.682.455-1.453.672-2.215.672-1.293 0-2.561-.625-3.332-1.781-1.225-1.838-.729-4.322 1.109-5.547zm-24 6.656-12-8c-1.113-.742-1.781-1.99-1.781-3.328s.668-2.586 1.781-3.328l12-8c1.838-1.229 4.32-.73 5.547 1.109 1.225 1.838.729 4.322-1.109 5.547l-7.008 4.672 7.008 4.672c1.838 1.225 2.334 3.709 1.109 5.547-.771 1.156-2.039 1.781-3.332 1.781-.762 0-1.533-.217-2.215-.672zm6.297 7.887 8-40c.432-2.164 2.521-3.574 4.707-3.137 2.166.434 3.57 2.541 3.137 4.707l-8 40c-.379 1.9-2.051 3.215-3.918 3.215-.26 0-.523-.025-.789-.078-2.166-.434-3.571-2.541-3.137-4.707zm119.922 36.785c-4.414 0-8.488-2.033-11.184-5.58-.922-1.209-1.074-2.836-.398-4.197s2.062-2.223 3.582-2.223h16c1.52 0 2.906.861 3.582 2.223s.523 2.988-.398 4.197c-2.696 3.547-6.77 5.58-11.184 5.58zm-12-28c0 2.209-1.791 4-4 4s-4-1.791-4-4 1.791-4 4-4 4 1.791 4 4zm24 0c0-2.209 1.791-4 4-4s4 1.791 4 4-1.791 4-4 4-4-1.791-4-4zm68 116h-8v-24.963c0-21.525-18.723-39.037-41.734-39.037h-10.266v-6.421c14.038-5.001 24-17.257 24-31.579v-14-20-4c0-7.443-5.109-13.715-12.004-15.494-.164-9.129-7.645-16.506-16.812-16.506h-42.367c-9.273 0-16.816 7.543-16.816 16.816v19.184c0 2.209 1.789 4 4 4h8v30c0 14.322 9.962 26.578 24 31.579v6.421h-11.961c-9.916 0-18.625 4.871-23.612 12.184l-4.462-32.725c-.273-1.98-1.965-3.459-3.965-3.459h-116.001c-1.154 0-2.254.5-3.014 1.369-.76.871-1.105 2.027-.949 3.172l12 88c.27 1.98 1.963 3.459 3.963 3.459h236c2.211 0 4-1.791 4-4s-1.789-4-4-4zm-116-155.183c0-4.861 3.953-8.816 8.816-8.816h42.367c4.863 0 8.816 3.955 8.816 8.816v3.184c0 2.209 1.789 4 4 4 4.41 0 8 3.588 8 8v4 14.926c-2.391-1.385-4-3.971-4-6.926v-8c0-2.209-1.789-4-4-4h-64v-15.184zm12 53.183v-30h48v4c0 7.433 5.118 13.643 12 15.432v10.568c0 14.336-13.457 26-30 26s-30-11.664-30-26zm30 34c2.046 0 4.041-.186 6-.466v8.466c0 2.209 1.789 4 4 4h3.798c-.981 6.767-6.764 12-13.798 12s-12.817-5.233-13.798-12h3.798c2.211 0 4-1.791 4-4v-8.466c1.959.28 3.953.466 6 .466zm-169.418-12h107.926l10.91 80h-107.926zm211.418 80v-20c0-2.209-1.789-4-4-4s-4 1.791-4 4v20h-4-24.525l3.854-5.781c.82-1.229.895-2.807.199-4.105-.695-1.301-2.051-2.113-3.527-2.113h-32v-8c0-2.209-1.789-4-4-4s-4 1.791-4 4v8h-10.143l-1.858-13.617v-12.062c0-10.104 8.988-18.322 20.039-18.322h4.062c1.015 11.196 10.445 20 21.899 20s20.883-8.804 21.899-20h2.367c18.602 0 33.734 13.924 33.734 31.037v24.963zm-152-52c-6.617 0-12 5.383-12 12s5.383 12 12 12 12-5.383 12-12-5.383-12-12-12z" transform="matrix(0.5143598914146423 0 0 0.5143598914146423 154.58740234375 207.71826171875)" fill="#34b9f5" id="L1_59"/><path d="m234 81.277c6.617 0 12-5.383 12-12s-5.383-12-12-12-12 5.383-12 12 5.383 12 12 12zm0-16c2.207 0 4 1.795 4 4s-1.793 4-4 4-4-1.795-4-4 1.793-4 4-4zm-150.349 9.967c.005-2.502 2.036-4.526 4.538-4.521s4.526 2.036 4.521 4.538-2.036 4.526-4.538 4.521c-2.501-.005-4.525-2.037-4.521-4.538zm120-28c.005-2.502 2.036-4.526 4.538-4.521s4.526 2.036 4.521 4.538-2.036 4.526-4.538 4.521c-2.501-.005-4.525-2.037-4.521-4.538zm-90.135 12.862 2.828-2.828-2.828-2.828c-1.562-1.562-1.562-4.094 0-5.656s4.094-1.562 5.656 0l2.828 2.827 2.828-2.828c1.562-1.562 4.094-1.562 5.656 0s1.562 4.094 0 5.656l-2.828 2.828 2.828 2.828c1.562 1.562 1.562 4.094 0 5.656-.781.781-1.805 1.172-2.828 1.172s-2.047-.391-2.828-1.172l-2.828-2.827-2.828 2.828c-.781.781-1.805 1.172-2.828 1.172s-2.047-.391-2.828-1.172c-1.563-1.563-1.563-4.094 0-5.656zm160.484 189.171h-10.162c3.817-4.251 6.162-9.85 6.162-16 0-2.209-1.789-4-4-4h-8v-113.4c0-8.051-6.977-14.6-15.551-14.6h-184.898c-8.574 0-15.551 6.549-15.551 14.6v113.4h-8c-2.211 0-4 1.791-4 4 0 6.15 2.345 11.749 6.162 16h-10.162c-2.211 0-4 1.791-4 4s1.789 4 4 4h248c2.211 0 4-1.791 4-4s-1.789-4-4-4zm-224-133.4c0-3.639 3.387-6.6 7.551-6.6h184.898c4.164 0 7.551 2.961 7.551 6.6v113.4h-80c-2.211 0-4 1.791-4 4 0 2.205-1.793 4-4 4h-24c-2.207 0-4-1.795-4-4 0-2.209-1.789-4-4-4h-80zm4 133.4c-7.441 0-13.715-5.107-15.492-12h88.176c1.652 4.656 6.102 8 11.316 8h24c5.215 0 9.664-3.344 11.316-8h88.176c-1.777 6.893-8.051 12-15.492 12zm60-121.14c0-3.783-3.078-6.859-6.859-6.859h-13.141c-2.211 0-4 1.791-4 4v24c0 2.209 1.789 4 4 4s4-1.791 4-4v-8h9.141c3.781 0 6.859-3.076 6.859-6.859zm-8 5.14h-8v-4h8zm16 20c2.211 0 4-1.791 4-4v-8h9.141c3.781 0 6.859-3.076 6.859-6.859v-6.281c0-3.783-3.078-6.859-6.859-6.859h-13.141c-2.211 0-4 1.791-4 4v24c0 2.208 1.789 3.999 4 3.999zm4-24h8v4h-8zm-60.656 23.946c2.18.367 4.238-1.109 4.602-3.287l.776-4.658h6.558l.776 4.658c.324 1.955 2.02 3.342 3.941 3.342.219 0 .438-.018.66-.055 2.18-.363 3.652-2.424 3.289-4.604l-4-24c-.32-1.928-1.988-3.342-3.945-3.342h-8c-1.957 0-3.625 1.414-3.945 3.342l-4 24c-.365 2.18 1.108 4.24 3.288 4.604zm9.269-23.946 1.333 8h-3.892l1.333-8zm27.387 32h-36c-2.211 0-4 1.791-4 4v56c0 2.209 1.789 4 4 4h36c2.211 0 4-1.791 4-4v-56c0-2.209-1.789-4-4-4zm136 60v-56c0-2.209-1.789-4-4-4h-116c-2.211 0-4 1.791-4 4v56c0 2.209 1.789 4 4 4h116c2.211 0 4-1.791 4-4zm-8-4h-108v-48h108zm-76-92c0-2.209 1.789-4 4-4h60c2.211 0 4 1.791 4 4s-1.789 4-4 4h-60c-2.211 0-4-1.791-4-4zm0 12c0-2.209 1.789-4 4-4h16c2.211 0 4 1.791 4 4s-1.789 4-4 4h-16c-2.211 0-4-1.791-4-4zm32-4h40c2.211 0 4 1.791 4 4s-1.789 4-4 4h-40c-2.211 0-4-1.791-4-4s1.789-4 4-4zm-32 16c0-2.209 1.789-4 4-4h36c2.211 0 4 1.791 4 4s-1.789 4-4 4h-36c-2.211 0-4-1.791-4-4z" transform="matrix(0.4170839488506317 -0.2952391803264618 0.2952391803264618 0.4170839488506317 148.6522674560547 49.724178314208984)" fill="#34b9f5" id="L1_60"/><path d="m40 105.828c0-2.209 1.791-4 4-4s4 1.791 4 4-1.791 4-4 4-4-1.791-4-4zm192-30c0-7.719 6.281-14 14-14s14 6.281 14 14-6.281 14-14 14-14-6.281-14-14zm8 0c0 3.309 2.691 6 6 6s6-2.691 6-6-2.691-6-6-6-6 2.692-6 6zm-48.484-23.516c.781.781 1.805 1.172 2.828 1.172s2.047-.391 2.828-1.172l2.828-2.828 2.828 2.828c.781.781 1.805 1.172 2.828 1.172s2.047-.391 2.828-1.172c1.562-1.562 1.562-4.094 0-5.656l-2.828-2.828 2.828-2.828c1.562-1.562 1.562-4.094 0-5.656s-4.094-1.562-5.656 0l-2.828 2.828-2.828-2.828c-1.562-1.562-4.094-1.562-5.656 0s-1.562 4.094 0 5.656l2.828 2.828-2.828 2.828c-1.563 1.563-1.563 4.094 0 5.656zm72.484 107.516c0 20.953-17.047 38-38 38h-2.325c-3.069 38.348-34.84 68-73.675 68-38.788 0-70.603-29.669-73.678-68h-2.322c-20.953 0-38-17.047-38-38 0-17.848 12.23-32.961 29.152-36.963-.766-2.941-1.152-5.967-1.152-9.037 0-19.85 16.15-36 36-36 8.369 0 16.477 2.965 22.893 8.264 10.83-15.078 28.457-24.264 47.107-24.264 31.98 0 58 26.02 58 58 0 .674-.014 1.355-.041 2.051 20.045 1.023 36.041 17.652 36.041 37.949zm-114 82c27.57 0 50-22.43 50-50s-22.43-50-50-50-50 22.43-50 50 22.43 50 50 50zm106-82c0-16.543-13.457-30-30-30-.6 0-1.186.045-1.773.088-1.199.074-2.504-.354-3.328-1.211-.824-.859-1.379-2.027-1.244-3.209.232-2.045.346-3.898.346-5.668 0-27.57-22.43-50-50-50-17.764 0-33.818 9.16-42.949 24.502-.648 1.088-1.771 1.807-3.031 1.934-1.273.143-2.506-.346-3.361-1.281-5.309-5.818-12.84-9.154-20.658-9.154-15.439 0-28 12.561-28 28 0 3.676.711 7.264 2.115 10.666.48 1.166.385 2.49-.262 3.574-.645 1.082-1.764 1.799-3.02 1.93-15.298 1.603-26.835 14.427-26.835 29.829 0 16.543 13.457 30 30 30h18.101c1.067-31.05 26.593-56 57.899-56s56.832 24.95 57.899 56h18.101c16.543 0 30-13.457 30-30zm-112.838 63.912c.283.061.564.088.842.088 1.846 0 3.506-1.285 3.908-3.162l12-56c.463-2.16-.914-4.287-3.074-4.75-2.168-.463-4.285.914-4.75 3.074l-12 56c-.463 2.16.914 4.287 3.074 4.75zm-11.166-15.912c1.359 0 2.684-.691 3.434-1.941 1.137-1.895.523-4.352-1.371-5.488l-14.283-8.57 14.283-8.57c1.895-1.137 2.508-3.594 1.371-5.488-1.135-1.895-3.598-2.508-5.488-1.371l-20 12c-1.205.723-1.941 2.025-1.941 3.43s.736 2.707 1.941 3.43l20 12c.644.385 1.353.568 2.054.568zm32.574-1.941c.75 1.25 2.074 1.941 3.434 1.941.701 0 1.41-.184 2.055-.57l20-12c1.205-.723 1.941-2.025 1.941-3.43s-.736-2.707-1.941-3.43l-20-12c-1.896-1.141-4.352-.527-5.488 1.371-1.137 1.895-.523 4.352 1.371 5.488l14.283 8.57-14.283 8.57c-1.895 1.138-2.508 3.595-1.372 5.49zm5.43-128.059c-2.209 0-4 1.791-4 4s1.791 4 4 4c14.146 0 26.961 8.906 31.883 22.162.6 1.611 2.127 2.609 3.75 2.609.463 0 .934-.082 1.393-.252 2.07-.77 3.127-3.072 2.357-5.143-6.082-16.374-21.908-27.376-39.383-27.376z" transform="matrix(0.46943292021751404 -0.22117513418197632 0.22117513418197632 0.46943292021751404 58.86135482788086 137.1107940673828)" fill="#34b9f5" id="L1_67"/><path d="m47.516 72.828 2.828-2.828-2.828-2.828c-1.562-1.562-1.562-4.094 0-5.656s4.094-1.562 5.656 0l2.828 2.828 2.828-2.828c1.562-1.562 4.094-1.562 5.656 0s1.562 4.094 0 5.656l-2.828 2.828 2.828 2.828c1.562 1.562 1.562 4.094 0 5.656-.781.781-1.805 1.172-2.828 1.172s-2.047-.391-2.828-1.172l-2.828-2.828-2.828 2.828c-.781.781-1.805 1.172-2.828 1.172s-2.047-.391-2.828-1.172c-1.563-1.562-1.563-4.093 0-5.656zm-1.516 35.701c2.501 0 4.53-2.028 4.53-4.529 0-2.502-2.028-4.53-4.53-4.53s-4.53 2.028-4.53 4.53c0 2.501 2.029 4.529 4.53 4.529zm216 58.157v74.629c0 6.994-5.691 12.686-12.684 12.686h-38.633c-6.992 0-12.684-5.691-12.684-12.686v-74.629c0-6.994 5.691-12.686 12.684-12.686h15.317v-12h-64.737c-1.208 3.389-3.874 6.055-7.263 7.263v4.737h15.316c6.992 0 12.684 5.691 12.684 12.686v74.629c0 6.994-5.691 12.686-12.684 12.686h-38.633c-6.992 0-12.684-5.691-12.684-12.686v-74.629c0-6.994 5.691-12.686 12.684-12.686h15.317v-4.737c-3.389-1.208-6.054-3.874-7.263-7.263h-64.737v12h15.316c6.992 0 12.684 5.691 12.684 12.686v74.629c0 6.994-5.691 12.685-12.684 12.685h-38.632c-6.993 0-12.684-5.691-12.684-12.686v-74.629c0-6.994 5.691-12.685 12.684-12.685h15.316v-16c0-2.209 1.789-4 4-4h68.737c1.208-3.389 3.874-6.055 7.263-7.263v-8.737h-38c-12.129 0-22-9.869-22-22 0-10.029 6.652-18.492 16.016-21.092-.012-.304-.016-.607-.016-.908 0-15.439 12.562-28 28-28 8.555 0 16.422 3.803 21.707 10.34 3.207-1.539 6.703-2.34 10.293-2.34 11.871 0 21.758 8.664 23.668 20h6.332c12.129 0 22 9.869 22 22s-9.871 22-22 22h-38v8.737c3.389 1.208 6.055 3.874 7.263 7.263h68.737c2.211 0 4 1.791 4 4v16h15.316c6.993 0 12.684 5.691 12.684 12.686zm-154-56.686h84c7.719 0 14-6.281 14-14s-6.281-14-14-14h-10c-2.211 0-4-1.791-4-4 0-8.822-7.176-16-16-16-3.273 0-6.438 1.008-9.156 2.914-.902.639-2.023.867-3.121.641-1.086-.229-2.027-.898-2.602-1.848-3.668-6.078-10.066-9.707-17.121-9.707-11.027 0-20 8.973-20 20 0 1.082.105 2.221.324 3.48.191 1.1-.09 2.23-.77 3.117s-1.699 1.447-2.812 1.549c-7.265.657-12.742 6.614-12.742 13.854 0 7.719 6.281 14 14 14zm-14 108v-4h-48v4zm-48 8v4h48v-4zm48 15.314v-3.314h-48v3.314c0 2.584 2.102 4.686 4.684 4.686h38.633c2.581 0 4.683-2.102 4.683-4.686zm-4.684-79.314h-38.632c-2.582 0-4.684 2.102-4.684 4.686v39.314h48v-39.314c0-2.584-2.102-4.686-4.684-4.686zm84.684 56v-4h-48v4zm-48 8v4h48v-4zm48 15.314v-3.314h-48v3.314c0 2.584 2.102 4.686 4.684 4.686h38.633c2.581 0 4.683-2.102 4.683-4.686zm-4.684-79.314h-38.633c-2.582 0-4.684 2.102-4.684 4.686v39.314h48v-39.314c.001-2.584-2.101-4.686-4.683-4.686zm-15.316-24c0-2.205-1.793-4-4-4s-4 1.795-4 4 1.793 4 4 4 4-1.795 4-4zm52 28.686v39.314h48v-39.314c0-2.584-2.102-4.686-4.684-4.686h-38.633c-2.581 0-4.683 2.102-4.683 4.686zm48 51.314v-4h-48v4zm-48 8v4h48v-4zm48 15.314v-3.314h-48v3.314c0 2.584 2.102 4.686 4.684 4.686h38.633c2.581 0 4.683-2.102 4.683-4.686zm-196-59.314c0-6.617 5.383-12 12-12s12 5.383 12 12-5.383 12-12 12-12-5.383-12-12zm80 0c0-6.617 5.383-12 12-12s12 5.383 12 12-5.383 12-12 12-12-5.383-12-12zm80 0c0-6.617 5.383-12 12-12s12 5.383 12 12-5.383 12-12 12-12-5.383-12-12zm8-112c0-6.617 5.383-12 12-12s12 5.383 12 12-5.383 12-12 12-12-5.383-12-12zm8 0c0 2.205 1.793 4 4 4s4-1.795 4-4-1.793-4-4-4-4 1.795-4 4z" transform="matrix(0.4800153076648712 -0.04860914498567581 0.04860914498567581 0.4800153076648712 -69.48728942871094 273.9342346191406)" fill="#34b9f5" id="L1_68"/><path d="m218.052 54.219c0-2.362 1.915-4.277 4.276-4.277s4.277 1.915 4.277 4.277-1.915 4.276-4.277 4.276-4.276-1.914-4.276-4.276zm47.948 44.093v150.135c0 5.172-4.211 9.381-9.383 9.381h-213.234c-5.172 0-9.383-4.209-9.383-9.381v-150.135c0-4.678 4.211-8.484 9.383-8.484h213.234c5.172 0 9.383 3.807 9.383 8.484zm-8 0c-.059-.096-.562-.484-1.383-.484h-213.234c-.82 0-1.324.389-1.395.553l.012 150.066c0 .762.621 1.381 1.383 1.381h213.234c.762 0 1.383-.619 1.383-1.381zm-204 3.516c-2.209 0-4 1.791-4 4s1.791 4 4 4 4-1.791 4-4-1.791-4-4-4zm12 8c2.209 0 4-1.791 4-4s-1.791-4-4-4-4 1.791-4 4 1.791 4 4 4zm12 0c2.209 0 4-1.791 4-4s-1.791-4-4-4-4 1.791-4 4 1.791 4 4 4zm-8.484-49.516c.781.781 1.805 1.172 2.828 1.172s2.047-.391 2.828-1.172l2.828-2.828 2.828 2.828c.781.781 1.805 1.172 2.828 1.172s2.047-.391 2.828-1.172c1.562-1.562 1.562-4.094 0-5.656l-2.828-2.828 2.828-2.828c1.562-1.562 1.562-4.094 0-5.656s-4.094-1.562-5.656 0l-2.828 2.828-2.828-2.828c-1.562-1.562-4.094-1.562-5.656 0s-1.562 4.094 0 5.656l2.828 2.828-2.828 2.828c-1.563 1.563-1.563 4.094 0 5.656zm80.484-2.484c0-6.617 5.383-12 12-12s12 5.383 12 12-5.383 12-12 12-12-5.383-12-12zm8 0c0 2.205 1.793 4 4 4s4-1.795 4-4-1.793-4-4-4-4 1.795-4 4zm-47.672 20.668c2.362 0 4.277-1.915 4.277-4.276s-1.915-4.277-4.277-4.277-4.276 1.915-4.276 4.277 1.915 4.276 4.276 4.276zm27.672 140.027v7.305c0 2.209-1.789 4-4 4h-72c-2.211 0-4-1.791-4-4v-7.305c0-9.205 7.488-16.695 16.695-16.695h11.305v-6.661c-9.443-4.374-16-13.708-16-24.523v-26.874c0-9.893 7.961-17.941 17.742-17.941h13.645c4.719 0 8.742 3.049 10.242 7.295 8.176 1.598 14.371 8.889 14.371 17.615v19.906c0 10.815-6.557 20.149-16 24.523v6.661h11.305c9.207-.001 16.695 7.489 16.695 16.694zm-44 3.305h8v-8.706c-1.257.429-2.591.706-4 .706s-2.743-.277-4-.706zm4-32c11.027 0 20-8.605 20-19.184v-7.213l-5.613-5.883c-13.191 5.787-23.875 2.469-28.887.119l-5.5 5.764v7.213c0 10.579 8.973 19.184 20 19.184zm-4 7.69v4.31.508c0 1.926 1.793 3.492 4 3.492s4-1.566 4-3.492v-.508-4.31c-1.31.183-2.638.31-4 .31s-2.69-.127-4-.31zm-28 24.31h20v-12h-11.305c-4.793 0-8.695 3.9-8.695 8.695zm64-3.305c0-4.795-3.902-8.695-8.695-8.695h-11.305v12h20zm72.84-72.607c-2.18-.455-4.289.916-4.75 3.074l-12 56c-.465 2.16.91 4.287 3.07 4.75.285.061.566.088.844.088 1.844 0 3.504-1.285 3.906-3.162l12-56c.465-2.16-.91-4.287-3.07-4.75zm-21.41 17.854c-1.137-1.895-3.59-2.51-5.488-1.371l-20 12c-1.203.723-1.941 2.025-1.941 3.43s.738 2.707 1.941 3.43l20 12c.645.387 1.355.57 2.055.57 1.359 0 2.684-.691 3.434-1.941 1.137-1.895.523-4.352-1.371-5.488l-14.285-8.57 14.285-8.57c1.893-1.139 2.506-3.596 1.37-5.49zm54.629 10.628-20-12c-1.898-1.139-4.352-.523-5.488 1.371s-.523 4.352 1.371 5.488l14.285 8.57-14.285 8.57c-1.895 1.137-2.508 3.594-1.371 5.488.75 1.25 2.074 1.941 3.434 1.941.699 0 1.41-.184 2.055-.57l20-12c1.203-.723 1.941-2.025 1.941-3.43s-.739-2.705-1.942-3.428z" transform="matrix(0.43311890959739685 0.138095885515213 -0.138095885515213 0.43311890959739685 14.55777359008789 25.636455535888672)" fill="#34b9f5" id="L1_69"/></defs><g fi:class="KUsePattern" opacity="0.72"><pattern id="pattern_L1_51" width="350" height="350" patternUnits="userSpaceOnUse"><use xlink:href="#L1_51" x="-350" y="-350"/><use xlink:href="#L1_51" x="0" y="-350"/><use xlink:href="#L1_51" x="350" y="-350"/><use xlink:href="#L1_51" x="-350" y="0"/><use xlink:href="#L1_51" x="0" y="0"/><use xlink:href="#L1_51" x="350" y="0"/><use xlink:href="#L1_51" x="-350" y="350"/><use xlink:href="#L1_51" x="0" y="350"/><use xlink:href="#L1_51" x="350" y="350"/></pattern><rect x="0" y="0" width="100%" height="100%" fill="url(#pattern_L1_51)"/></g><g fi:class="KUsePattern" opacity="0.7"><pattern id="pattern_L1_53" width="350" height="350" patternUnits="userSpaceOnUse"><use xlink:href="#L1_53" x="-350" y="-350"/><use xlink:href="#L1_53" x="0" y="-350"/><use xlink:href="#L1_53" x="350" y="-350"/><use xlink:href="#L1_53" x="-350" y="0"/><use xlink:href="#L1_53" x="0" y="0"/><use xlink:href="#L1_53" x="350" y="0"/><use xlink:href="#L1_53" x="-350" y="350"/><use xlink:href="#L1_53" x="0" y="350"/><use xlink:href="#L1_53" x="350" y="350"/></pattern><rect x="0" y="0" width="100%" height="100%" fill="url(#pattern_L1_53)"/></g><g fi:class="KUsePattern" opacity="0.7"><pattern id="pattern_L1_58" width="350" height="350" patternUnits="userSpaceOnUse"><use xlink:href="#L1_58" x="-350" y="-350"/><use xlink:href="#L1_58" x="0" y="-350"/><use xlink:href="#L1_58" x="350" y="-350"/><use xlink:href="#L1_58" x="-350" y="0"/><use xlink:href="#L1_58" x="0" y="0"/><use xlink:href="#L1_58" x="350" y="0"/><use xlink:href="#L1_58" x="-350" y="350"/><use xlink:href="#L1_58" x="0" y="350"/><use xlink:href="#L1_58" x="350" y="350"/></pattern><rect x="0" y="0" width="100%" height="100%" fill="url(#pattern_L1_58)"/></g><g fi:class="KUsePattern" opacity="0.74"><pattern id="pattern_L1_59" width="350" height="350" patternUnits="userSpaceOnUse"><use xlink:href="#L1_59" x="-350" y="-350"/><use xlink:href="#L1_59" x="0" y="-350"/><use xlink:href="#L1_59" x="350" y="-350"/><use xlink:href="#L1_59" x="-350" y="0"/><use xlink:href="#L1_59" x="0" y="0"/><use xlink:href="#L1_59" x="350" y="0"/><use xlink:href="#L1_59" x="-350" y="350"/><use xlink:href="#L1_59" x="0" y="350"/><use xlink:href="#L1_59" x="350" y="350"/></pattern><rect x="0" y="0" width="100%" height="100%" fill="url(#pattern_L1_59)"/></g><g fi:class="KUsePattern" opacity="0.74"><pattern id="pattern_L1_60" width="350" height="350" patternUnits="userSpaceOnUse"><use xlink:href="#L1_60" x="-350" y="-350"/><use xlink:href="#L1_60" x="0" y="-350"/><use xlink:href="#L1_60" x="350" y="-350"/><use xlink:href="#L1_60" x="-350" y="0"/><use xlink:href="#L1_60" x="0" y="0"/><use xlink:href="#L1_60" x="350" y="0"/><use xlink:href="#L1_60" x="-350" y="350"/><use xlink:href="#L1_60" x="0" y="350"/><use xlink:href="#L1_60" x="350" y="350"/></pattern><rect x="0" y="0" width="100%" height="100%" fill="url(#pattern_L1_60)"/></g><g fi:class="KUsePattern" opacity="0.77"><pattern id="pattern_L1_67" width="350" height="350" patternUnits="userSpaceOnUse"><use xlink:href="#L1_67" x="-350" y="-350"/><use xlink:href="#L1_67" x="0" y="-350"/><use xlink:href="#L1_67" x="350" y="-350"/><use xlink:href="#L1_67" x="-350" y="0"/><use xlink:href="#L1_67" x="0" y="0"/><use xlink:href="#L1_67" x="350" y="0"/><use xlink:href="#L1_67" x="-350" y="350"/><use xlink:href="#L1_67" x="0" y="350"/><use xlink:href="#L1_67" x="350" y="350"/></pattern><rect x="0" y="0" width="100%" height="100%" fill="url(#pattern_L1_67)"/></g><g fi:class="KUsePattern" opacity="0.7"><pattern id="pattern_L1_68" width="350" height="350" patternUnits="userSpaceOnUse"><use xlink:href="#L1_68" x="-350" y="-350"/><use xlink:href="#L1_68" x="0" y="-350"/><use xlink:href="#L1_68" x="350" y="-350"/><use xlink:href="#L1_68" x="-350" y="0"/><use xlink:href="#L1_68" x="0" y="0"/><use xlink:href="#L1_68" x="350" y="0"/><use xlink:href="#L1_68" x="-350" y="350"/><use xlink:href="#L1_68" x="0" y="350"/><use xlink:href="#L1_68" x="350" y="350"/></pattern><rect x="0" y="0" width="100%" height="100%" fill="url(#pattern_L1_68)"/></g><g fi:class="KUsePattern" opacity="0.7"><pattern id="pattern_L1_69" width="350" height="350" patternUnits="userSpaceOnUse"><use xlink:href="#L1_69" x="-350" y="-350"/><use xlink:href="#L1_69" x="0" y="-350"/><use xlink:href="#L1_69" x="350" y="-350"/><use xlink:href="#L1_69" x="-350" y="0"/><use xlink:href="#L1_69" x="0" y="0"/><use xlink:href="#L1_69" x="350" y="0"/><use xlink:href="#L1_69" x="-350" y="350"/><use xlink:href="#L1_69" x="0" y="350"/><use xlink:href="#L1_69" x="350" y="350"/></pattern><rect x="0" y="0" width="100%" height="100%" fill="url(#pattern_L1_69)"/></g></svg>