<svg xmlns="http://www.w3.org/2000/svg" xmlns:xlink="http://www.w3.org/1999/xlink" xmlns:fi="http://pattern.flaticon.com/" x="0" y="0" width="700" height="350" viewBox="0 0 700 350"><rect x="0px" y="0px" width="100%" height="100%" opacity="0" fill="#0a0c08"/><defs><g transform="matrix(0.0889916867017746 0 0 0.0889916867017746 133.00270915031433 19.35392826795578)" id="L1_22"><path d="M 32 0 L 136 0 L 136 48 L 32 48 Z M 32 0 " fill="#937351" fill-opacity="1" stroke="none"/><path d="M 184 0 L 288 0 L 288 48 L 184 48 Z M 184 0 " fill="#c49a6c" fill-opacity="1" stroke="none"/><path d="M 109.0625 101.863281 C 105.734375 108.53125 104 115.878906 104 123.328125 L 104 192 L 152 192 L 152 123.328125 C 152 115.878906 153.734375 108.53125 157.0625 101.863281 L 184 48 L 184 0 L 136 0 L 136 48 Z M 109.0625 101.863281 " fill="#ffaf46" fill-opacity="1" stroke="none"/><path d="M 77.089844 370.910156 C 95.832031 389.65625 133.824219 382.054688 161.945312 353.945312 C 190.0625 325.832031 197.65625 287.832031 178.910156 269.089844 Z M 77.089844 370.910156 " fill="#8b5e3c" fill-opacity="1" stroke="none"/><path d="M 94.054688 286.054688 C 65.945312 314.175781 58.34375 352.167969 77.089844 370.910156 L 178.910156 269.089844 C 160.167969 250.34375 122.175781 257.945312 94.054688 286.054688 Z M 94.054688 286.054688 " fill="#8b5e3c" fill-opacity="1" stroke="none"/><path d="M 261.0625 101.863281 L 288 48 L 184 48 L 157.0625 101.863281 C 153.734375 108.53125 152 115.878906 152 123.328125 L 152 192 L 136 192 L 136 260.984375 C 152.863281 256.558594 168.726562 258.910156 178.910156 269.089844 C 197.65625 287.832031 190.054688 325.824219 161.945312 353.945312 C 154.347656 361.578125 145.589844 367.964844 136 372.863281 L 136 464 L 256 464 L 256 123.328125 C 256 115.878906 257.734375 108.53125 261.0625 101.863281 Z M 261.0625 101.863281 " fill="#d0ae89" fill-opacity="1" stroke="none"/><path d="M 77.089844 370.910156 C 58.34375 352.167969 65.945312 314.175781 94.054688 286.054688 C 105.601562 274.171875 120.066406 265.527344 136 260.984375 L 136 192 L 104 192 L 104 123.328125 C 104 115.878906 105.734375 108.53125 109.0625 101.863281 L 136 48 L 32 48 L 5.0625 101.863281 C 1.734375 108.53125 0 115.878906 0 123.328125 L 0 464 L 136 464 L 136 372.863281 C 113.601562 384.183594 90.457031 384.28125 77.089844 370.910156 Z M 77.089844 370.910156 " fill="#c49a6c" fill-opacity="1" stroke="none"/><path d="M 314.9375 101.863281 L 288 48 L 261.0625 101.863281 C 257.734375 108.53125 256 115.878906 256 123.328125 L 256 464 L 320 464 L 320 123.328125 C 320 115.878906 318.265625 108.53125 314.9375 101.863281 Z M 314.9375 101.863281 " fill="#a97c50" fill-opacity="1" stroke="none"/><path d="M 104.296875 389.207031 C 92.085938 389.605469 80.230469 385.042969 71.433594 376.566406 C 60.023438 364.121094 55.769531 346.703125 60.160156 330.398438 C 64.507812 311.332031 74.320312 293.945312 88.398438 280.367188 C 101.972656 266.304688 119.347656 256.503906 138.398438 252.160156 C 154.695312 247.773438 172.101562 252.027344 184.535156 263.433594 C 195.957031 275.871094 200.21875 293.289062 195.839844 309.601562 C 191.492188 328.667969 181.679688 346.054688 167.601562 359.632812 C 154.027344 373.695312 136.652344 383.496094 117.601562 387.839844 C 113.222656 388.734375 108.765625 389.195312 104.296875 389.207031 Z M 151.632812 266.808594 C 148.25 266.824219 144.878906 267.175781 141.566406 267.847656 C 125.597656 271.582031 111.058594 279.875 99.710938 291.71875 C 87.863281 303.070312 79.570312 317.621094 75.839844 333.601562 C 72.636719 344.652344 75.234375 356.570312 82.742188 365.289062 C 91.46875 372.78125 103.378906 375.375 114.433594 372.191406 C 130.402344 368.457031 144.941406 360.164062 156.289062 348.320312 C 168.144531 336.957031 176.4375 322.394531 180.160156 306.398438 C 183.363281 295.347656 180.765625 283.429688 173.257812 274.710938 C 167.40625 269.273438 159.609375 266.421875 151.632812 266.800781 Z M 151.632812 266.808594 " fill="#754c29" fill-opacity="1" stroke="none"/><path d="M 79.863281 373.6875 L 68.550781 362.398438 C 74.832031 355.863281 82.285156 350.566406 90.519531 346.785156 C 97.195312 343.78125 103.222656 339.511719 108.265625 334.207031 C 113.558594 329.160156 117.816406 323.128906 120.800781 316.449219 C 128.730469 300.03125 141.984375 286.78125 158.398438 278.847656 C 165.070312 275.855469 171.09375 271.589844 176.128906 266.289062 L 187.449219 277.601562 C 181.171875 284.132812 173.722656 289.425781 165.488281 293.199219 C 152.242188 299.578125 141.558594 310.273438 135.199219 323.527344 C 131.421875 331.769531 126.128906 339.222656 119.59375 345.503906 C 113.304688 352.039062 105.84375 357.332031 97.601562 361.113281 C 90.929688 364.113281 84.902344 368.386719 79.863281 373.6875 Z M 79.863281 373.6875 " fill="#754c29" fill-opacity="1" stroke="none"/></g><g transform="matrix(0.1171875 0 0 0.1171875 77.00000148773188 278)" id="L1_23"><path d="M354.986,395.6c-4.087,0-7.469-3.236-7.618-7.353c-0.152-4.211,3.138-7.746,7.348-7.899  c101.628-3.667,127.602-68.493,133.26-89.472c0.276-1.02,0.52-1.923,0.74-2.694l0.524-2.593c5.214-24.328-9.571-48.029-33.64-54.045  c-10.463-2.617-27.775,1.636-36.977,8.022c-6.784,4.708-15.272,13.861-17.184,30.736c-0.474,4.187-4.251,7.185-8.438,6.721  c-4.186-0.474-7.195-4.251-6.721-8.438c2.554-22.557,14.268-35.048,23.645-41.554c12.902-8.952,34.55-13.992,49.373-10.289  c15.459,3.864,28.605,13.442,37.018,26.97c8.393,13.496,11.184,29.472,7.859,44.987l-0.567,2.807  c-0.043,0.208-0.094,0.415-0.153,0.619c-0.221,0.758-0.466,1.672-0.75,2.723c-2.79,10.345-9.325,34.569-29.39,56.436  c-24.795,27.023-70.322,42.586-118.051,44.308C355.172,395.598,355.079,395.6,354.986,395.6z" fill="#b39a7c"/><path d="M454.146,458.603c0,2.166-0.539,4.302-1.597,6.397C439.307,491.475,344.86,512,230.306,512  c-123.626,0-223.85-23.901-223.85-53.397c0-10.303,12.246-19.935,33.472-28.102c39.473-15.175,109.977-25.285,190.377-25.285  C353.933,405.217,454.146,429.118,454.146,458.603z" fill="#a78966"/><path d="M454.146,458.603c0,2.166-0.539,4.302-1.597,6.397c-39.463,15.185-109.967,25.305-190.377,25.305  c-123.626,0-223.839-23.912-223.839-53.397c0-2.166,0.539-4.302,1.597-6.408c39.473-15.175,109.977-25.285,190.377-25.285  C353.933,405.217,454.146,429.118,454.146,458.603z" fill="#b39a7c"/><path d="M406.872,199.664v25.864c0,43.348-7.984,84.906-22.335,120.656  c-14.361,35.74-35.089,65.683-60.577,85.801c-22.152,17.484-46.796,26.617-71.806,26.617h-47.437  c-12.51,0-24.919-2.288-36.971-6.753c-12.063-4.465-23.759-11.117-34.835-19.864C81.934,391.75,49.998,312.225,49.998,225.529  v-25.864H406.872z" fill="#c0ab91"/><path d="M406.872,199.664v25.864c0,43.348-7.984,84.906-22.335,120.656  c-14.361,35.74-35.089,65.683-60.577,85.801c-22.152,17.484-46.796,26.617-71.806,26.617h-12.856  c-12.51,0-24.919-2.288-36.971-6.753c-12.063-4.465-23.759-11.117-34.835-19.864c-50.976-40.236-82.913-119.761-82.913-206.457  v-25.864H406.872z" fill="#d9ccbc"/><path d="M406.872,199.664c0,6.967-5.045,13.588-14.158,19.609c-2.553,1.688-5.421,3.316-8.584,4.902  c-20.057,10.049-52.054,17.941-90.581,22.193c-14.829,1.637-30.614,2.716-47.05,3.183c-5.94,0.163-11.961,0.254-18.063,0.254  c-4.526,0-9.011-0.041-13.456-0.142c-18.104-0.376-35.455-1.505-51.647-3.306c-35.872-3.946-66.08-11.066-86.259-20.138  c-4.933-2.207-9.255-4.536-12.927-6.957c-9.113-6.011-14.148-12.642-14.148-19.599c0-13.039,17.707-24.908,46.735-33.828  c13.283-4.078,28.946-7.547,46.348-10.222c21.369-3.265,45.403-5.36,70.941-5.93c4.75-0.112,9.561-0.163,14.412-0.163  c6.397,0,12.703,0.092,18.918,0.285c23.861,0.702,46.318,2.726,66.436,5.808c19.945,3.061,37.591,7.15,52.003,12.032  C391.453,176.343,406.872,187.5,406.872,199.664z" fill="#ebe5dd"/><path d="M392.714,219.274c-2.553,1.688-5.421,3.316-8.584,4.902c-20.057,10.049-52.054,17.941-90.581,22.193  c-13.863,1.536-28.56,2.573-43.846,3.082c-1.068,0.041-2.136,0.071-3.204,0.102c-5.94,0.163-11.961,0.254-18.063,0.254  c-4.526,0-9.011-0.041-13.456-0.142c-18.104-0.376-35.455-1.505-51.647-3.306c-35.872-3.946-66.08-11.066-86.259-20.138  c-4.933-2.207-9.255-4.536-12.927-6.957c7.964-5.258,19.04-10.049,32.587-14.219c13.283-4.078,28.946-7.547,46.348-10.212  c21.369-3.275,45.403-5.36,70.941-5.94c4.75-0.112,9.561-0.163,14.412-0.163c6.397,0,12.703,0.102,18.918,0.285  c0.814,0.02,1.638,0.051,2.451,0.081c22.945,0.763,44.558,2.746,63.985,5.736c19.945,3.051,37.591,7.15,52.003,12.032  C376.776,210.588,385.879,214.758,392.714,219.274z" fill="#554431"/><path d="M392.714,219.274c-2.553,1.688-5.421,3.316-8.584,4.902c-20.057,10.049-52.054,17.941-90.581,22.193  c-13.863,1.536-28.56,2.573-43.846,3.082c-15.185-0.519-29.78-1.566-43.531-3.092c-35.872-3.946-66.08-11.066-86.259-20.138  c-0.05-0.022-0.099-0.044-0.147-0.066c-5.948-2.671-5.876-11.141,0.072-13.812c5.786-2.599,12.398-5.039,19.735-7.298  c13.283-4.078,28.946-7.547,46.348-10.212c19.386-2.97,40.968-4.963,63.883-5.736c22.945,0.763,44.558,2.746,63.985,5.736  c19.945,3.051,37.591,7.15,52.003,12.032C376.776,210.588,385.879,214.758,392.714,219.274z" fill="#6a563d"/><g><path d="M198.232,36.162c0-4.214-3.415-7.628-7.628-7.628s-7.628,3.414-7.628,7.628   c0,4.758-1.364,6.712-3.624,9.948c-2.689,3.851-6.371,9.125-6.371,18.682s3.683,14.831,6.371,18.683   c2.26,3.236,3.624,5.19,3.624,9.947c0,4.757-1.364,6.711-3.624,9.946c-2.689,3.851-6.371,9.125-6.371,18.681   c0,4.213,3.414,7.628,7.628,7.628l0,0c4.213,0,7.628-3.414,7.628-7.628c0-4.757,1.364-6.711,3.624-9.946   c2.688-3.851,6.371-9.125,6.371-18.681c0-9.557-3.682-14.83-6.371-18.681c-2.26-3.237-3.624-5.191-3.624-9.949   s1.364-6.713,3.624-9.949C194.549,50.992,198.232,45.719,198.232,36.162z" fill="#ebe5dd"/><path d="M273.897,64.792c0-4.759,1.364-6.713,3.624-9.949c2.689-3.851,6.371-9.124,6.371-18.681   c0-4.214-3.414-7.628-7.628-7.628s-7.628,3.414-7.628,7.628c0,4.758-1.364,6.712-3.624,9.948   c-2.689,3.851-6.371,9.125-6.371,18.682s3.682,14.831,6.371,18.682c2.26,3.237,3.624,5.191,3.624,9.948   c0,4.757-1.364,6.711-3.624,9.946c-2.689,3.851-6.371,9.125-6.371,18.681c0,4.214,3.414,7.628,7.628,7.628s7.628-3.414,7.628-7.628   c0-4.758,1.364-6.711,3.624-9.946c2.689-3.851,6.371-9.125,6.371-18.681c0-9.557-3.682-14.83-6.371-18.681   C275.261,71.505,273.897,69.551,273.897,64.792z" fill="#ebe5dd"/><path d="M241.061,7.628c0-4.214-3.415-7.628-7.628-7.628s-7.628,3.414-7.628,7.628   c0,7.556-1.814,10.987-4.112,15.329c-2.621,4.955-5.883,11.122-5.883,22.462s3.262,17.508,5.883,22.463   c2.298,4.344,4.112,7.775,4.112,15.329c0,7.554-1.814,10.983-4.112,15.326c-2.621,4.954-5.883,11.121-5.883,22.461   c0,4.214,3.415,7.628,7.628,7.628s7.628-3.414,7.628-7.628c0-7.554,1.814-10.984,4.112-15.327   c2.621-4.954,5.883-11.121,5.883-22.46c0-11.34-3.262-17.508-5.883-22.463c-2.298-4.344-4.112-7.775-4.112-15.329   s1.814-10.986,4.112-15.328C237.799,25.136,241.061,18.97,241.061,7.628z" fill="#ebe5dd"/></g></g><g transform="matrix(0.11881117522716522 0 0 0.11881117522716522 295.99999915880755 200)" id="L1_24"><g><path d="m392.934 52.377h-279.115l3.767-28.56c1.226-9.341 9.177-16.317 18.594-16.317h234.391c9.418 0 17.368 6.976 18.605 16.317z" fill="#465a61"/><path d="m356.292 52.377h-242.473l3.767-28.56c1.226-9.341 9.177-16.317 18.594-16.317h197.74c9.418 0 17.368 6.976 18.605 16.317z" fill="#596c76"/><path d="m425.359 134.618h-343.965l6.034-68.005c.712-8.06 7.458-14.236 15.55-14.236h300.808c8.082 0 14.827 6.176 15.539 14.236z" fill="#465a61"/><path d="m388.707 134.618h-307.313l6.034-68.005c.712-8.06 7.458-14.236 15.55-14.236h264.156c8.082 0 14.827 6.176 15.55 14.236z" fill="#596c76"/><path d="m408.886 134.613-37.92 347.63c-.95 8.68-8.28 15.26-17.01 15.26h-201.15c-8.74 0-16.07-6.58-17.02-15.26l-37.92-347.63z" fill="#fedba6"/><path d="m372.866 134.613-37.92 347.63c-.94 8.68-8.28 15.26-17.01 15.26h-165.13c-8.74 0-16.07-6.58-17.02-15.26l-37.92-347.63z" fill="#ffefd2"/><path d="m401.618 201.341-20.369 186.558-3.176 29.151h-249.394l-3.176-29.151-20.368-186.558z" fill="#008b81"/><path d="m365.589 201.341-20.357 186.558-3.176 29.151h-213.377l-3.176-29.151-20.368-186.558z" fill="#01998d"/><path d="m299.501 330.232-21.847 23.468c-9.472 10.184-22.329 15.331-35.207 15.331-5.727 0-11.466-1.019-16.908-3.066-5.716-2.135-11.115-5.421-15.857-9.834-19.449-18.091-20.533-48.534-2.431-67.972l21.847-23.468c5.245-5.64 11.542-9.735 18.299-12.254 16.536-6.198 35.875-3.022 49.673 9.823 19.449 18.102 20.533 48.534 2.431 67.972z" fill="#883f2e"/><path d="m265.663 330.232-21.847 23.468c-5.245 5.64-11.531 9.735-18.277 12.265-5.716-2.135-11.115-5.421-15.857-9.834-19.449-18.091-20.533-48.534-2.431-67.972l21.847-23.468c5.245-5.64 11.542-9.735 18.299-12.254 5.705 2.136 11.093 5.41 15.835 9.823 19.449 18.102 20.533 48.534 2.431 67.972z" fill="#a44f3e"/></g><g><path d="m431.955 133.954-6.034-68.001c-1.061-12.016-10.953-21.076-23.01-21.076h-4.274l-2.899-22.044c-1.725-13.018-12.92-22.833-26.041-22.833h-234.392c-13.13 0-24.32 9.819-26.03 22.837l-2.907 22.04h-4.266c-12.063 0-21.96 9.061-23.021 21.073l-6.034 68.004c-.868 9.787 11.124 8.163 17.218 8.163l37.19 340.941c1.369 12.511 11.891 21.944 24.476 21.944h120.753c4.142 0 7.5-3.357 7.5-7.5s-3.358-7.5-7.5-7.5h-120.753c-4.918 0-9.03-3.687-9.564-8.573l-6.205-56.881h232.678l-6.204 56.879c-.535 4.889-4.642 8.575-9.554 8.575h-41.558c-4.142 0-7.5 3.357-7.5 7.5s3.358 7.5 7.5 7.5h41.558c12.579 0 23.097-9.434 24.465-21.946l37.191-340.939c6.093 0 18.085 1.624 17.217-8.163zm-61.48 275.595h-235.945l-21.896-200.703h279.736zm23.531-215.703h-283.009l-5.643-51.729h294.294zm-305.292-66.729 5.31-59.844c.373-4.217 3.846-7.396 8.08-7.396h58.178c4.142 0 7.5-3.357 7.5-7.5s-3.358-7.5-7.5-7.5h-38.783l2.649-20.083c.733-5.584 5.53-9.794 11.158-9.794h234.392c5.628 0 10.43 4.214 11.169 9.795l2.641 20.082h-183.178c-4.142 0-7.5 3.357-7.5 7.5s3.358 7.5 7.5 7.5h202.581c4.227 0 7.696 3.18 8.068 7.399l5.31 59.841z"/><path d="m301.308 256.771c-10.87-10.119-25.027-15.411-39.869-14.868-14.84.53-28.586 6.809-38.705 17.678l-21.848 23.469c-10.119 10.869-15.399 25.028-14.869 39.869.531 14.836 6.806 28.577 17.669 38.695.003.003.006.006.009.009s.007.006.01.009c10.691 9.949 24.287 14.87 37.854 14.87 14.906 0 29.776-5.943 40.71-17.688l21.848-23.469c20.889-22.437 19.629-57.686-2.809-78.574zm-8.169 68.354-21.848 23.469c-13.507 14.507-35.229 16.879-51.404 6.644l33.44-35.919c2.823-3.031 2.653-7.777-.379-10.6-3.031-2.822-7.777-2.652-10.6.379l-33.447 35.927c-4.834-6.528-7.597-14.348-7.893-22.642-.387-10.837 3.468-21.176 10.857-29.112l21.848-23.469c7.389-7.937 17.426-12.521 28.262-12.908.498-.018.992-.026 1.487-.026 7.761 0 15.219 2.182 21.666 6.278l-18.6 19.979c-2.823 3.031-2.653 7.777.379 10.6 1.445 1.346 3.279 2.011 5.109 2.011 2.009 0 4.014-.803 5.491-2.39l18.589-19.968c11.364 15.402 10.55 37.239-2.957 51.747z"/></g></g><g transform="matrix(0.14130154252052307 0 0 0.14130154252052307 119.8268051147461 206.8268051147461)" id="L1_25"><path d="m451.39 256.63c-45.24 70.51-118.92 106.51-176.51 90.67a94.8 94.8 0 0 1 -26.27-11.68q-2.16-1.38-4.21-2.87c-55.52-39.99-59.68-134.55-8.45-214.38 50-77.92 134.74-113.71 194.1-83.93a94.408 94.408 0 0 1 25.49 18.69c43.23 44.5 42.89 130.21-4.15 203.5z" fill="#623b28"/><path d="m455.54 53.13-15.09 14.73a231.663 231.663 0 0 0 -66.39 126.08 231.646 231.646 0 0 1 -86.7 143.73l-12.48 9.63a94.8 94.8 0 0 1 -26.27-11.68q-2.16-1.38-4.21-2.87l16.02-12.36a231.636 231.636 0 0 0 86.71-143.73 231.608 231.608 0 0 1 66.39-126.08l16.53-16.14a94.408 94.408 0 0 1 25.49 18.69z" fill="#855037"/><path d="m219.329 468.1a95.025 95.025 0 0 1 -26.81 10.37c-1.67.37-3.33.69-5 .96-67.53 11.11-137.46-52.66-157.87-145.3-19.93-90.41 14.52-175.71 77.5-196.75a91.258 91.258 0 0 1 9.63-2.67 94.872 94.872 0 0 1 21.61-2.21c62.03.78 122.52 61.5 141.26 146.55 18.02 81.81-8.46 159.43-60.32 189.05z" fill="#744630"/><path d="m221.309 452.46-1.98 15.64a95.025 95.025 0 0 1 -26.81 10.37c-1.67.37-3.33.69-5 .96l2.54-20.08a232.121 232.121 0 0 0 1.84-29.15 231.631 231.631 0 0 0 -42.49-133.71 231.59 231.59 0 0 1 -42.48-136.01l.22-23.1a91.258 91.258 0 0 1 9.63-2.67 94.872 94.872 0 0 1 21.61-2.21l-.21 21.09c-.01.78-.01 1.55-.01 2.33a231.584 231.584 0 0 0 42.49 133.68 231.655 231.655 0 0 1 40.65 162.86z" fill="#8f563b"/><path d="m290.149 115.721a8 8 0 0 1 -5.45-13.858c3.68-3.423 7.548-6.731 11.5-9.834a8 8 0 1 1 9.887 12.58c-3.6 2.83-7.13 5.848-10.486 8.97a7.973 7.973 0 0 1 -5.451 2.142z" fill="#744630"/><path d="m252.825 165.683a8 8 0 0 1 -7.157-11.563 182.321 182.321 0 0 1 20.091-31.714 8 8 0 1 1 12.56 9.91 166.483 166.483 0 0 0 -18.325 28.927 8 8 0 0 1 -7.169 4.44z" fill="#744630"/><path d="m100.588 416.043a7.987 7.987 0 0 1 -6.085-2.8c-3.266-3.821-6.41-7.824-9.346-11.9a8 8 0 0 1 12.983-9.352c2.676 3.716 5.546 7.367 8.525 10.852a8 8 0 0 1 -6.077 13.2z" fill="#8b543a"/><path d="m148.935 455.415a7.959 7.959 0 0 1 -3.851-.993 182.34 182.34 0 0 1 -30.847-21.4 8 8 0 0 1 10.426-12.136 166.344 166.344 0 0 0 28.137 19.519 8 8 0 0 1 -3.864 15.01z" fill="#8b543a"/><path d="m171.961 488.7a103.659 103.659 0 0 0 16.835-1.374c1.786-.289 3.622-.641 5.442-1.045a103.262 103.262 0 0 0 29.062-11.235c27.053-15.451 48.362-43.658 60-79.425a203.035 203.035 0 0 0 8.271-37.188c3.857.377 7.749.587 11.679.587 23.832 0 48.867-6.891 73.462-20.345 31.792-17.391 59.943-44.268 81.409-77.725 48.517-75.59 49.844-165.336 3.163-213.389a102.388 102.388 0 0 0 -27.647-20.271c-30.955-15.531-69.063-15.041-107.3 1.377-37.676 16.175-72.165 46.5-97.116 85.382a248.086 248.086 0 0 0 -19.182 36.1c-21.863-16.077-46.4-25.332-71.548-25.649a103.012 103.012 0 0 0 -23.426 2.4 99.866 99.866 0 0 0 -10.449 2.9c-32.844 10.973-59.388 38.318-74.741 77-15.13 38.1-17.984 83.936-8.039 129.051 19.678 89.315 83.6 152.849 150.125 152.849zm283.166-423.988c16.139 19.931 24.679 47.725 24.189 79.247-.556 35.916-12.866 74.4-34.66 108.351-20.024 31.209-46.174 56.22-75.622 72.329-25.084 13.721-51.387 19.966-75 17.955a239.052 239.052 0 0 0 87.91-147.286 223.685 223.685 0 0 1 64.1-121.724zm-36.019-8.412 12.308-12.017c1 .589 2.006 1.194 3 1.827a86.547 86.547 0 0 1 9.568 7.122l-9.118 8.9a239.671 239.671 0 0 0 -68.688 130.438 223.059 223.059 0 0 1 -72.97 129.923q-.324-9.708-1.457-19.543a239.189 239.189 0 0 0 63.261-124.921 222.3 222.3 0 0 1 64.096-121.729zm-176.424 66.39c44.258-68.972 118.056-104.59 173.164-85.564l-7.917 7.73a238.192 238.192 0 0 0 -68.683 130.435 223.076 223.076 0 0 1 -50.677 107.374c-.353-1.778-.718-3.557-1.11-5.336-10.605-48.132-34.258-89.2-64.513-116.609a231.16 231.16 0 0 1 19.736-38.03zm-96.5 30.979.126-12.7c25.508 2.634 51.226 16.2 73.215 38.786 25.055 25.741 43.634 61.617 52.316 101.018 8.334 37.836 7 76.866-3.749 109.9-8.229 25.281-21.66 46.215-38.582 60.535a239.064 239.064 0 0 0 -42.32-166.226 222.415 222.415 0 0 1 -41.021-129.062c0-.746 0-1.483.01-2.251zm-31.25 6.887.163-17.2c1.129-.3 2.263-.579 3.405-.83a86.949 86.949 0 0 1 11.809-1.755l-.126 12.722c-.011.814-.011 1.616-.011 2.43a238.328 238.328 0 0 0 43.956 138.3 223.134 223.134 0 0 1 39.247 157.239l-1.463 11.561a87.312 87.312 0 0 1 -15.017 6.057l1.1-8.719a240.977 240.977 0 0 0 1.9-30.155 238.346 238.346 0 0 0 -43.957-138.334 222.252 222.252 0 0 1 -41.011-131.316zm-15.9-11.219-.105 11.063a238.158 238.158 0 0 0 43.947 140.71 222.434 222.434 0 0 1 41.024 129.09 224.921 224.921 0 0 1 -1.776 28.146l-1.764 13.947c-28.477 2.7-58.094-8.694-84.035-32.5-28.455-26.115-49.359-64.251-58.862-107.384-17.643-80.027 9.193-157.444 61.571-183.072z"/><path d="m290.149 115.721a7.973 7.973 0 0 0 5.447-2.142c3.356-3.122 6.884-6.14 10.486-8.97a8 8 0 1 0 -9.887-12.58c-3.948 3.1-7.816 6.411-11.5 9.834a8 8 0 0 0 5.45 13.858z"/><path d="m249.27 164.845a7.994 7.994 0 0 0 10.724-3.6 166.483 166.483 0 0 1 18.325-28.927 8 8 0 1 0 -12.56-9.91 182.321 182.321 0 0 0 -20.091 31.714 8 8 0 0 0 3.602 10.723z"/><path d="m94.5 413.242a8 8 0 0 0 12.162-10.4c-2.979-3.485-5.849-7.136-8.525-10.852a8 8 0 0 0 -12.983 9.352c2.939 4.076 6.083 8.079 9.346 11.9z"/><path d="m114.237 433.024a182.34 182.34 0 0 0 30.847 21.4 8 8 0 1 0 7.715-14.017 166.344 166.344 0 0 1 -28.136-19.517 8 8 0 0 0 -10.426 12.136z"/></g><g transform="matrix(0.12931033968925476 0 0 0.12931033968925476 267 11.000000662967977)" id="L1_26"><path d="M336,300.049h16c44.183,0,80-35.817,80-80c0-8.837-7.163-16-16-16h-56v-32h56c26.51,0,48,21.49,48,48  c0,61.856-50.144,112-112,112h-48L336,300.049z" fill="#cd8e5e"/><path d="M384,132.049c0,93.993-27.168,185.983-78.232,264.896L296,412.049v8H88v-8l-9.768-15.104  C27.168,318.033,0,226.043,0,132.049H384z" fill="#ffc261"/><path d="M384,412.049H0c0,17.673,14.327,32,32,32h320C369.673,444.049,384,429.722,384,412.049z" fill="#b47b54"/><g><path d="M192,116.049c-4.418-0.001-7.999-3.583-7.998-8.002c0-2.121,0.843-4.154,2.342-5.654l3.6-3.6   c6.109-6.113,6.105-16.021-0.008-22.13c-0.731-0.73-1.532-1.386-2.392-1.958c-14.538-9.703-18.458-29.354-8.755-43.892   c1.156-1.733,2.481-3.347,3.955-4.82l3.6-3.6c3.069-3.178,8.134-3.266,11.312-0.197c3.178,3.069,3.266,8.134,0.197,11.312   c-0.064,0.067-0.13,0.132-0.197,0.197l-3.6,3.6c-6.109,6.113-6.105,16.021,0.008,22.13c0.731,0.73,1.532,1.386,2.392,1.958   c14.538,9.703,18.458,29.354,8.755,43.892c-1.156,1.733-2.481,3.347-3.955,4.82l-3.6,3.6   C196.156,115.206,194.122,116.049,192,116.049L192,116.049z" fill="#c7ccd1"/><path d="M240,116.049c-4.418-0.001-7.999-3.583-7.998-8.002c0-2.121,0.843-4.154,2.342-5.654l3.6-3.6   c6.109-6.113,6.105-16.021-0.008-22.13c-0.731-0.73-1.532-1.386-2.392-1.958c-14.538-9.703-18.458-29.354-8.755-43.892   c1.156-1.733,2.481-3.347,3.955-4.82l3.6-3.6c3.07-3.178,8.134-3.266,11.312-0.196c3.178,3.07,3.266,8.134,0.196,11.312   c-0.064,0.067-0.13,0.132-0.196,0.196l-3.6,3.6c-6.109,6.113-6.105,16.021,0.008,22.13c0.731,0.73,1.532,1.386,2.392,1.958   c14.538,9.703,18.458,29.354,8.755,43.892c-1.156,1.733-2.481,3.347-3.955,4.82l-3.6,3.6   C244.156,115.206,242.122,116.049,240,116.049L240,116.049z" fill="#c7ccd1"/><path d="M144,116.049c-4.418-0.001-7.999-3.583-7.998-8.002c0-2.121,0.843-4.154,2.342-5.654l3.6-3.6   c6.109-6.113,6.105-16.021-0.008-22.13c-0.731-0.73-1.532-1.386-2.392-1.958c-14.538-9.703-18.458-29.354-8.755-43.892   c1.156-1.733,2.481-3.347,3.955-4.82l3.6-3.6c3.069-3.178,8.134-3.266,11.312-0.197c3.178,3.069,3.266,8.134,0.197,11.312   c-0.064,0.067-0.13,0.132-0.197,0.197l-3.6,3.6c-6.109,6.113-6.105,16.021,0.008,22.13c0.731,0.73,1.532,1.386,2.392,1.958   c14.538,9.703,18.458,29.354,8.755,43.892c-1.156,1.733-2.481,3.347-3.955,4.82l-3.6,3.6   C148.156,115.206,146.122,116.049,144,116.049L144,116.049z" fill="#c7ccd1"/></g><g><path d="M61.928,308.049c-3.3-0.001-6.261-2.028-7.456-5.104c-9.232-23.79-16.614-48.257-22.08-73.184   c-1.166-4.262,1.344-8.662,5.606-9.827s8.662,1.344,9.827,5.606c0.072,0.263,0.13,0.529,0.175,0.797   c5.295,24.12,12.441,47.795,21.376,70.816c1.599,4.119-0.443,8.754-4.561,10.353C63.894,307.864,62.915,308.048,61.928,308.049z" fill="#ffdb8b"/><path d="M80,348.929c-3.05,0.014-5.843-1.708-7.2-4.44c-1.488-2.992-2.947-6-4.376-9.024   c-1.972-3.954-0.365-8.758,3.589-10.729c3.954-1.972,8.758-0.365,10.729,3.589c0.051,0.102,0.099,0.205,0.146,0.309   c1.387,2.928,2.8,5.843,4.24,8.744c1.962,3.959,0.343,8.758-3.616,10.72C82.421,348.641,81.219,348.926,80,348.929z" fill="#ffdb8b"/></g></g><g transform="matrix(0.11719345301389694 0 0 0.11719345301389694 102.00000137336065 96.00000051501024)" id="L1_27"><g><path d="m394.85 102.396c11.587-7.15 21.121-31.489 11.031-41.58-9.283-9.283-15.47-11.49-26.673-1.827 1.746-12.892-2.473-24.773-13.99-28.515-6.152-1.999-11.838-1.052-16.742 2.007-1.015.633-2.321.273-2.876-.786-1.1-2.1-2.568-4.102-4.439-5.974-11.53-11.531-27.98-7.939-41.89 4.084-1.159 1.002-2.982.335-3.24-1.176-1.994-11.687-8.607-20.296-19.913-21.087-11.723-.82-19.618 7.386-23.034 19.372-.462 1.621-2.563 1.994-3.536.618-9.361-13.236-22.629-19.806-35.414-12.719-5.842 3.238-9.316 8.075-10.77 13.798-.452 1.778-2.872 1.967-3.704.332-.287-.565-.587-1.115-.898-1.651 0 0-11.011-10.615-20.155-9.33-7.865 1.105-12.426 5.91-15.149 12.851-.497 1.268-2.081 1.642-3.132.776-.897-.739-1.884-1.424-2.964-2.047-12.881-7.437-30.585 1.867-37.649 15.399-1.498 2.87-2.127 5.176-2.353 6.884-.231 1.743-1.899 2.91-3.615 2.527-11.071-2.469-19.677-1.379-24.415 8.348-4.649 9.546-.896 31.137 7.533 38.283l164.932 16.934z" fill="#b06c6c"/><path d="m198.759 27.295c-2.12-.44-4.402-.509-6.822-.169-7.86 1.1-13.08 5.99-15.81 12.93-.49 1.27-2.08 1.64-3.13.78-.89-.74-1.88-1.43-2.96-2.05-12.88-7.44-30.37 1.67-37.43 15.2-1.5 2.87-2.13 5.18-2.36 6.88-.23 1.75-1.89 2.91-3.61 2.53-11.07-2.47-21.09.27-25.82 10-3.11 6.38-2.45 18.27.85 27.59h-7.29c-8.43-7.15-12.21-29.04-7.56-38.59 4.73-9.73 14.75-12.47 25.82-10 1.72.38 3.38-.78 3.61-2.53.23-1.7.86-4.01 2.36-6.88 7.06-13.53 24.55-22.64 37.43-15.2 1.08.62 2.07 1.31 2.96 2.05 1.05.86 2.64.49 3.13-.78 2.73-6.94 7.95-11.83 15.81-12.93 9.15-1.289 16.262 3.319 20.822 11.169z" fill="#9d5e5e"/><path d="m95.629 176.487c-5.706 72.063-16.229 144.542-8.917 216.476l4.947 48.563c.939 8.258-1.957 15.974-7.259 23.516-6.179 9.325-7.035 20.712.874 28.622 7.91 7.91 20.296 9.154 29.621 2.975 8.031-5.322 15.683-6.96 25.22-5.598l22.229 3.176c62.607 8.944 210.055-2.312 210.055-2.312 9.538-1.362 20.593 1.724 28.624 7.046 9.325 6.179 19.063 3.506 26.972-4.404 7.91-7.91 8.821-15.446 2.642-24.771l-.498-.752c-.382-.576.738-3.552.738-3.552-4.246-7.203-6.094-15.591-5.242-23.946l4.947-48.563c7.33-71.956-1.253-144.409-6.954-216.476z" fill="#d2af8c"/><path d="m436.387 480.947c0 6.08-2.34 12.1-6.89 16.65s-10.57 6.89-16.64 6.89c-4.49 0-9.01-1.29-12.98-3.91-8.03-5.33-17.74-7.51-27.27-6.15l-22.23 3.17c-62.61 8.95-126.17 8.95-188.78 0-4.698-.543-23.419-3.693-27.79-3.56-7.68 0-15.24 2.24-21.71 6.54-3.97 2.62-8.49 3.91-12.98 3.91-6.07 0-12.09-2.34-16.64-6.89-7.91-7.91-9.16-20.3-2.98-29.62 4.657-6.582 7.89-17.085 6.84-26.45l-4.95-48.56c-7.31-71.94 1.26-144.42 6.97-216.48h21.03c-1.72 9.58-3.2 17.86-3.35 18.64-16.432 87.275-16.941 175.487-1.528 262.823 1.481 8.393 8.048 14.991 16.461 16.349 45.092 7.282 90.551 10.968 135.467 10.968 48.72 0 98.07-4.33 146.9-12.9.42-.07 14.301-3.565 27.542-6.895.34.59.719 1.175 1.099 1.755l.5.75c2.629 3.96 3.909 8.48 3.909 12.97z" fill="#c9a281"/><g fill="#9d5e5e"><ellipse cx="265px" cy="94px" rx="30px" ry="21px" transform="matrix(0.572 -0.82 0.82 0.572 35.935 258.305)"/><ellipse cx="393px" cy="76px" rx="28px" ry="21px" transform="matrix(0.397 -0.918 0.918 0.397 167.334 407.356)"/><ellipse cx="353px" cy="97px" rx="28px" ry="20px" transform="matrix(0.572 -0.82 0.82 0.572 71.603 331.55)"/><ellipse cx="152px" cy="82px" rx="25px" ry="18px" transform="matrix(0.857 -0.515 0.515 0.857 -20.46 90.527)"/></g><path d="m428.767 181.391-343.376-1.266c-7.955 0-14.404-6.449-14.404-14.404l-1.779-49.394c0-7.955 4.471-14.202 12.427-14.202l5.783-1.138h342.74c7.955 0 14.404 6.449 14.404 14.404v47.596l-.657 5.771c-.001 7.955-7.183 12.633-15.138 12.633z" fill="#d2af8c"/><path d="m444.561 162.987-.004 5.6c0 7.95-6.44 14.4-14.4 14.4h-348.34c-7.96 0-14.4-6.45-14.4-14.4v-53.2c0-7.95 6.44-14.4 14.4-14.4h5.6v44c0 9.941 8.059 18 18 18z" fill="#c9a281"/><path d="m358.487 313.2c0 28.721-11.813 54.683-30.845 73.293 0 0-7.118 2.767-8.613 4.069-18.004 15.68-37.292 25.138-63.043 25.138-26.882 0-48.591-9.995-66.872-26.926-.684-.634-4.783-2.282-4.783-2.282-19.032-18.609-30.845-44.571-30.845-73.292 0-56.609 45.891-102.5 102.5-102.5s102.501 45.89 102.501 102.5z" fill="#ffec9c"/><g><path d="m197.13 301.676c0 27.877 10.985 46.389 34.938 46.389s35.919-18.514 35.919-46.391c0-24.636-9.728-45.149-28.522-49.586l-8.114.501-8.309-.34c-4.318 1.117-8.146 3.095-11.476 5.783 0 0-1.968 2.578-3.198 3.959-8.229 9.236-11.238 23.483-11.238 39.685z" fill="#b06c6c"/><path d="m261.792 332.048c-5.919 12.216-16.064 20.105-30.219 20.105-23.952 0-36.403-22.605-36.403-50.477 0-18.625 5.559-34.878 16.387-43.634-4.103 8.46-6.182 18.957-6.182 30.367 0 27.871 12.451 50.477 36.403 50.477 7.951-.001 14.636-2.491 20.014-6.838z" fill="#9d5e5e"/><path d="m247.615 305.68c-19.712 19.712-26.448 41.712-9.511 58.649 9.595 9.595 19.528 12.451 31.811 8.675 2.035-.625 6.103-1.963 6.103-1.963 7.36-3.349 14.641-8.597 21.337-15.293 17.432-17.432 25.058-38.834 14.873-55.265l-7.158-4.835-4.558-6.636c-5.565-3.274-11.679-4.547-18.002-4.123 0 0-5.286 1.217-8.057 2.003-9.709 2.756-18.005 9.954-26.838 18.788z" fill="#b06c6c"/><path d="m276.019 371.043c-11.567 5.264-23.328 5.832-33.319-.054l-4.899-6.639-6.839-4.88c-10.137-16.426-2.508-37.794 14.901-55.212 11.359-11.349 24.401-18.543 36.648-19.369-7.358 3.347-14.645 8.592-21.34 15.287-19.707 19.717-26.881 44.496-9.94 61.437 7.173 7.185 15.766 10.032 24.788 9.43z" fill="#9d5e5e"/></g><path d="m327.642 386.492c-18.48 18.08-43.775 29.205-71.655 29.205s-53.17-11.13-71.65-29.21z" fill="#f9df8a"/><path d="m345.817 436.487h-179.661c-2.303 0-3.748-2.488-2.605-4.488l6.585-11.523c.527-.922.527-2.055 0-2.977l-6.585-11.523c-1.143-2 .301-4.488 2.605-4.488h179.661c2.303 0 3.748 2.488 2.605 4.488l-6.585 11.523c-.527.922-.527 2.055 0 2.977l6.585 11.523c1.143 1.999-.301 4.488-2.605 4.488z" fill="#ffec9c"/></g><g><path d="m438.227 463.097c-4.052-6.114-5.873-13.5-5.13-20.796l4.946-48.562c2.225-21.833 3.14-44.879 2.798-70.455-.055-4.108-3.401-7.4-7.497-7.4-.034 0-.068 0-.103 0-4.142.056-7.454 3.458-7.398 7.6.334 24.996-.557 47.479-2.722 68.734l-4.946 48.562c-1.128 9.898 1.832 22.453 8.046 31.354 4.191 6.325 3.339 14.81-2.025 20.175-5.367 5.366-13.85 6.218-20.176 2.026-9.574-6.345-21.109-8.941-32.478-7.319l-22.229 3.175c-61.928 8.846-124.726 8.846-186.652 0l-22.229-3.175c-11.371-1.625-22.904.975-32.479 7.319-6.326 4.192-14.81 3.339-20.175-2.026s-6.217-13.85-2.026-20.174c5.616-7.952 9.268-20.47 8.047-31.354l-3.016-29.605c-.42-4.121-4.099-7.117-8.222-6.701-4.121.42-7.121 4.101-6.701 8.222l3.016 29.605c.691 6.291-1.146 15.273-5.628 21.548-8.116 12.248-6.466 28.678 3.923 39.067 5.974 5.974 13.944 9.058 21.969 9.058 5.932 0 11.893-1.686 17.098-5.135 6.506-4.311 14.347-6.079 22.072-4.974l22.229 3.175c63.334 9.048 127.561 9.048 190.895 0l22.229-3.175c7.725-1.106 15.563.662 22.071 4.974 12.244 8.115 28.675 6.466 39.067-3.923 10.389-10.39 12.038-26.819 3.923-39.068z"/><path d="m430.157 93.501h-8.375c2.043-4.789 3.283-9.954 3.821-14.563 1.449-12.409-1.264-23.071-7.443-29.251-8.497-8.496-20.213-10.044-31.948-4.854-2.174-10.46-8.73-18.246-18.677-21.477-6.168-2.004-12.413-1.851-18.184.361-.876-1.141-1.84-2.237-2.888-3.285-11.808-11.809-28.994-12.139-45.315-1.43-4.348-11.227-13.101-18.13-24.509-18.928-11.631-.81-21.318 4.95-27.144 15.747-11.697-11.761-26.054-14.727-38.998-7.551-4.102 2.273-7.461 5.258-9.987 8.836-6.238-6.669-14.479-9.679-23.615-8.396-7.922 1.113-14.404 5.257-18.703 11.745-6.384-3.131-13.917-3.667-21.415-1.487-11.367 3.537-22.537 12.911-26.886 25.369-13.387-1.606-24.413 3.684-29.821 14.79-4.289 8.806-3.409 23.157.909 34.396-11.691.442-21.067 10.086-21.067 21.883v53.191c0 11.359 8.691 20.723 19.772 21.799-.506 6.08-1.012 12.159-1.53 18.243-4.716 55.401-9.592 112.688-5.599 169.121.28 3.952 3.572 6.971 7.474 6.971.178 0 .357-.006.537-.019 4.132-.292 7.244-3.879 6.952-8.011-3.911-55.266.915-111.961 5.582-166.79.551-6.473 1.09-12.942 1.627-19.41h23.259c4.142 0 7.5-3.358 7.5-7.5s-3.358-7.5-7.5-7.5h-36.17c-3.807 0-6.904-3.097-6.904-6.904v-53.191c0-3.807 3.097-6.904 6.904-6.904h348.34c3.807 0 6.904 3.097 6.904 6.904v53.191c0 3.807-3.098 6.904-6.904 6.904h-277.17c-4.142 0-7.5 3.358-7.5 7.5s3.358 7.5 7.5 7.5h264.266c.541 6.514 1.084 13.029 1.639 19.548 2.198 25.824 4.471 52.527 5.8 78.734.203 4.007 3.517 7.12 7.484 7.12.128 0 .257-.003.386-.01 4.137-.209 7.32-3.733 7.11-7.87-1.342-26.463-3.626-53.296-5.835-79.247-.522-6.13-1.031-12.255-1.541-18.381 11.077-1.079 19.764-10.442 19.764-21.798v-53.191c.002-12.079-9.824-21.905-21.902-21.905zm-22.604-33.207c2.745 2.746 4.012 9.539 3.151 16.904-.894 7.659-3.674 13.573-6.362 16.303h-18.973c1.514-6.837.237-13.636-3.865-19.673 1.979-3.67 3.469-7.522 4.411-11.419 4.756-3.597 14.496-9.26 21.638-2.115zm-72.638 33.207c1.927-3.456 5.242-6.95 9.679-10.057 5.276-3.694 10.672-5.782 15.193-5.879 4.016-.092 7.016 1.394 9.209 4.526 2.403 3.432 2.593 7.26.58 11.41zm-155.933-69.937c5.888-.828 10.598 2.132 13.992 8.799 1.822 3.579 5.581 5.609 9.563 5.16 3.941-.439 7.118-3.206 8.093-7.047 1.021-4.018 3.355-6.99 7.138-9.086 11.823-6.553 21.88 5.152 25.654 10.49 2.13 3.012 5.708 4.495 9.334 3.879 3.636-.62 6.524-3.215 7.538-6.773 1.913-6.716 6.127-14.586 15.298-13.946 8.79.614 11.944 8.423 13.044 14.867.574 3.366 2.932 6.175 6.15 7.331 3.217 1.153 6.811.485 9.387-1.743 4.899-4.53 22.094-16.058 32.816-3.213-3.945 4.086-7.43 9.277-10.248 15.322-1.75 3.754-.125 8.216 3.629 9.966 2.689 1.421 7.648.588 9.967-3.628 2.881-6.18 6.657-11.168 10.632-14.047 2.688-2.092 7.017-3.717 11.931-2.272 9.476 3.079 9.607 13.463 8.814 19.481-.418 2.386-1.164 4.784-2.195 7.124-3.092-1.165-6.468-1.741-10.052-1.659-7.565.162-15.683 3.132-23.476 8.588-9.077 6.356-15.027 14.216-17.132 22.344h-21.233c2.745-12.233-.951-23.159-10.602-29.889-8.457-5.741-19.901-6.649-29.955-.68-8.215-16.14-22.283-23.51-36.735-18.535-5.484 1.888-9.882 5.131-13.073 9.638-2.394 3.381-1.593 8.062 1.787 10.455 3.381 2.393 8.061 1.593 10.455-1.787 1.358-1.918 3.227-3.266 5.714-4.123 10.961-3.773 17.512 8.538 19.956 14.434-1.273 1.486-2.503 3.069-3.681 4.758-3.594 5.155-6.159 10.496-7.619 15.73h-51.605c1.878-2.338 3.434-4.783 4.625-7.311 4.075-8.647 3.661-17.832-1.165-25.863-4.148-6.904-10.584-11.32-18.374-12.72-.36-3.731-.22-9.036 1.052-13.667 2.56-9.25 8.593-10.098 10.576-10.377zm70.784 69.937c1.032-2.369 2.38-4.784 4.03-7.151 3.986-5.717 8.707-9.852 13.293-11.644 4.146-1.621 7.862-1.226 11.354 1.211 6.541 4.56 5.628 11.978 3.586 17.584zm-115.577 0c-.385-.48-.75-.994-1.086-1.552-2.258-3.758-2.406-7.599-.453-11.744 2.148-4.558 6.692-9.088 12.796-12.755s12.232-5.552 17.27-5.31c4.577.221 7.898 2.155 10.156 5.913s2.406 7.599.453 11.744c-2.148 4.558-6.692 9.088-12.796 12.755-.548.329-1.101.645-1.656.949zm6.778-60.13c2.054-.669 7.49-1.354 11.91 1.294-.515 2.966-.943 8.336-.514 13.679-5.269 1.4-12.077 4.239-18.18 8.542-2.967-3.28-6.319-5.984-9.97-8.046.238-.673.562-1.453 1.04-2.369 3.189-6.109 9.357-11.251 15.714-13.1zm-47.411 32.323c4.235-8.697 14.437-7.035 20.304-5.192 3.506 1.323 6.63 3.551 9.348 6.619-1.658 2.149-3.042 4.386-4.128 6.69-3.062 6.499-3.588 13.301-1.613 19.689h-19.835c-4.602-6.41-7.096-21.604-4.076-27.806z"/><path d="m365.987 313.214c0-60.654-49.346-110-110-110s-110 49.346-110 110c0 30.839 13.176 60.163 35.405 80.787h-20.405c-2.673 0-5.145 1.423-6.487 3.735s-1.352 5.165-.025 7.486l7.874 13.779-7.874 13.779c-1.327 2.321-1.317 5.173.025 7.486 1.342 2.312 3.813 3.735 6.487 3.735h190c2.674 0 5.145-1.423 6.487-3.735s1.351-5.165.024-7.486l-7.874-13.779 7.874-13.779c1.326-2.321 1.317-5.173-.024-7.486-1.343-2.312-3.813-3.735-6.487-3.735h-20.404c22.231-20.622 35.404-49.939 35.404-80.787zm-31.512 109.508 3.588 6.279h-164.152l3.588-6.279c1.318-2.306 1.318-5.137 0-7.442l-3.588-6.279h164.152l-3.588 6.279c-1.317 2.306-1.317 5.137 0 7.442zm-128.475-28.721c-27.806-17.254-45.013-48.034-45.013-80.787 0-52.383 42.617-95 95-95s95 42.617 95 95c0 32.764-17.203 63.532-45.014 80.787z"/><path d="m312.606 289.024c-10.032-10.282-25.349-13.952-39.951-9.908-5.741-21.708-21.137-35.662-41.264-35.396-26.159.111-43.723 23.376-43.723 57.971 0 30.169 13.387 51.987 34.452 56.911 1.927 4.479 4.742 8.661 8.495 12.414 7.732 7.732 17.348 11.672 27.814 11.671 6.651 0 13.646-1.592 20.717-4.812 3.77-1.717 5.434-6.165 3.717-9.934s-6.163-5.437-9.934-3.717c-6.305 2.872-14.615 5.007-22.647 2.087 3.016-2.043 6.188-4.463 9.643-7.346 12.252-10.223 15.627-18.688 18.604-26.157 2.657-6.664 4.952-12.419 14.354-20.201 4.845-4.01 8.799-6.866 12.433-8.944 10.618 15.8-3.055 34.958-7.849 40.825-2.621 3.208-2.146 7.933 1.062 10.553 3.208 2.623 7.933 2.145 10.553-1.062 18.994-23.246 20.344-48.136 3.524-64.955zm-53.956-4.046c-5.504 3.123-13.39 8.94-19.499 15.45-.239-.564-.476-1.117-.709-1.659-2.833-6.591-5.28-12.283-4.134-24.434.591-6.267 1.369-11.085 2.47-15.126 14.015 2.746 19.647 16.465 21.872 25.769zm-55.981 16.712c0-16.113 5.001-34.422 18.329-40.714-.669 3.513-1.198 7.43-1.625 11.95-1.506 15.964 2.103 24.359 5.287 31.767 1.412 3.284 2.657 6.205 3.474 9.739-5.644 9.043-8.703 18.258-9.078 27.004-11.907-6.97-16.387-24.081-16.387-39.746zm80.65-.639c-12.353 10.223-15.737 18.711-18.723 26.201-2.654 6.657-4.947 12.406-14.282 20.195-4.782 3.991-8.72 6.825-12.411 8.922-9.837-14.736.454-33.98 13.265-46.792 11.393-11.392 27.874-20.803 41.749-15.828-2.956 2.011-6.1 4.407-9.598 7.302z"/></g></g><g transform="matrix(0.1171875 0 0 0.1171875 204.99999834060668 222)" id="L1_28"><g><path d="m503 110.583h-283.926v183.264l44.929 149.637h239.158z" fill="#ffebd3"/><path d="m261 421h243.544v25.311h-243.544z" fill="#ffd7a5"/><path d="m386.477 233.417-13.554-29.09c-2.046-2.666-4.318-5.247-6.796-7.726-23.017-23.016-55.232-28.132-71.95-11.414s-11.612 48.934 11.415 71.96c18.924 18.915 44.062 25.739 61.69 18.295 3.821-1.615 7.294-3.905 10.269-6.881 8.682-8.682 11.479-21.551 8.926-35.144z" fill="#bb696a"/><path d="m372.922 204.328c7.143 9.209 11.724 19.337 13.555 29.09 1.521 1.014 3.144 1.868 4.834 2.581 16.174 6.843 39.218.591 56.584-16.774 21.111-21.111 25.795-50.651 10.466-65.99-15.329-15.329-44.869-10.635-65.99 10.476-12.184 12.184-18.895 27.175-19.449 40.617z" fill="#bb696a"/><path d="m293.833 293.847h-209.798v75.237c0 57.878 46.919 104.798 104.798 104.798l.202.153c57.878 0 104.798-46.919 104.798-104.798z" fill="#e3edf6"/><path d="m258.46 447.73c-18.49 16.37-42.79 26.3-69.42 26.3l-.21-.15c-57.88 0-104.79-46.92-104.79-104.8v-75.23h22.16v73.71c0 46.6 37.78 84.38 84.38 84.38h20.42l.2.15h20.42c9.38 0 18.41-1.53 26.84-4.36z" fill="#c5d9ec"/><path d="m91.297 503.5h194.572c16.641 0 30.131-13.49 30.131-30.131h-254.834c0 16.641 13.49 30.131 30.131 30.131z" fill="#e3edf6"/><path d="m91.297 503.5h-2.172c-14.29 0-25.875-11.585-25.875-25.875v-4.361h28.047z" fill="#c5d9ec"/><path d="m93.969 413.667h-17.49c-20.791 0-37.646-16.855-37.646-37.646 0-20.791 16.855-37.646 37.646-37.646h7.556v-29.808h-7.565c-37.266 0-67.475 30.21-67.475 67.475 0 37.266 30.21 67.475 67.475 67.475h37.53z" fill="#e3edf6"/><path d="m503.161 110.413-16.177-60.909-251.234.202-17.176 60.909z" fill="#ffebd3"/><path d="m233.163 8.314h255.674v45.057h-255.674z" fill="#bb696a"/><path d="m222.333 90.978h277.717v25.311h-277.717z" fill="#ffd7a5"/><path d="m233.765 30.737h255.456v25.311h-255.456z" fill="#a95759"/><path d="m138.504 191.837h183.449v21.543h-183.449z" transform="matrix(0 -1 1 0 27.62 432.837)" fill="#ffd7a5"/><path d="m257.092 57.848-13.793 51.176h-23.342l13.8-51.176z" fill="#ffd7a5"/><path d="m367.27 273.847c-17.63 7.44-42.77.62-61.69-18.29-13.63-13.63-20.99-30.5-21.24-45.45v-.03c.2-9.6 3.4-18.31 9.83-24.74.68-.68 1.38-1.31 2.1-1.92 1.8 22.16 21.24 41.16 43.32 43.17 20.3 1.84 38.11 25.62 27.68 47.26z" fill="#a95759"/><path d="m468.755 177.023c-.29 13.66-7.02 29.03-19.47 41.48-17.37 17.37-40.41 23.62-56.59 16.78-9.56-19.84 6.78-41.65 25.4-43.33 20.19-1.84 37.99-19.19 39.72-39.45.67.54 1.31 1.13 1.93 1.75 5.91 5.91 8.84 13.94 9.01 22.77z" fill="#a95759"/></g><g><path d="m510.49 108.181-14.318-51.98v-56.201h-270.575v59.007l-14.085 50.781v177.641h-134.988v14.715h-.065c-41.327 0-74.948 33.621-74.948 74.948s33.621 74.948 74.948 74.948h35.641c6.023 5.642 12.665 10.628 19.814 14.846h-78.251v7.497c0 20.742 16.875 37.617 37.617 37.617h194.501c20.742 0 37.617-16.875 37.617-37.617v-7.497h-77.291c7.129-4.232 13.753-9.229 19.755-14.879h154.998v-14.995h-141.66c6.675-9.001 12.033-19.033 15.796-29.807h200.5v29.807h-29.649v14.995h44.644v-343.826zm-270.167-46.145h210.366v-14.995h-210.097v-32.046h240.586v32.047h-15.331v14.995h16.391l12.745 45.196h-267.406zm-157.502 345.169h-6.354c-16.616 0-30.134-13.518-30.134-30.135 0-16.616 13.518-30.135 30.134-30.135h.057v23.201c0 12.985 2.223 25.458 6.297 37.069zm-66.316-30.113c0-33.058 26.895-59.953 59.954-59.953h.065v14.802h-.057c-24.884 0-45.129 20.245-45.129 45.129s20.245 45.129 45.129 45.129h12.886c2.734 5.201 5.86 10.164 9.346 14.846h-22.241c-33.058 0-59.953-26.894-59.953-59.953zm290.622 104.789c-3.1 8.8-11.499 15.125-21.346 15.125h-194.501c-9.847 0-18.245-6.325-21.346-15.125zm188.368-89.67h-196.411c1.41-7.093 2.155-14.421 2.155-21.922v-23.229h-14.995v23.229c0 49.794-37.615 90.961-85.921 96.597h-21.548c-48.948-5.024-87.258-46.497-87.258-96.75v-67.713h194.727v29.642h14.995v-44.637h-74.732v-165.202h268.989v269.985z"/><path d="m435.857 437.012h14.995v14.995h-14.995z"/><path d="m300.195 263.543c30.468 32.581 90.674 34.5 94.485-17.44 46.504 12.306 105.204-57.151 68.831-97.04-31.358-29.537-84.9 4.022-95.3 40.415-65.373-56.164-126.624 13.07-68.016 74.065zm10.601-10.604c-13.596-13.9-22.161-32.017-17.897-49.913 7.925 18.026 25.765 31.893 45.913 33.725 14.516 1.805 27.886 16.624 22.686 33.862-15.03 4.591-35.403-2.381-50.702-17.674zm131.649-37.909c-13.774 13.774-32.044 20.121-45.583 16.144-11.252-27.423 7.459-28.249 20.384-29.924 18.117-1.646 34.223-13.779 41.902-29.75 2.781 13-3.269 30.097-16.703 43.53zm-44.901-44.889c16.191-16.183 37.685-21.658 50.924-13.885-2.637 15.268-16.743 28.623-32.578 30.062-13.065 1.133-28.42 1.163-35.408 16.872 1.21-11.408 7.331-23.318 17.062-33.049zm-71.034 14.381c14.616 2.114 30.528 12.516 40.345 25.484 6.265 8.067 10.464 17.03 12.128 25.897 1.494 7.956.846 15.162-1.792 21.045-2.761-18.039-19.471-33.804-37.022-35.13-17.708-1.61-33.472-16.661-36.207-33.776 6.017-3.651 13.811-4.908 22.548-3.52z"/><path d="m330.895 316.946h134.951v14.995h-134.951z"/><path d="m330.895 346.894h134.951v14.995h-134.951z"/><path d="m114.638 257.093h14.995c0-9.866 3.686-14.474 8.353-20.309 15.441-16.147 15.405-43.248-.001-59.35-9.038-9.072-11.672-25.429-3.399-36.19l-12.249-8.647c-12.263 15.829-8.951 41.104 3.942 54.204 4.666 5.835 8.352 10.443 8.352 20.309-.478 22.108-20.264 22.669-19.993 49.983z"/><path d="m286.456 137.137h14.995v14.995h-14.995z"/><path d="m256.425 137.137h14.995v14.995h-14.995z"/><path d="m160.552 257.093h14.995c.475-22.079 20.29-22.744 19.992-49.984.266-27.327-19.512-27.868-19.993-49.983.483-22.115 20.262-22.658 19.993-49.977h-14.995c-.476 22.075-20.29 22.741-19.992 49.977-.266 27.327 19.512 27.868 19.993 49.983-.482 22.12-20.261 22.662-19.993 49.984z"/><path d="m106.478 317.071h14.995v14.995h-14.995z"/></g></g><g transform="matrix(0.14397849142551422 0 0 0.14397849142551422 186.46299809217453 114.34243863075972)" id="L1_29"><path d="m104 136h48a96 96 0 0 1 96 96 0 0 0 0 1 0 0h-48a96 96 0 0 1 -96-96 0 0 0 0 1 0 0z" fill="#b1bd70"/><path d="m104 264h48a96 96 0 0 1 96 96 0 0 0 0 1 0 0h-48a96 96 0 0 1 -96-96 0 0 0 0 1 0 0z" fill="#b1bd70"/><path d="m264 128v296a8 8 0 0 1 -16 0v-296z" fill="#ad6643"/><path d="m360 136h48a0 0 0 0 1 0 0 96 96 0 0 1 -96 96h-48a0 0 0 0 1 0 0 96 96 0 0 1 96-96z" fill="#b1bd70"/><path d="m360 280h48a0 0 0 0 1 0 0 96 96 0 0 1 -96 96h-48a0 0 0 0 1 0 0 96 96 0 0 1 96-96z" fill="#b1bd70"/><path d="m192 424h136a64 64 0 0 1 64 64h-272a64 64 0 0 1 64-64z" fill="#ad6643"/><g fill="#eb423f"><circle cx="160" cy="256" r="24"/><circle cx="200" cy="208" r="24"/><circle cx="152" cy="208" r="24"/></g><path d="m488 496h-464a8 8 0 0 1 0-16h464a8 8 0 0 1 0 16z" fill="#8c5237"/><circle cx="304" cy="456" r="8" fill="#8c5237"/><circle cx="336" cy="456" r="8" fill="#8c5237"/><path d="m320 64h32a0 0 0 0 1 0 0 64 64 0 0 1 -64 64h-32a0 0 0 0 1 0 0 64 64 0 0 1 64-64z" fill="#b1bd70"/><circle cx="320" cy="304" r="24" fill="#eb423f"/><circle cx="360" cy="272" r="24" fill="#eb423f"/><circle cx="312" cy="256" r="24" fill="#eb423f"/><path d="m160 64h32a64 64 0 0 1 64 64 0 0 0 0 1 0 0h-32a64 64 0 0 1 -64-64 0 0 0 0 1 0 0z" transform="matrix(-1 0 0 -1 416 192)" fill="#b1bd70"/><circle cx="208" cy="256" r="24" fill="#eb423f"/></g><g transform="matrix(0.9375 0 0 0.9375 41 57.00000057220461)" id="L1_30"><path d="m1 51h38l-1.21 2.42a6.487 6.487 0 0 1 -5.79 3.58h-24a6.487 6.487 0 0 1 -5.79-3.58z" fill="#ae672b"/><path d="m33.17 29.35 5.83 21.65h-38l7-26h13v5.5a2.5 2.5 0 0 0 5 0v-5.5h6z" fill="#c4804d"/><path d="m21 23v2h-13l-2-6h11a4 4 0 0 1 4 4z" fill="#ae672b"/><path d="m25 14a5 5 0 0 1 5 5 4 4 0 0 0 -4 4v7.5a2.5 2.5 0 1 1 -5 0v-7.5a4 4 0 0 0 -4-4h-7a5 5 0 0 1 5-5z" fill="#7c523a"/><path d="m34 19-1 3-1 3h-6v-2a4 4 0 0 1 4-4z" fill="#ae672b"/><path d="m39 19 2 6-7.83 4.35-1.17-4.35 1-3z" fill="#b3b3b3"/><path d="m63 11.98a4.7 4.7 0 0 1 -2.75 4.27l-19.25 8.75-2-6 16.25-10.83a5.28 5.28 0 0 1 3.83-.82 4.676 4.676 0 0 1 3.92 4.63z" fill="#b18264"/><circle cx="58" cy="12" r="2" fill="#946143"/><path d="m14 31h-2a1 1 0 0 1 0-2h2a1 1 0 0 1 0 2z" fill="#d6966b"/><path d="m12 35h-2a1 1 0 0 1 0-2h2a1 1 0 0 1 0 2z" fill="#d6966b"/><g fill="#252525"><path d="m62.65 8.291a5.722 5.722 0 0 0 -3.4-1.926 6.253 6.253 0 0 0 -4.554.973l-16.196 10.795-3.786 1.893.237-.71a1 1 0 0 0 -.951-1.316h-3.09a6.006 6.006 0 0 0 -5.91-5h-10a6.006 6.006 0 0 0 -5.91 5h-3.09a1 1 0 0 0 -.949 1.316l1.905 5.715-6.922 25.709a1.006 1.006 0 0 0 .071.707l1.211 2.422a7.447 7.447 0 0 0 6.684 4.131h24a7.447 7.447 0 0 0 6.685-4.133l1.21-2.42a1.006 1.006 0 0 0 .071-.707l-5.626-20.9 7.113-3.952 19.211-8.728a5.7 5.7 0 0 0 1.986-8.869zm-30.6 13.391-.771 2.318h-4.279v-1a3 3 0 0 1 3-3h2.613zm-17.05-6.682h10a4 4 0 0 1 3.9 3.131 5 5 0 0 0 -3.9 4.869v7.5a1.5 1.5 0 1 1 -3 0v-7.5a5.006 5.006 0 0 0 -5-5h-5.858a4 4 0 0 1 3.858-3zm17 41h-24a5.456 5.456 0 0 1 -4.9-3.027l-.482-.973h6.382a1 1 0 0 0 0-2h-6.695l6.462-24h8.233a1 1 0 0 0 0-2h-8.279l-1.334-4h9.613a3 3 0 0 1 3 3v7.5a3.5 3.5 0 0 0 7 0v-4.5h4.233l6.467 24h-23.7a1 1 0 0 0 0 2h23.382l-.486.971a5.455 5.455 0 0 1 -4.896 3.029zm1.044-30.969.774-2.322 4.6-2.3 1.373 4.119-5.991 3.326zm26.792-9.691-18.236 8.29-1.41-4.221 15.616-10.409a4.257 4.257 0 0 1 3.108-.665 3.693 3.693 0 0 1 .922 7z"/><path d="m30 45a1 1 0 0 0 0 2h2a1 1 0 0 0 0-2z"/><path d="m23 45a1 1 0 0 0 0 2h2a1 1 0 0 0 0-2z"/><path d="m29 39h2a1 1 0 0 0 0-2h-2a1 1 0 0 0 0 2z"/><path d="m22 39h2a1 1 0 0 0 0-2h-2a1 1 0 0 0 0 2z"/><path d="m27 43h2a1 1 0 0 0 0-2h-2a1 1 0 0 0 0 2z"/><path d="m20 43h2a1 1 0 0 0 0-2h-2a1 1 0 0 0 0 2z"/></g></g><g transform="matrix(0.1327134072780609 0 0 0.1327134072780609 189.1471836566925 308.1471836566925)" id="L1_31"><path d="m474.671875 232.453125-66.554687-23.289063c-26.558594-9.296874-55.746094-7.433593-80.910157 5.160157-25.160156 12.597656-44.144531 34.847656-52.617187 61.679687l-17.414063 55.144532-17.144531 12.855468v-115.160156c-.019531-15.347656 7.65625-29.6875 20.4375-38.183594l-8.878906-13.3125c-17.234375 11.464844-27.582032 30.796875-27.558594 51.496094v15.847656l-10.34375-10.34375-11.3125 11.3125 21.65625 21.65625v175.742188l-16-8v-16.457032c-.003906-40.242187-19.351562-78.035156-52-101.566406-32.652344-23.527344-74.621094-29.929687-112.800781-17.199218l-37.726563 12.574218c-3.285156 1.082032-5.503906 4.144532-5.503906 7.601563s2.21875 6.519531 5.503906 7.601562l8.566406 2.855469c41.0625 13.652344 79.378907 34.488281 113.160157 61.535156l67.800781 54.238282c.457031.320312.953125.589843 1.472656.800781l-.050781.105469 27.578125 13.800781v19.054687h16v-116l28.796875-21.601562-.085937-.109375c.328124-.191407.644531-.402344.945312-.632813 50.660156-50.496094 116.636719-82.765625 187.597656-91.753906l15.738282-1.964844c3.683593-.464844 6.5625-3.402344 6.957031-7.09375s-1.804688-7.167968-5.308594-8.394531zm0 0" fill="#3d7606"/><path d="m307.78125 67.753906-3.75-60.246094c-.238281-3.789062-3.105469-6.890624-6.867188-7.4257808-3.75-.5000002-7.347656 1.6757808-8.644531 5.2343748l-25.875 72.414063c-9.675781 27.050781-14.621093 55.566406-14.613281 84.296875v21.976562c0 3.234375 1.949219 6.152344 4.9375 7.390625 2.988281 1.234375 6.429688.550781 8.71875-1.734375 32.132812-32.144531 48.921875-76.539062 46.09375-121.90625zm0 0" fill="#5fa819"/><path d="m119.492188 106.050781-52.933594-17.597656c-2.734375-.914063-5.75-.285156-7.894532 1.644531-2.140624 1.933594-3.078124 4.867188-2.449218 7.683594l8.800781 39.695312c14.089844 64.769532 71.570313 110.851563 137.855469 110.527344h5.160156c4.417969 0 8-3.582031 8-8 .050781-60.789062-38.855469-114.769531-96.539062-133.953125zm0 0" fill="#5fa819"/><g fill="#589c17"><path d="m158.828125 212.804688c-30.65625-18.867188-55.785156-45.492188-72.855469-77.183594l-25.230468-46.875c-3.488282 1.503906-5.398438 5.292968-4.527344 8.992187l8.800781 39.695313c14.074219 64.789062 71.558594 110.890625 137.855469 110.570312h5.160156c1.820312-.03125 3.570312-.691406 4.957031-1.871094zm0 0"/><path d="m329.773438 269.601562c-16.855469 12.035157-30.179688 28.363282-38.589844 47.289063l-3.699219 8.320313c48.023437-41.164063 107.054687-67.351563 169.800781-75.320313l15.242188-1.886719h-75.3125c-24.183594-.007812-47.761719 7.546875-67.441406 21.597656zm0 0"/><path d="m204.222656 451.042969-.160156-.878907c-15.910156-87.515624-95.550781-148.734374-184.214844-141.601562l-3.722656.296875-10.621094 3.542969c-3.285156 1.082031-5.503906 4.144531-5.503906 7.601562 0 3.457032 2.21875 6.519532 5.503906 7.597656l8.566406 2.859376c41.0625 13.65625 79.378907 34.492187 113.160157 61.542968l67.800781 54.238282c.457031.320312.953125.589843 1.472656.800781l-.050781.105469zm0 0"/></g></g><g transform="matrix(0.10937003791332245 0 0 0.10937003791332245 288.74959230422974 102.74959230422974)" id="L1_32"><path d="m474.671875 232.453125-66.554687-23.289063c-26.558594-9.296874-55.746094-7.433593-80.910157 5.160157-25.160156 12.597656-44.144531 34.847656-52.617187 61.679687l-17.414063 55.144532-17.144531 12.855468v-115.160156c-.019531-15.347656 7.65625-29.6875 20.4375-38.183594l-8.878906-13.3125c-17.234375 11.464844-27.582032 30.796875-27.558594 51.496094v15.847656l-10.34375-10.34375-11.3125 11.3125 21.65625 21.65625v175.742188l-16-8v-16.457032c-.003906-40.242187-19.351562-78.035156-52-101.566406-32.652344-23.527344-74.621094-29.929687-112.800781-17.199218l-37.726563 12.574218c-3.285156 1.082032-5.503906 4.144532-5.503906 7.601563s2.21875 6.519531 5.503906 7.601562l8.566406 2.855469c41.0625 13.652344 79.378907 34.488281 113.160157 61.535156l67.800781 54.238282c.457031.320312.953125.589843 1.472656.800781l-.050781.105469 27.578125 13.800781v19.054687h16v-116l28.796875-21.601562-.085937-.109375c.328124-.191407.644531-.402344.945312-.632813 50.660156-50.496094 116.636719-82.765625 187.597656-91.753906l15.738282-1.964844c3.683593-.464844 6.5625-3.402344 6.957031-7.09375s-1.804688-7.167968-5.308594-8.394531zm0 0" fill="#3d7606"/><path d="m307.78125 67.753906-3.75-60.246094c-.238281-3.789062-3.105469-6.890624-6.867188-7.4257808-3.75-.5000002-7.347656 1.6757808-8.644531 5.2343748l-25.875 72.414063c-9.675781 27.050781-14.621093 55.566406-14.613281 84.296875v21.976562c0 3.234375 1.949219 6.152344 4.9375 7.390625 2.988281 1.234375 6.429688.550781 8.71875-1.734375 32.132812-32.144531 48.921875-76.539062 46.09375-121.90625zm0 0" fill="#5fa819"/><path d="m119.492188 106.050781-52.933594-17.597656c-2.734375-.914063-5.75-.285156-7.894532 1.644531-2.140624 1.933594-3.078124 4.867188-2.449218 7.683594l8.800781 39.695312c14.089844 64.769532 71.570313 110.851563 137.855469 110.527344h5.160156c4.417969 0 8-3.582031 8-8 .050781-60.789062-38.855469-114.769531-96.539062-133.953125zm0 0" fill="#5fa819"/><g fill="#589c17"><path d="m158.828125 212.804688c-30.65625-18.867188-55.785156-45.492188-72.855469-77.183594l-25.230468-46.875c-3.488282 1.503906-5.398438 5.292968-4.527344 8.992187l8.800781 39.695313c14.074219 64.789062 71.558594 110.890625 137.855469 110.570312h5.160156c1.820312-.03125 3.570312-.691406 4.957031-1.871094zm0 0"/><path d="m329.773438 269.601562c-16.855469 12.035157-30.179688 28.363282-38.589844 47.289063l-3.699219 8.320313c48.023437-41.164063 107.054687-67.351563 169.800781-75.320313l15.242188-1.886719h-75.3125c-24.183594-.007812-47.761719 7.546875-67.441406 21.597656zm0 0"/><path d="m204.222656 451.042969-.160156-.878907c-15.910156-87.515624-95.550781-148.734374-184.214844-141.601562l-3.722656.296875-10.621094 3.542969c-3.285156 1.082031-5.503906 4.144531-5.503906 7.601562 0 3.457032 2.21875 6.519532 5.503906 7.597656l8.566406 2.859376c41.0625 13.65625 79.378907 34.492187 113.160157 61.542968l67.800781 54.238282c.457031.320312.953125.589843 1.472656.800781l-.050781.105469zm0 0"/></g></g><g transform="matrix(0.12499333918094635 0 0 0.12499333918094635 -12 280)" id="L1_33"><path d="m474.671875 232.453125-66.554687-23.289063c-26.558594-9.296874-55.746094-7.433593-80.910157 5.160157-25.160156 12.597656-44.144531 34.847656-52.617187 61.679687l-17.414063 55.144532-17.144531 12.855468v-115.160156c-.019531-15.347656 7.65625-29.6875 20.4375-38.183594l-8.878906-13.3125c-17.234375 11.464844-27.582032 30.796875-27.558594 51.496094v15.847656l-10.34375-10.34375-11.3125 11.3125 21.65625 21.65625v175.742188l-16-8v-16.457032c-.003906-40.242187-19.351562-78.035156-52-101.566406-32.652344-23.527344-74.621094-29.929687-112.800781-17.199218l-37.726563 12.574218c-3.285156 1.082032-5.503906 4.144532-5.503906 7.601563s2.21875 6.519531 5.503906 7.601562l8.566406 2.855469c41.0625 13.652344 79.378907 34.488281 113.160157 61.535156l67.800781 54.238282c.457031.320312.953125.589843 1.472656.800781l-.050781.105469 27.578125 13.800781v19.054687h16v-116l28.796875-21.601562-.085937-.109375c.328124-.191407.644531-.402344.945312-.632813 50.660156-50.496094 116.636719-82.765625 187.597656-91.753906l15.738282-1.964844c3.683593-.464844 6.5625-3.402344 6.957031-7.09375s-1.804688-7.167968-5.308594-8.394531zm0 0" fill="#3d7606"/><path d="m307.78125 67.753906-3.75-60.246094c-.238281-3.789062-3.105469-6.890624-6.867188-7.4257808-3.75-.5000002-7.347656 1.6757808-8.644531 5.2343748l-25.875 72.414063c-9.675781 27.050781-14.621093 55.566406-14.613281 84.296875v21.976562c0 3.234375 1.949219 6.152344 4.9375 7.390625 2.988281 1.234375 6.429688.550781 8.71875-1.734375 32.132812-32.144531 48.921875-76.539062 46.09375-121.90625zm0 0" fill="#5fa819"/><path d="m119.492188 106.050781-52.933594-17.597656c-2.734375-.914063-5.75-.285156-7.894532 1.644531-2.140624 1.933594-3.078124 4.867188-2.449218 7.683594l8.800781 39.695312c14.089844 64.769532 71.570313 110.851563 137.855469 110.527344h5.160156c4.417969 0 8-3.582031 8-8 .050781-60.789062-38.855469-114.769531-96.539062-133.953125zm0 0" fill="#5fa819"/><g fill="#589c17"><path d="m158.828125 212.804688c-30.65625-18.867188-55.785156-45.492188-72.855469-77.183594l-25.230468-46.875c-3.488282 1.503906-5.398438 5.292968-4.527344 8.992187l8.800781 39.695313c14.074219 64.789062 71.558594 110.890625 137.855469 110.570312h5.160156c1.820312-.03125 3.570312-.691406 4.957031-1.871094zm0 0"/><path d="m329.773438 269.601562c-16.855469 12.035157-30.179688 28.363282-38.589844 47.289063l-3.699219 8.320313c48.023437-41.164063 107.054687-67.351563 169.800781-75.320313l15.242188-1.886719h-75.3125c-24.183594-.007812-47.761719 7.546875-67.441406 21.597656zm0 0"/><path d="m204.222656 451.042969-.160156-.878907c-15.910156-87.515624-95.550781-148.734374-184.214844-141.601562l-3.722656.296875-10.621094 3.542969c-3.285156 1.082031-5.503906 4.144531-5.503906 7.601562 0 3.457032 2.21875 6.519532 5.503906 7.597656l8.566406 2.859376c41.0625 13.65625 79.378907 34.492187 113.160157 61.542968l67.800781 54.238282c.457031.320312.953125.589843 1.472656.800781l-.050781.105469zm0 0"/></g></g><g transform="matrix(0.12499333918094635 0 0 0.12499333918094635 48 159)" id="L1_34"><path d="m474.671875 232.453125-66.554687-23.289063c-26.558594-9.296874-55.746094-7.433593-80.910157 5.160157-25.160156 12.597656-44.144531 34.847656-52.617187 61.679687l-17.414063 55.144532-17.144531 12.855468v-115.160156c-.019531-15.347656 7.65625-29.6875 20.4375-38.183594l-8.878906-13.3125c-17.234375 11.464844-27.582032 30.796875-27.558594 51.496094v15.847656l-10.34375-10.34375-11.3125 11.3125 21.65625 21.65625v175.742188l-16-8v-16.457032c-.003906-40.242187-19.351562-78.035156-52-101.566406-32.652344-23.527344-74.621094-29.929687-112.800781-17.199218l-37.726563 12.574218c-3.285156 1.082032-5.503906 4.144532-5.503906 7.601563s2.21875 6.519531 5.503906 7.601562l8.566406 2.855469c41.0625 13.652344 79.378907 34.488281 113.160157 61.535156l67.800781 54.238282c.457031.320312.953125.589843 1.472656.800781l-.050781.105469 27.578125 13.800781v19.054687h16v-116l28.796875-21.601562-.085937-.109375c.328124-.191407.644531-.402344.945312-.632813 50.660156-50.496094 116.636719-82.765625 187.597656-91.753906l15.738282-1.964844c3.683593-.464844 6.5625-3.402344 6.957031-7.09375s-1.804688-7.167968-5.308594-8.394531zm0 0" fill="#3d7606"/><path d="m307.78125 67.753906-3.75-60.246094c-.238281-3.789062-3.105469-6.890624-6.867188-7.4257808-3.75-.5000002-7.347656 1.6757808-8.644531 5.2343748l-25.875 72.414063c-9.675781 27.050781-14.621093 55.566406-14.613281 84.296875v21.976562c0 3.234375 1.949219 6.152344 4.9375 7.390625 2.988281 1.234375 6.429688.550781 8.71875-1.734375 32.132812-32.144531 48.921875-76.539062 46.09375-121.90625zm0 0" fill="#5fa819"/><path d="m119.492188 106.050781-52.933594-17.597656c-2.734375-.914063-5.75-.285156-7.894532 1.644531-2.140624 1.933594-3.078124 4.867188-2.449218 7.683594l8.800781 39.695312c14.089844 64.769532 71.570313 110.851563 137.855469 110.527344h5.160156c4.417969 0 8-3.582031 8-8 .050781-60.789062-38.855469-114.769531-96.539062-133.953125zm0 0" fill="#5fa819"/><g fill="#589c17"><path d="m158.828125 212.804688c-30.65625-18.867188-55.785156-45.492188-72.855469-77.183594l-25.230468-46.875c-3.488282 1.503906-5.398438 5.292968-4.527344 8.992187l8.800781 39.695313c14.074219 64.789062 71.558594 110.890625 137.855469 110.570312h5.160156c1.820312-.03125 3.570312-.691406 4.957031-1.871094zm0 0"/><path d="m329.773438 269.601562c-16.855469 12.035157-30.179688 28.363282-38.589844 47.289063l-3.699219 8.320313c48.023437-41.164063 107.054687-67.351563 169.800781-75.320313l15.242188-1.886719h-75.3125c-24.183594-.007812-47.761719 7.546875-67.441406 21.597656zm0 0"/><path d="m204.222656 451.042969-.160156-.878907c-15.910156-87.515624-95.550781-148.734374-184.214844-141.601562l-3.722656.296875-10.621094 3.542969c-3.285156 1.082031-5.503906 4.144531-5.503906 7.601562 0 3.457032 2.21875 6.519532 5.503906 7.597656l8.566406 2.859376c41.0625 13.65625 79.378907 34.492187 113.160157 61.542968l67.800781 54.238282c.457031.320312.953125.589843 1.472656.800781l-.050781.105469zm0 0"/></g></g><g transform="matrix(0.0766032338142395 0 0 0.0766032338142395 171.61362528800964 29.613625288009644)"><path d="m474.671875 232.453125-66.554687-23.289063c-26.558594-9.296874-55.746094-7.433593-80.910157 5.160157-25.160156 12.597656-44.144531 34.847656-52.617187 61.679687l-17.414063 55.144532-17.144531 12.855468v-115.160156c-.019531-15.347656 7.65625-29.6875 20.4375-38.183594l-8.878906-13.3125c-17.234375 11.464844-27.582032 30.796875-27.558594 51.496094v15.847656l-10.34375-10.34375-11.3125 11.3125 21.65625 21.65625v175.742188l-16-8v-16.457032c-.003906-40.242187-19.351562-78.035156-52-101.566406-32.652344-23.527344-74.621094-29.929687-112.800781-17.199218l-37.726563 12.574218c-3.285156 1.082032-5.503906 4.144532-5.503906 7.601563s2.21875 6.519531 5.503906 7.601562l8.566406 2.855469c41.0625 13.652344 79.378907 34.488281 113.160157 61.535156l67.800781 54.238282c.457031.320312.953125.589843 1.472656.800781l-.050781.105469 27.578125 13.800781v19.054687h16v-116l28.796875-21.601562-.085937-.109375c.328124-.191407.644531-.402344.945312-.632813 50.660156-50.496094 116.636719-82.765625 187.597656-91.753906l15.738282-1.964844c3.683593-.464844 6.5625-3.402344 6.957031-7.09375s-1.804688-7.167968-5.308594-8.394531zm0 0" fill="#3d7606"/><path d="m307.78125 67.753906-3.75-60.246094c-.238281-3.789062-3.105469-6.890624-6.867188-7.4257808-3.75-.5000002-7.347656 1.6757808-8.644531 5.2343748l-25.875 72.414063c-9.675781 27.050781-14.621093 55.566406-14.613281 84.296875v21.976562c0 3.234375 1.949219 6.152344 4.9375 7.390625 2.988281 1.234375 6.429688.550781 8.71875-1.734375 32.132812-32.144531 48.921875-76.539062 46.09375-121.90625zm0 0" fill="#5fa819"/><path d="m119.492188 106.050781-52.933594-17.597656c-2.734375-.914063-5.75-.285156-7.894532 1.644531-2.140624 1.933594-3.078124 4.867188-2.449218 7.683594l8.800781 39.695312c14.089844 64.769532 71.570313 110.851563 137.855469 110.527344h5.160156c4.417969 0 8-3.582031 8-8 .050781-60.789062-38.855469-114.769531-96.539062-133.953125zm0 0" fill="#5fa819"/><g fill="#589c17"><path d="m158.828125 212.804688c-30.65625-18.867188-55.785156-45.492188-72.855469-77.183594l-25.230468-46.875c-3.488282 1.503906-5.398438 5.292968-4.527344 8.992187l8.800781 39.695313c14.074219 64.789062 71.558594 110.890625 137.855469 110.570312h5.160156c1.820312-.03125 3.570312-.691406 4.957031-1.871094zm0 0"/><path d="m329.773438 269.601562c-16.855469 12.035157-30.179688 28.363282-38.589844 47.289063l-3.699219 8.320313c48.023437-41.164063 107.054687-67.351563 169.800781-75.320313l15.242188-1.886719h-75.3125c-24.183594-.007812-47.761719 7.546875-67.441406 21.597656zm0 0"/><path d="m204.222656 451.042969-.160156-.878907c-15.910156-87.515624-95.550781-148.734374-184.214844-141.601562l-3.722656.296875-10.621094 3.542969c-3.285156 1.082031-5.503906 4.144531-5.503906 7.601562 0 3.457032 2.21875 6.519532 5.503906 7.597656l8.566406 2.859376c41.0625 13.65625 79.378907 34.492187 113.160157 61.542968l67.800781 54.238282c.457031.320312.953125.589843 1.472656.800781l-.050781.105469zm0 0"/></g></g></defs><g fi:class="KUsePattern"><pattern id="pattern_L1_22" width="350" height="350" patternUnits="userSpaceOnUse"><use xlink:href="#L1_22" x="-350" y="-350"/><use xlink:href="#L1_22" x="0" y="-350"/><use xlink:href="#L1_22" x="350" y="-350"/><use xlink:href="#L1_22" x="-350" y="0"/><use xlink:href="#L1_22" x="0" y="0"/><use xlink:href="#L1_22" x="350" y="0"/><use xlink:href="#L1_22" x="-350" y="350"/><use xlink:href="#L1_22" x="0" y="350"/><use xlink:href="#L1_22" x="350" y="350"/></pattern><rect x="0" y="0" width="100%" height="100%" fill="url(#pattern_L1_22)"/></g><g fi:class="KUsePattern"><pattern id="pattern_L1_23" width="350" height="350" patternUnits="userSpaceOnUse"><use xlink:href="#L1_23" x="-350" y="-350"/><use xlink:href="#L1_23" x="0" y="-350"/><use xlink:href="#L1_23" x="350" y="-350"/><use xlink:href="#L1_23" x="-350" y="0"/><use xlink:href="#L1_23" x="0" y="0"/><use xlink:href="#L1_23" x="350" y="0"/><use xlink:href="#L1_23" x="-350" y="350"/><use xlink:href="#L1_23" x="0" y="350"/><use xlink:href="#L1_23" x="350" y="350"/></pattern><rect x="0" y="0" width="100%" height="100%" fill="url(#pattern_L1_23)"/></g><g fi:class="KUsePattern"><pattern id="pattern_L1_24" width="350" height="350" patternUnits="userSpaceOnUse"><use xlink:href="#L1_24" x="-350" y="-350"/><use xlink:href="#L1_24" x="0" y="-350"/><use xlink:href="#L1_24" x="350" y="-350"/><use xlink:href="#L1_24" x="-350" y="0"/><use xlink:href="#L1_24" x="0" y="0"/><use xlink:href="#L1_24" x="350" y="0"/><use xlink:href="#L1_24" x="-350" y="350"/><use xlink:href="#L1_24" x="0" y="350"/><use xlink:href="#L1_24" x="350" y="350"/></pattern><rect x="0" y="0" width="100%" height="100%" fill="url(#pattern_L1_24)"/></g><g fi:class="KUsePattern"><pattern id="pattern_L1_25" width="350" height="350" patternUnits="userSpaceOnUse"><use xlink:href="#L1_25" x="-350" y="-350"/><use xlink:href="#L1_25" x="0" y="-350"/><use xlink:href="#L1_25" x="350" y="-350"/><use xlink:href="#L1_25" x="-350" y="0"/><use xlink:href="#L1_25" x="0" y="0"/><use xlink:href="#L1_25" x="350" y="0"/><use xlink:href="#L1_25" x="-350" y="350"/><use xlink:href="#L1_25" x="0" y="350"/><use xlink:href="#L1_25" x="350" y="350"/></pattern><rect x="0" y="0" width="100%" height="100%" fill="url(#pattern_L1_25)"/></g><g fi:class="KUsePattern"><pattern id="pattern_L1_27" width="350" height="350" patternUnits="userSpaceOnUse"><use xlink:href="#L1_27" x="-350" y="-350"/><use xlink:href="#L1_27" x="0" y="-350"/><use xlink:href="#L1_27" x="350" y="-350"/><use xlink:href="#L1_27" x="-350" y="0"/><use xlink:href="#L1_27" x="0" y="0"/><use xlink:href="#L1_27" x="350" y="0"/><use xlink:href="#L1_27" x="-350" y="350"/><use xlink:href="#L1_27" x="0" y="350"/><use xlink:href="#L1_27" x="350" y="350"/></pattern><rect x="0" y="0" width="100%" height="100%" fill="url(#pattern_L1_27)"/></g><g fi:class="KUsePattern"><pattern id="pattern_L1_26" width="350" height="350" patternUnits="userSpaceOnUse"><use xlink:href="#L1_26" x="-350" y="-350"/><use xlink:href="#L1_26" x="0" y="-350"/><use xlink:href="#L1_26" x="350" y="-350"/><use xlink:href="#L1_26" x="-350" y="0"/><use xlink:href="#L1_26" x="0" y="0"/><use xlink:href="#L1_26" x="350" y="0"/><use xlink:href="#L1_26" x="-350" y="350"/><use xlink:href="#L1_26" x="0" y="350"/><use xlink:href="#L1_26" x="350" y="350"/></pattern><rect x="0" y="0" width="100%" height="100%" fill="url(#pattern_L1_26)"/></g><g fi:class="KUsePattern"><pattern id="pattern_L1_28" width="350" height="350" patternUnits="userSpaceOnUse"><use xlink:href="#L1_28" x="-350" y="-350"/><use xlink:href="#L1_28" x="0" y="-350"/><use xlink:href="#L1_28" x="350" y="-350"/><use xlink:href="#L1_28" x="-350" y="0"/><use xlink:href="#L1_28" x="0" y="0"/><use xlink:href="#L1_28" x="350" y="0"/><use xlink:href="#L1_28" x="-350" y="350"/><use xlink:href="#L1_28" x="0" y="350"/><use xlink:href="#L1_28" x="350" y="350"/></pattern><rect x="0" y="0" width="100%" height="100%" fill="url(#pattern_L1_28)"/></g><g fi:class="KUsePattern"><pattern id="pattern_L1_29" width="350" height="350" patternUnits="userSpaceOnUse"><use xlink:href="#L1_29" x="-350" y="-350"/><use xlink:href="#L1_29" x="0" y="-350"/><use xlink:href="#L1_29" x="350" y="-350"/><use xlink:href="#L1_29" x="-350" y="0"/><use xlink:href="#L1_29" x="0" y="0"/><use xlink:href="#L1_29" x="350" y="0"/><use xlink:href="#L1_29" x="-350" y="350"/><use xlink:href="#L1_29" x="0" y="350"/><use xlink:href="#L1_29" x="350" y="350"/></pattern><rect x="0" y="0" width="100%" height="100%" fill="url(#pattern_L1_29)"/></g><g fi:class="KUsePattern"><pattern id="pattern_L1_30" width="350" height="350" patternUnits="userSpaceOnUse"><use xlink:href="#L1_30" x="-350" y="-350"/><use xlink:href="#L1_30" x="0" y="-350"/><use xlink:href="#L1_30" x="350" y="-350"/><use xlink:href="#L1_30" x="-350" y="0"/><use xlink:href="#L1_30" x="0" y="0"/><use xlink:href="#L1_30" x="350" y="0"/><use xlink:href="#L1_30" x="-350" y="350"/><use xlink:href="#L1_30" x="0" y="350"/><use xlink:href="#L1_30" x="350" y="350"/></pattern><rect x="0" y="0" width="100%" height="100%" fill="url(#pattern_L1_30)"/></g><g fi:class="KUsePattern"><pattern id="pattern_L1_33" width="350" height="350" patternUnits="userSpaceOnUse"><use xlink:href="#L1_33" x="-350" y="-350"/><use xlink:href="#L1_33" x="0" y="-350"/><use xlink:href="#L1_33" x="350" y="-350"/><use xlink:href="#L1_33" x="-350" y="0"/><use xlink:href="#L1_33" x="0" y="0"/><use xlink:href="#L1_33" x="350" y="0"/><use xlink:href="#L1_33" x="-350" y="350"/><use xlink:href="#L1_33" x="0" y="350"/><use xlink:href="#L1_33" x="350" y="350"/></pattern><rect x="0" y="0" width="100%" height="100%" fill="url(#pattern_L1_33)"/></g><g fi:class="KUsePattern"><pattern id="pattern_L1_31" width="350" height="350" patternUnits="userSpaceOnUse"><use xlink:href="#L1_31" x="-350" y="-350"/><use xlink:href="#L1_31" x="0" y="-350"/><use xlink:href="#L1_31" x="350" y="-350"/><use xlink:href="#L1_31" x="-350" y="0"/><use xlink:href="#L1_31" x="0" y="0"/><use xlink:href="#L1_31" x="350" y="0"/><use xlink:href="#L1_31" x="-350" y="350"/><use xlink:href="#L1_31" x="0" y="350"/><use xlink:href="#L1_31" x="350" y="350"/></pattern><rect x="0" y="0" width="100%" height="100%" fill="url(#pattern_L1_31)"/></g><g fi:class="KUsePattern"><pattern id="pattern_L1_32" width="350" height="350" patternUnits="userSpaceOnUse"><use xlink:href="#L1_32" x="-350" y="-350"/><use xlink:href="#L1_32" x="0" y="-350"/><use xlink:href="#L1_32" x="350" y="-350"/><use xlink:href="#L1_32" x="-350" y="0"/><use xlink:href="#L1_32" x="0" y="0"/><use xlink:href="#L1_32" x="350" y="0"/><use xlink:href="#L1_32" x="-350" y="350"/><use xlink:href="#L1_32" x="0" y="350"/><use xlink:href="#L1_32" x="350" y="350"/></pattern><rect x="0" y="0" width="100%" height="100%" fill="url(#pattern_L1_32)"/></g><g fi:class="KUsePattern"><pattern id="pattern_L1_34" width="350" height="350" patternUnits="userSpaceOnUse"><use xlink:href="#L1_34" x="-350" y="-350"/><use xlink:href="#L1_34" x="0" y="-350"/><use xlink:href="#L1_34" x="350" y="-350"/><use xlink:href="#L1_34" x="-350" y="0"/><use xlink:href="#L1_34" x="0" y="0"/><use xlink:href="#L1_34" x="350" y="0"/><use xlink:href="#L1_34" x="-350" y="350"/><use xlink:href="#L1_34" x="0" y="350"/><use xlink:href="#L1_34" x="350" y="350"/></pattern><rect x="0" y="0" width="100%" height="100%" fill="url(#pattern_L1_34)"/></g><g fi:class="KUsePattern" transform="matrix(1 0 0 1 20 20)"><pattern id="pattern_UNKNOWN" width="350" height="350" patternUnits="userSpaceOnUse"><use xlink:href="#UNKNOWN" x="-350" y="-350"/><use xlink:href="#UNKNOWN" x="0" y="-350"/><use xlink:href="#UNKNOWN" x="350" y="-350"/><use xlink:href="#UNKNOWN" x="-350" y="0"/><use xlink:href="#UNKNOWN" x="0" y="0"/><use xlink:href="#UNKNOWN" x="350" y="0"/><use xlink:href="#UNKNOWN" x="-350" y="350"/><use xlink:href="#UNKNOWN" x="0" y="350"/><use xlink:href="#UNKNOWN" x="350" y="350"/></pattern><rect x="0" y="0" width="100%" height="100%" fill="url(#pattern_UNKNOWN)"/></g></svg>