<svg x="0" y="0" width="700" height="350" viewBox="0 0 700 350" xmlns="http://www.w3.org/2000/svg" xmlns:xlink="http://www.w3.org/1999/xlink" xmlns:fi="http://pattern.flaticon.com/"><rect x="0px" y="0px" width="100%" height="100%" opacity="0" fill="#131313"/><defs><g transform="matrix(0.15935087203979492 0 0 0.15935087203979492 306.4156494140625 107.22789764404297)" id="L1_90"><g><path d="M502.076,211.786c0.017,5.613-2.229,10.996-6.23,14.933l-14.933,14.933l-74.752,74.752    L264.166,458.4c-57.824,59.041-152.523,60.148-211.712,2.475c-56.689-58.147-56.727-150.874-0.085-209.067l0.085-0.085v-0.085    l114.603-114.603L289.339,14.752c8.254-8.235,21.615-8.237,29.871-0.004s8.292,21.594,0.081,29.871L191.974,171.936    c-5.355,5.331-7.454,13.117-5.504,20.418c1.95,7.3,7.652,13.003,14.953,14.953c7.3,1.95,15.086-0.149,20.418-5.504l44.885-44.8    l19.883-19.968l4.948-4.949l9.985-9.984c8.247-8.271,21.638-8.29,29.909-0.042c8.271,8.247,8.29,21.638,0.042,29.909    l-34.901,34.901l-24.917,24.917c-5.355,5.331-7.454,13.117-5.504,20.418c1.95,7.3,7.652,13.003,14.953,14.953    c7.3,1.95,15.086-0.149,20.418-5.504l29.951-29.867l9.899-9.984l39.85-39.851c8.254-8.235,21.615-8.237,29.871-0.004    c8.256,8.232,8.292,21.594,0.081,29.871l-74.752,74.752c-8.235,8.254-8.237,21.615-0.004,29.871    c8.232,8.256,21.594,8.292,29.871,0.081l9.985-9.984l74.752-74.752l14.933-14.933c6.052-6.026,15.132-7.824,23.024-4.56    C496.895,195.558,502.051,203.246,502.076,211.786L502.076,211.786z" fill="#d25627"/><path d="M51.174,187.722c-3.509-0.001-6.659-2.149-7.942-5.415s-0.436-6.984,2.134-9.373L164.833,62.002    c3.456-3.195,8.846-2.99,12.049,0.459c3.203,3.449,3.01,8.839-0.432,12.05L56.983,185.443    C55.405,186.912,53.329,187.726,51.174,187.722z" fill="#d25627"/><path d="M25.574,213.322c-2.259-0.033-4.422-0.917-6.059-2.475c-0.753-0.83-1.359-1.783-1.792-2.817    c-0.48-1.012-0.714-2.123-0.683-3.242c0.03-2.26,0.914-4.424,2.475-6.059c2.491-2.348,6.114-3.047,9.3-1.796    c0.543,0.188,1.059,0.447,1.533,0.771c0.425,0.341,0.858,0.683,1.283,1.025c0.341,0.425,0.683,0.85,1.025,1.279    c0.32,0.476,0.578,0.991,0.767,1.533c0.247,0.483,0.419,1.002,0.508,1.537c0.104,0.564,0.163,1.135,0.175,1.709    c0.027,1.119-0.207,2.229-0.683,3.242c-0.433,1.034-1.039,1.987-1.792,2.817c-0.425,0.341-0.858,0.683-1.283,1.021    c-0.475,0.324-0.99,0.583-1.533,0.771C27.79,213.077,26.689,213.309,25.574,213.322z" fill="#d25627"/><path d="M59.708,127.989c-3.509-0.001-6.659-2.149-7.942-5.415s-0.436-6.984,2.134-9.373L173.366,2.268    c3.456-3.195,8.846-2.99,12.049,0.459s3.01,8.839-0.432,12.05L65.516,125.71C63.939,127.178,61.863,127.993,59.708,127.989z" fill="#d25627"/><path d="M34.108,153.589c-3.873,0-7.262-2.603-8.263-6.345c-1-3.742,0.639-7.688,3.995-9.621    c3.356-1.933,7.592-1.369,10.326,1.374c2.462,2.441,3.201,6.129,1.872,9.331C40.709,151.53,37.574,153.609,34.108,153.589z" fill="#d25627"/><path d="M358.374,486.389c-3.509-0.001-6.659-2.149-7.942-5.415c-1.283-3.266-0.436-6.984,2.134-9.373    l119.467-110.933c3.456-3.195,8.846-2.99,12.049,0.459c3.203,3.449,3.01,8.839-0.432,12.05L364.183,484.11    C362.605,485.578,360.529,486.393,358.374,486.389z" fill="#d25627"/><path d="M366.908,426.656c-3.509-0.001-6.659-2.149-7.942-5.415c-1.283-3.266-0.436-6.984,2.134-9.373    l119.467-110.933c3.456-3.195,8.846-2.99,12.049,0.459c3.203,3.449,3.01,8.839-0.432,12.05L372.716,424.377    C371.139,425.845,369.063,426.66,366.908,426.656L366.908,426.656z" fill="#d25627"/><path d="M341.308,452.256c-1.115-0.014-2.216-0.246-3.242-0.683c-1.044-0.413-2-1.021-2.817-1.792    c-0.769-0.836-1.404-1.786-1.883-2.817c-0.789-2.091-0.789-4.397,0-6.487c0.478-1.03,1.113-1.978,1.883-2.813    c0.815-0.773,1.772-1.383,2.817-1.796c1.526-0.674,3.226-0.852,4.858-0.508c0.566,0.079,1.115,0.25,1.625,0.508    c0.543,0.188,1.059,0.447,1.533,0.771c0.425,0.341,0.858,0.683,1.283,1.025c0.772,0.814,1.38,1.769,1.792,2.813    c0.911,2.066,0.911,4.421,0,6.487c-0.413,1.044-1.021,2-1.792,2.817c-0.406,0.367-0.835,0.708-1.283,1.021    c-0.475,0.324-0.99,0.583-1.533,0.771c-0.51,0.258-1.059,0.431-1.625,0.513C342.39,452.183,341.85,452.24,341.308,452.256    L341.308,452.256z" fill="#d25627"/><path d="M341.308,93.856c-3.451-0.001-6.562-2.08-7.882-5.268c-1.32-3.188-0.591-6.858,1.849-9.298    l68.267-68.267c3.341-3.281,8.701-3.256,12.012,0.054c3.311,3.311,3.335,8.671,0.054,12.012l-68.267,68.267    C345.742,92.958,343.571,93.858,341.308,93.856z" fill="#d25627"/><path d="M383.974,127.989c-3.451-0.001-6.562-2.08-7.882-5.268c-1.32-3.188-0.591-6.858,1.849-9.298    l102.4-102.4c3.341-3.281,8.701-3.256,12.012,0.054s3.335,8.671,0.054,12.012l-102.4,102.4    C388.409,127.092,386.238,127.992,383.974,127.989z" fill="#d25627"/><path d="M332.774,511.989c-0.573-0.016-1.144-0.073-1.708-0.171c-0.533-0.095-1.05-0.268-1.533-0.513    c-0.546-0.187-1.064-0.447-1.542-0.771c-0.425-0.338-0.85-0.679-1.275-1.021c-0.366-0.407-0.708-0.834-1.025-1.279    c-0.325-0.475-0.582-0.992-0.767-1.538c-0.246-0.485-0.42-1.003-0.517-1.537c-0.093-0.564-0.148-1.133-0.166-1.705    c0.03-2.26,0.914-4.424,2.475-6.059l1.275-1.025c0.477-0.324,0.996-0.583,1.542-0.771c0.483-0.245,1-0.417,1.534-0.508    c1.093-0.258,2.232-0.258,3.325,0c0.566,0.079,1.115,0.25,1.625,0.508c0.543,0.188,1.059,0.447,1.533,0.771    c0.425,0.341,0.858,0.683,1.283,1.025c1.558,1.636,2.441,3.8,2.475,6.059c-0.017,0.572-0.076,1.141-0.175,1.704    c-0.089,0.536-0.261,1.054-0.508,1.537c-0.188,0.544-0.445,1.061-0.767,1.538c-0.341,0.425-0.683,0.85-1.025,1.279    c-0.425,0.341-0.858,0.683-1.283,1.021c-0.475,0.324-0.99,0.583-1.533,0.771c-0.51,0.258-1.059,0.431-1.625,0.512    C333.857,511.916,333.317,511.973,332.774,511.989L332.774,511.989z" fill="#d25627"/></g><circle cx="162" cy="351" r="112" fill="#f0c419"/><g><circle cx="149" cy="294" r="21" fill="#f9eab0"/><circle cx="123" cy="379" r="29" fill="#f9eab0"/><circle cx="217" cy="362" r="21" fill="#f9eab0"/></g></g><g transform="matrix(0.11817232519388199 0.030637269839644432 -0.030637269839644432 0.11817232519388199 150.588623046875 111.90233612060547)" id="L1_91"><circle cx="40" cy="40" r="39" fill="#f9eab0"/><path d="M495.718,18.323c-32.839-32.839-105.843-17.39-188.91,32.839c-16.29-4.02-33.009-6.035-49.788-6.003   c-116.996,0.03-211.832,94.866-211.862,211.862c-0.033,16.778,1.983,33.498,6.002,49.788   C0.932,389.876-14.516,462.88,18.322,495.719s105.843,17.39,188.91-32.839c16.29,4.019,33.009,6.035,49.788,6.003   c116.996-0.03,211.832-94.866,211.862-211.862c0.033-16.778-1.983-33.498-6.002-49.788   C513.109,124.165,528.557,51.161,495.718,18.323z M441.781,72.259c4.414,5.208,2.03,27.012-13.065,60.734   c-13.226-18.346-29.322-34.442-47.668-47.669C414.769,70.229,436.574,67.845,441.781,72.259z M72.26,441.782   c-4.414-5.208-2.03-27.101,13.065-60.734c13.226,18.346,29.322,34.442,47.668,47.669C99.36,443.812,77.467,446.196,72.26,441.782z" fill="#894b9d"/><g><path d="M353.771,345.12c-1.412,1.412-2.913,2.913-4.326,4.326    c-42.744,43.311-90.483,81.389-142.212,113.434c-83.068,50.229-156.072,65.677-188.91,32.839s-17.39-105.843,32.839-188.91    c6.39,26.754,18,51.983,34.164,74.24c-15.095,33.633-17.479,55.526-13.065,60.734c5.207,4.414,27.1,2.03,60.733-13.065    c41.666-18.626,101.429-56.673,170.196-125.528l0.088-0.088L353.771,345.12z" fill="#f0c419"/><path d="M462.88,207.233c-14.605,23.969-30.704,46.995-48.199,68.943l-47.316-44.932    c24.293-30.189,44.889-63.173,61.352-98.251c15.095-33.721,17.479-55.526,13.065-60.734c-5.207-4.414-27.012-2.03-60.733,13.065    c-22.257-16.163-47.486-27.773-74.24-34.163c83.068-50.229,156.072-65.677,188.91-32.839S513.109,124.165,462.88,207.233z" fill="#f0c419"/></g><circle cx="358" cy="287" r="57" fill="#f9eab0"/><ellipse cx="121px" cy="195px" rx="30px" ry="52px" transform="matrix(-0.8910999894142151 -0.4537999927997589 0.4537999927997589 -0.8910999894142151 140.23129272460938 425.29791259765625)" fill="#cc66a1"/></g><g transform="matrix(0.03613385930657387 -0.09807761013507843 0.09807761013507843 0.03613385930657387 226.0089569091797 58.02004623413086)" id="L1_94"><path d="M541.951,272.337c-12.381,0-24.646,0-37.217,0c-3.379,0-9.014-0.202-9.014-3.58c0-12.583,0-24.958,0-37.565   c0-3.378,0.158-7.815-3.221-7.815c-12.594,0-24.883,0-37.387,0c-3.385,0-8.354-1.047-8.354-4.425c0-12.503,0-24.786,0-37.363   c0-3.384-0.502-7.172-3.881-7.172c-12.562,0-24.889,0-37.281,0c-3.379,0-7.797-1.702-7.797-5.08c0-12.754,0-25.172,0-37.546   c0-3.378-1.898-6.089-5.275-6.059c-12.211,0.098-24.719,0.11-37.395,0.11c-3.377,0-6.285,2.742-6.285,6.12   c0,12.668,0,24.976,0,37.216c-0.006,3.39-1.561,5.239-4.945,5.239c-45.941,0-91.365,0-137.301,0c-3.378,0-4.639-1.849-4.639-5.227   c0-12.442,0-24.762,0-37.252c0-3.378-3.476-6.12-6.854-6.12c-12.552,0-24.333-0.012-36.42-0.11   c-3.391-0.024-5.686,2.687-5.686,6.065c0,12.491,0,25.031,0,37.895c0,3.385-4.352,4.75-7.736,4.75c-12.625,0-25.006,0-37.589,0   c-3.378,0-3.635,4.106-3.635,7.484c0,12.589,0,24.884,0,37.412c0,3.384-5.227,4.064-8.605,4.064c-12.577,0-24.939,0-37.46,0   c-3.378,0-9.015,4.792-9.015,8.176c0,12.546,0,24.859,0,37.46c0,3.378,0.153,3.323-3.225,3.323c-12.436,0-24.688,0-36.885,0   c-3.378,0-8.85,5.532-8.85,8.91c0,45.606,0,90.668,0,135.729c0,3.385,5.471,8.36,8.85,8.36c12.289,0,24.461,0,36.867,0   c3.378,0,3.244-4.988,3.244-8.366c0-28.966,0-57.632,0-86.384c0-3.385,5.618-3.17,8.997-3.17c12.656,0,25.098,0,37.833,0   c3.378,0,8.25-0.208,8.25,3.17c0,29.021,0,57.84,0,86.935c0,3.378,1.67,6.114,5.055,6.114c12.558,0,25.239,0.018,37.332,0.109   c3.378,0.031,6.573-2.68,6.573-6.059c0-12.423,0-24.853,0-37.325c0-3.379,0.759-3.984,4.143-3.984c79.125,0,157.75,0,236.544,0   c3.379,0,6.119,1.677,6.119,5.055c0,12.559-0.018,25.227-0.115,37.455c-0.025,3.384,2.68,6.45,6.059,6.45   c12.312,0,24.664,0,37.271,0c3.371,0,3.738-4.468,3.738-7.846c0-29.241,0-57.957,0-86.818c0-3.379,5.117-3.256,8.5-3.256   c12.762,0,25.295,0,38.037,0c3.377,0,8.543-0.123,8.543,3.256c0,28.953,0,57.626,0,86.298c0,3.378,0.324,8.366,3.703,8.366   c12.338,0,24.418,0,36.4,0c3.379,0,8.857-4.981,8.857-8.36c0-45.416,0-90.509,0-135.98   C550.801,277.613,545.328,272.337,541.951,272.337z M201.96,268.475c0,3.379-3.831,3.862-7.209,3.862c-12.405,0-24.811,0-37.387,0   c-3.384,0-4.363-0.478-4.363-3.855c0-12.356,0-24.701,0-37.326c0-3.378,0.985-7.778,4.37-7.778c12.546,0,24.896,0,37.375,0   c3.378,0,7.215,4.4,7.215,7.785C201.96,243.604,201.96,255.948,201.96,268.475z M397.801,268.574c0,3.378-1.023,3.764-4.4,3.764   c-12.369,0-24.713,0-37.32,0c-3.385,0-7.24-0.386-7.24-3.771c0-12.509,0-24.853,0-37.344c0-3.372,3.861-7.846,7.24-7.846   c12.453,0,24.791,0,37.32,0c3.377,0,4.4,4.467,4.4,7.846C397.801,243.616,397.801,256.015,397.801,268.574z" fill="#ffffff"/><path d="M244.341,424.071c-9.21,0.006-18.5,0.018-27.558-0.007c-19.805-0.061-39.725-0.146-59.529-0.227   c-3.378-0.012-6.151,2.718-6.12,6.103c0.098,12.239,0.08,25.275,0.085,37.521c0,3.378,2.711,6.842,6.09,6.842   c29.425,0,58.011,0,86.567,0c3.378-0.006,7.044-4.204,7.044-7.582c0-12.204,0-24.26,0-36.524   C250.92,426.812,247.719,424.064,244.341,424.071z" fill="#ffffff"/><path d="M395.836,423.936c-0.949,0.073-1.463,0.753-2.43,0.753c-29.139,0.018-57.816,0.648-86.953,0.648c-0.93,0-1.861,0-2.773,0   c-1.529,0-3.799,1.469-3.799,4.847c0,12.491,0,24.566,0,36.616c0,3.378,3.77,7.497,7.154,7.497c28.793,0,57.367,0,86.486,0   c3.379,0,4.279-4.125,4.279-7.503c0-12.454,0-24.768,0-37.063C397.801,426.353,397.434,423.813,395.836,423.936z" fill="#ffffff"/><path d="M108.214,125.458c12.454,0,24.761,0,37.057,0c3.378,0,6.083-2.644,6.059-6.022c-0.098-12.24-0.11-24.56-0.116-36.806   c0-3.378-2.742-6.126-6.126-6.126c-12.687,0-24.811,0-36.873,0c-3.378-0.006-4.174,2.846-4.174,6.23c0,12.24,0,24.352,0,36.806   C104.04,122.917,104.835,125.458,108.214,125.458z" fill="#ffffff"/><path d="M404.844,125.788c12.24-0.098,24.053-0.11,36.299-0.116c3.383,0,5.617-2.748,5.617-6.126c0-12.693,0-24.816,0-36.885   c0-3.378-0.82-6.163-4.197-6.163c-12.229,0-24.34,0-36.795,0c-3.377,0-7.967,2.796-7.967,6.175c0,12.454,0,24.768,0,37.062   C397.801,123.113,401.465,125.818,404.844,125.788z" fill="#ffffff"/></g><g transform="matrix(0.1938544064760208 -0.07023710757493973 0.07023710757493973 0.1938544064760208 17.72259521484375 224.96275329589844)" id="L1_95"><g><path d="m162.685 148.727c-36.813 28.207-60.661 72.592-60.661 122.276v61.743c0 38.5-18.617 83.599-51.616 105.599-33 21.999-6.961 89.123 55.001 53.349 34.989-20.201 48.789 10.304 79.38 10.304 34.991 0 34.385-17.05 71.234-17.05s36.243 17.05 71.234 17.05c30.591 0 44.391-30.505 79.38-10.304 61.961 35.773 88-31.35 55.001-53.349-33-22-51.616-67.099-51.616-105.599v-61.743c0-49.684-23.851-94.063-60.664-122.267l16.1-60.087c13.339-3.586 24.454-13.99 28.286-28.29 5.717-21.339-6.946-43.272-28.284-48.99s-43.272 6.946-48.99 28.284c-3.832 14.301.593 28.868 10.351 38.643l-13.368 49.889c-17.77-7.201-37.157-11.181-57.43-11.181s-39.663 3.971-57.432 11.173l-13.366-49.881c9.758-9.775 14.183-24.342 10.351-38.643-5.718-21.338-27.651-34.002-48.99-28.284-21.339 5.717-34.002 27.651-28.284 48.99 3.832 14.301 14.947 24.704 28.286 28.29zm13.337 189.215c0-43.321 35.817-78.441 80-78.441s80 35.119 80 78.441c0 11.907-35.817 21.56-80 21.56-44.183-.001-80-9.653-80-21.56z" fill="#ff5d7d"/><path d="m256.022 259.501c-44.183 0-80 35.119-80 78.441 0 11.907 35.817 21.56 80 21.56s80-9.652 80-21.56c0-43.321-35.817-78.441-80-78.441z" fill="#ffffff"/></g><g><path d="m485.461 458.8c-1.889-11.958-8.38-22.178-18.278-28.775-27.769-18.513-47.163-58.516-47.163-97.279v-61.743c0-48.992-21.55-94.594-59.314-125.988l13.025-48.609c14.465-5.83 25.585-18.213 29.67-33.459 7.135-26.631-8.725-54.102-35.355-61.237-26.633-7.138-54.102 8.725-61.237 35.354-4.085 15.246-.646 31.531 8.966 43.813l-9.158 34.177c-16.316-5.34-33.288-8.05-50.596-8.05-17.313 0-34.289 2.71-50.598 8.044l-9.156-34.171c9.612-12.282 13.051-28.567 8.966-43.813-7.136-26.63-34.604-42.49-61.237-35.354-26.63 7.135-42.491 34.606-35.355 61.237 4.085 15.246 15.206 27.629 29.67 33.459l13.023 48.601c-37.762 31.395-59.312 76.999-59.312 125.996v61.743c0 38.763-19.394 78.766-47.163 97.278-9.897 6.598-16.389 16.817-18.278 28.776-1.728 10.934.646 22.622 6.514 32.069 7.173 11.549 20.537 21.177 39.111 21.175 10.98-.001 23.785-3.367 38.2-11.69 16.789-9.693 25.911-5.208 39.721 1.583 9.592 4.716 20.463 10.061 34.66 10.061 19.558 0 29.848-4.97 38.927-9.355 8.549-4.129 15.933-7.695 32.307-7.695s23.757 3.566 32.306 7.695c9.079 4.385 19.369 9.355 38.927 9.355 14.197 0 25.068-5.345 34.66-10.061 13.81-6.79 22.933-11.275 39.721-1.583 38.801 22.402 65.897 8.892 77.311-9.485 5.868-9.447 8.243-21.135 6.515-32.069zm-23.504 21.517c-9.095 14.643-27.907 15.658-50.321 2.717-26.034-15.031-44.061-6.167-58.545.955-8.377 4.119-16.29 8.009-25.835 8.009-14.981 0-22.047-3.413-30.229-7.364-9.4-4.54-20.054-9.686-41.004-9.686-20.951 0-31.605 5.146-41.005 9.686-8.182 3.952-15.248 7.364-30.229 7.364-9.545 0-17.458-3.891-25.835-8.009-14.485-7.122-32.513-15.986-58.545-.955-22.415 12.94-41.227 11.926-50.322-2.718-6.282-10.114-5.825-25.855 5.868-33.651 17.148-11.432 31.567-28.966 41.7-50.708 9.266-19.882 14.369-42.331 14.369-63.211v-61.743c0-39.873 16.282-77.194 45.097-104.406l7.896 29.466c1.427 5.327-1.745 10.821-7.072 12.249-5.334 1.43-8.5 6.913-7.07 12.248 1.197 4.467 5.238 7.414 9.653 7.414.857 0 1.728-.111 2.595-.343 15.978-4.282 25.494-20.765 21.212-36.743l-28.089-104.827c-.924-3.448-3.616-6.142-7.063-7.069-10.327-2.776-18.459-10.908-21.223-21.221-4.281-15.979 5.235-32.461 21.213-36.743 15.979-4.281 32.46 5.234 36.742 21.213 2.763 10.313-.213 21.422-7.769 28.99-2.522 2.526-3.506 6.205-2.582 9.653l17.635 65.814c4.281 15.978 20.763 25.497 36.743 21.213 5.334-1.429 8.5-6.913 7.071-12.248-1.43-5.334-6.914-8.501-12.248-7.071-2.58.692-5.275.337-7.588-.999s-3.968-3.492-4.66-6.073l-1.91-7.128c14.617-4.903 29.859-7.39 45.414-7.39 15.549 0 30.786 2.493 45.411 7.401l-1.907 7.117c-1.427 5.326-6.921 8.499-12.248 7.072-5.337-1.43-10.818 1.736-12.248 7.071s1.736 10.818 7.071 12.248c15.979 4.282 32.462-5.235 36.743-21.213l17.635-65.814c.924-3.448-.06-7.127-2.582-9.653-7.556-7.568-10.532-18.677-7.769-28.99 4.281-15.978 20.762-25.493 36.743-21.213 15.978 4.281 25.494 20.764 21.213 36.742-2.764 10.313-10.896 18.445-21.223 21.221-3.447.927-6.139 3.621-7.063 7.069l-28.089 104.827c-4.281 15.978 5.235 32.46 21.212 36.743.868.232 1.738.343 2.595.343 4.415 0 8.456-2.946 9.653-7.414 1.43-5.335-1.736-10.818-7.07-12.248-5.327-1.427-8.499-6.922-7.072-12.248l7.894-29.459c28.816 27.21 45.099 64.53 45.099 104.398v61.743c0 20.88 5.103 43.329 14.369 63.211 10.133 21.742 24.553 39.277 41.7 50.709 11.695 7.796 12.152 23.537 5.869 33.652z"/><path d="m196.851 362.842c15.935 4.294 36.948 6.659 59.171 6.659 22.222 0 43.236-2.365 59.17-6.659 20.457-5.513 30.829-13.89 30.829-24.9 0-48.767-40.374-88.441-90-88.441s-90 39.674-90 88.441c.001 11.01 10.374 19.387 30.83 24.9zm-10.818-26.107c.171-9.625 2.399-18.764 6.248-27.036l15.663 35.28c-12.159-2.64-19.605-5.901-21.911-8.244zm49.963 12.074 20.027-56.557 20.026 56.557c-6.155.438-12.828.692-20.026.692-7.2 0-13.873-.255-20.027-.692zm68.103-3.829 15.663-35.28c3.849 8.272 6.077 17.411 6.248 27.036-2.305 2.342-9.751 5.603-21.911 8.244zm2.305-54.479-16.57 37.321-20.187-57.013c14.291 2.769 27.02 9.81 36.757 19.692zm-64.006-19.691-20.188 57.013-16.57-37.321c9.738-9.883 22.467-16.924 36.758-19.692z"/><path d="m154.195 40.39-.007.002c-5.311 1.517-8.382 7.051-6.865 12.361 1.255 4.393 5.26 7.255 9.613 7.255.91 0 1.835-.125 2.753-.388 5.311-1.517 8.385-7.052 6.868-12.362-1.517-5.311-7.053-8.387-12.362-6.868z"/><path d="m352.355 59.62.007.002c.918.262 1.842.387 2.751.387 4.351 0 8.353-2.864 9.608-7.256 1.517-5.31-1.561-10.846-6.872-12.363-5.308-1.515-10.845 1.558-12.362 6.868s1.558 10.845 6.868 12.362z"/><path d="m210.035 436.397c-1.079.107-2.221.161-3.395.161-8.88 0-13.17-2.887-19.109-6.882-6.813-4.584-15.292-10.29-30.273-10.29s-23.46 5.705-30.273 10.29c-5.938 3.996-10.229 6.882-19.108 6.882-5.523 0-10 4.477-10 10s4.477 10 10 10c14.982 0 23.461-5.705 30.273-10.29 5.938-3.996 10.229-6.882 19.108-6.882 8.88 0 13.17 2.887 19.108 6.882 6.813 4.584 15.292 10.29 30.274 10.29 1.828 0 3.631-.087 5.361-.257 5.496-.543 9.511-5.438 8.969-10.935-.543-5.497-5.436-9.507-10.935-8.969z"/><path d="m404.167 436.557c-8.88 0-13.17-2.887-19.108-6.882-6.813-4.584-15.292-10.29-30.273-10.29-14.982 0-23.461 5.705-30.274 10.29-5.938 3.996-10.228 6.882-19.108 6.882-1.174 0-2.318-.054-3.401-.161-5.489-.54-10.392 3.471-10.936 8.967s3.471 10.392 8.967 10.936c1.734.172 3.541.259 5.37.259 14.982 0 23.46-5.705 30.273-10.29 5.938-3.996 10.229-6.882 19.108-6.882s13.17 2.887 19.108 6.882c6.813 4.584 15.292 10.29 30.274 10.29 5.523 0 10-4.477 10-10s-4.477-10.001-10-10.001z"/><path d="m256.022 419.385h-.007c-5.523 0-9.996 4.477-9.996 10s4.48 10 10.003 10 10-4.477 10-10-4.477-10-10-10z"/></g></g><g transform="matrix(0.1633855104446411 0.1048133373260498 -0.1048133373260498 0.1633855104446411 81.12388610839844 -36.04204559326172)" id="L1_96"><g><path d="m256 265.869c61.58 0 111.5-13.721 111.5-30.646 0-4.089-.22-8.127-.649-12.102-6.032-55.888-53.36-99.398-110.851-99.398s-104.819 43.511-110.851 99.398c-.429 3.975-.649 8.013-.649 12.102 0 16.925 49.92 30.646 111.5 30.646z" fill="#66e0f7"/><path d="m367.5 235.223c0 16.925-49.92 30.646-111.5 30.646s-111.5-13.721-111.5-30.646c0-4.089.22-8.127.649-12.102-82.88 11.499-135.149 34.842-135.149 60.36 0 37.342 110.138 67.614 246 67.614s246-30.272 246-67.614c0-25.518-52.269-48.862-135.149-60.36.429 3.975.649 8.013.649 12.102z" fill="#6d91ac"/></g><g><path d="m375.691 214.297c-9.946-57.058-59.83-100.575-119.691-100.575-15.526 0-30.658 2.895-44.976 8.603-5.13 2.045-7.631 7.862-5.585 12.993 2.046 5.13 7.864 7.632 12.993 5.585 11.951-4.765 24.591-7.181 37.568-7.181 55.892 0 101.377 45.412 101.5 101.276-.847 1.862-7.647 7.871-28.85 13.182-19.796 4.958-45.597 7.689-72.649 7.689s-52.854-2.731-72.649-7.689c-21.203-5.311-28.003-11.319-28.85-13.182.027-12.899 2.442-25.46 7.179-37.339 2.045-5.13-.456-10.947-5.585-12.993-5.13-2.046-10.947.455-12.993 5.585-3.108 7.796-5.375 15.835-6.801 24.047-43.798 6.627-136.302 25.776-136.302 69.183 0 23.309 27.457 43.176 79.401 57.453 8.905 2.447 18.356 4.687 28.276 6.712l-5.707 21.298c-1.43 5.335 1.736 10.818 7.071 12.248.867.232 1.738.343 2.595.343 4.415 0 8.456-2.947 9.653-7.414l6.119-22.835c35.688 5.929 76.229 9.292 118.592 9.751v27.241c0 5.523 4.477 10 10 10s10-4.477 10-10v-27.241c42.363-.458 82.904-3.822 118.592-9.751l6.119 22.835c1.197 4.468 5.237 7.414 9.653 7.414.856 0 1.728-.111 2.595-.343 5.334-1.429 8.5-6.913 7.071-12.248l-5.707-21.298c9.92-2.025 19.372-4.265 28.276-6.712 51.944-14.277 79.401-34.144 79.401-57.453 0-43.413-92.529-62.561-136.309-69.184zm51.607 107.352c-45.625 12.54-106.459 19.446-171.298 19.446s-125.673-6.906-171.298-19.446c-47.757-13.126-64.702-28.765-64.702-38.168 0-12.519 30.688-35.396 114.505-48.671 0 .138-.005.275-.005.412 0 32.086 76.373 40.646 121.5 40.646s121.5-8.561 121.5-40.646c0-.138-.005-.274-.005-.412 83.818 13.275 114.505 36.153 114.505 48.671 0 9.403-16.945 25.042-64.702 38.168z"/><path d="m256.007 298.482h-.007c-5.523 0-9.997 4.477-9.997 10s4.481 10 10.004 10 10-4.477 10-10-4.477-10-10-10z"/><path d="m183.676 293.527h-.007c-5.523 0-9.997 4.477-9.997 10s4.481 10 10.004 10 10-4.477 10-10-4.477-10-10-10z"/><path d="m113.433 275.027h-.007c-5.523 0-9.997 4.477-9.997 10s4.481 10 10.004 10 10-4.477 10-10-4.477-10-10-10z"/><path d="m328.324 293.527c-5.523 0-10 4.477-10 10s4.477 10 10 10h.007c5.523 0 9.997-4.477 9.997-10s-4.481-10-10.004-10z"/><path d="m398.567 275.027c-5.523 0-10 4.477-10 10s4.477 10 10 10h.007c5.523 0 9.997-4.477 9.997-10s-4.481-10-10.004-10z"/><path d="m177.157 166.38c5.523 0 10-4.477 10-10s-4.477-10-10-10h-.007c-5.523 0-9.996 4.477-9.996 10s4.48 10 10.003 10z"/></g></g><g transform="matrix(1.5248334407806396 -0.29512903094291687 0.29512903094291687 1.5248334407806396 209.0735321044922 235.09339904785156)" id="L1_118" fill="none"><path d="m9.49 12.31-2.253-2.253c-.6827772-.64770975-1.57674118-1.0266766-2.517-1.067-.79053239-.06113187-1.54493989-.35634994-2.167-.848-.79110177-.60173932-1.32662862-1.47928932-1.5-2.458-.22498582-1.28983126.19551881-2.60811981 1.12581337-3.52944239.93029457-.92132259 2.25259622-1.32903229 3.54018663-1.09155761.97662492.17993365 1.84960632.72121782 2.445 1.516.47690784.61583645.76363887 1.35751405.825 2.134.04092939.94287065.42047488 1.83936493 1.069 2.525l2.1 2.1z" id="L1_97" fill="#24ae5f"/><path d="m50.51 12.31 2.253-2.253c.6827772-.64770975 1.5767412-1.0266766 2.517-1.067 1.4730653-.11076344 2.765169-1.0243851 3.3606664-2.37626257.5954975-1.35187748.3974358-2.92191189-.5151436-4.08354376-.9125795-1.16163187-2.3911-1.72573616-3.8455228-1.46719367-.9766249.17993365-1.8496063.72121782-2.445 1.516-.4769078.61583645-.7636389 1.35751405-.825 2.134-.0409294.94287065-.4204749 1.83936493-1.069 2.525l-2.1 2.1z" id="L1_98" fill="#24ae5f"/><path d="m59 34c0 13.81-12.98 25-29 25s-29-11.19-29-25c0-6.9 3.24-15.16 8.49-21.68v-.01c.85-1.04 1.74-2.04 2.67-2.97 4.92-4.95 11.11-8.34 17.84-8.34 16.02 0 29 19.19 29 33z" id="L1_107" fill="#4fba6f"/><circle cx="43" cy="22" r="6" id="L1_99" fill="#ecf0f1"/><circle cx="43" cy="21" r="4" id="L1_100" fill="#e64c3c"/><circle cx="24" cy="51" r="3" id="L1_101" fill="#24ae5f"/><circle cx="18" cy="43" r="2" id="L1_102" fill="#24ae5f"/><circle cx="17" cy="22" r="6" id="L1_103" fill="#ecf0f1"/><circle cx="17" cy="21" r="4" id="L1_104" fill="#e64c3c"/><circle cx="17" cy="21" r="2" id="L1_105" fill="#35495e"/><circle cx="43" cy="21" r="2" id="L1_106" fill="#35495e"/><circle cx="30" cy="11" r="6" id="L1_108" fill="#ecf0f1"/><path d="m38.18 36.816 2.43 5.59c.636288 1.3205404.4993017 2.8833413-.3570203 4.073048-.856322 1.1897066-2.2947968 1.8157277-3.749023 1.6315666-1.4542263-.1841611-2.6912366-1.1490017-3.2239567-2.5146146l-4.03-9.25z" id="L1_110" fill="#d75e72"/><circle cx="28" cy="29" r="1" id="L1_109" fill="#4c8056"/><circle cx="32" cy="29" r="1" id="L1_113" fill="#4c8056"/><path d="m13.8 54.74c-3.4139761-1.9603347-6.36451615-4.6345814-8.65-7.84 2.29198358-1.5712058 5.3629417-1.3630241 7.4219048.5031344 2.0589631 1.8661584 2.5671115 4.9019299 1.2280952 7.3368656z" id="L1_111" fill="#24ae5f"/><path d="m54.85 46.9c-2.2854839 3.2054186-5.2360239 5.8796653-8.65 7.84-1.3390163-2.4349357-.8308679-5.4707072 1.2280952-7.3368656 2.0589631-1.8661585 5.1299212-2.0743402 7.4219048-.5031344z" id="L1_112" fill="#24ae5f"/><path d="m43.982 38.424c-.5075124-.0011036-1.0143575-.0368534-1.517-.107-4.1312789-.5806572-8.2938577-.9112592-12.465-.99-4.1711423.0787408-8.3337211.4093428-12.465.99-2.1789887.4246173-4.436617-.0689943-6.239574-1.3642308-1.80295704-1.2952364-2.99134157-3.2772254-3.284426-5.4777692-.0828427-.5462096.29279039-1.0561573.839-1.139s1.05615728.2927904 1.139.839c.2396065 1.6693973 1.1544774 3.1670657 2.5303982 4.1423301s3.0920649 1.3424821 4.7466018 1.0156699c4.2199023-.5972235 8.4726679-.9331967 12.734-1.006 4.2613941.0737975 8.51416.4107726 12.734 1.009 1.6552068.3276929 3.3723399-.0395337 4.7487317-1.0155654 1.3763919-.9760316 2.2909709-2.4750135 2.5292683-4.1454346.092051-.5369773.5970067-.9014586 1.1356505-.819722.5386438.0817365.9127415.5796098.8413495 1.119722-.5307337 4.0062346-3.965947 6.9875382-8.007 6.949z" id="Shape" fill="#802d40"/><circle cx="30" cy="10" r="4" id="L1_114" fill="#e64c3c"/><circle cx="30" cy="10" r="2" id="L1_115" fill="#35495e"/><g fill="#ecf0f1"><circle cx="15" cy="19" r="2" id="L1_116"/><circle cx="28" cy="8" r="2" id="L1_117"/><circle cx="41" cy="19" r="2" id="Oval"/></g></g></defs><g fi:class="KUsePattern"><pattern id="pattern_L1_90" width="350" height="350" patternUnits="userSpaceOnUse"><use xlink:href="#L1_90" x="-350" y="-350"/><use xlink:href="#L1_90" x="0" y="-350"/><use xlink:href="#L1_90" x="350" y="-350"/><use xlink:href="#L1_90" x="-350" y="0"/><use xlink:href="#L1_90" x="0" y="0"/><use xlink:href="#L1_90" x="350" y="0"/><use xlink:href="#L1_90" x="-350" y="350"/><use xlink:href="#L1_90" x="0" y="350"/><use xlink:href="#L1_90" x="350" y="350"/></pattern><rect x="0" y="0" width="100%" height="100%" fill="url(#pattern_L1_90)"/></g><g fi:class="KUsePattern"><pattern id="pattern_L1_91" width="350" height="350" patternUnits="userSpaceOnUse"><use xlink:href="#L1_91" x="-350" y="-350"/><use xlink:href="#L1_91" x="0" y="-350"/><use xlink:href="#L1_91" x="350" y="-350"/><use xlink:href="#L1_91" x="-350" y="0"/><use xlink:href="#L1_91" x="0" y="0"/><use xlink:href="#L1_91" x="350" y="0"/><use xlink:href="#L1_91" x="-350" y="350"/><use xlink:href="#L1_91" x="0" y="350"/><use xlink:href="#L1_91" x="350" y="350"/></pattern><rect x="0" y="0" width="100%" height="100%" fill="url(#pattern_L1_91)"/></g><g fi:class="KUsePattern"><pattern id="pattern_L1_94" width="350" height="350" patternUnits="userSpaceOnUse"><use xlink:href="#L1_94" x="-350" y="-350"/><use xlink:href="#L1_94" x="0" y="-350"/><use xlink:href="#L1_94" x="350" y="-350"/><use xlink:href="#L1_94" x="-350" y="0"/><use xlink:href="#L1_94" x="0" y="0"/><use xlink:href="#L1_94" x="350" y="0"/><use xlink:href="#L1_94" x="-350" y="350"/><use xlink:href="#L1_94" x="0" y="350"/><use xlink:href="#L1_94" x="350" y="350"/></pattern><rect x="0" y="0" width="100%" height="100%" fill="url(#pattern_L1_94)"/></g><g fi:class="KUsePattern"><pattern id="pattern_L1_95" width="350" height="350" patternUnits="userSpaceOnUse"><use xlink:href="#L1_95" x="-350" y="-350"/><use xlink:href="#L1_95" x="0" y="-350"/><use xlink:href="#L1_95" x="350" y="-350"/><use xlink:href="#L1_95" x="-350" y="0"/><use xlink:href="#L1_95" x="0" y="0"/><use xlink:href="#L1_95" x="350" y="0"/><use xlink:href="#L1_95" x="-350" y="350"/><use xlink:href="#L1_95" x="0" y="350"/><use xlink:href="#L1_95" x="350" y="350"/></pattern><rect x="0" y="0" width="100%" height="100%" fill="url(#pattern_L1_95)"/></g><g fi:class="KUsePattern"><pattern id="pattern_L1_96" width="350" height="350" patternUnits="userSpaceOnUse"><use xlink:href="#L1_96" x="-350" y="-350"/><use xlink:href="#L1_96" x="0" y="-350"/><use xlink:href="#L1_96" x="350" y="-350"/><use xlink:href="#L1_96" x="-350" y="0"/><use xlink:href="#L1_96" x="0" y="0"/><use xlink:href="#L1_96" x="350" y="0"/><use xlink:href="#L1_96" x="-350" y="350"/><use xlink:href="#L1_96" x="0" y="350"/><use xlink:href="#L1_96" x="350" y="350"/></pattern><rect x="0" y="0" width="100%" height="100%" fill="url(#pattern_L1_96)"/></g><g fi:class="KUsePattern"><pattern id="pattern_L1_118" width="350" height="350" patternUnits="userSpaceOnUse"><use xlink:href="#L1_118" x="-350" y="-350"/><use xlink:href="#L1_118" x="0" y="-350"/><use xlink:href="#L1_118" x="350" y="-350"/><use xlink:href="#L1_118" x="-350" y="0"/><use xlink:href="#L1_118" x="0" y="0"/><use xlink:href="#L1_118" x="350" y="0"/><use xlink:href="#L1_118" x="-350" y="350"/><use xlink:href="#L1_118" x="0" y="350"/><use xlink:href="#L1_118" x="350" y="350"/></pattern><rect x="0" y="0" width="100%" height="100%" fill="url(#pattern_L1_118)"/></g></svg>