<svg x="0" y="0" width="700" height="350" viewBox="0 0 700 350" xmlns="http://www.w3.org/2000/svg" xmlns:xlink="http://www.w3.org/1999/xlink" xmlns:fi="http://pattern.flaticon.com/"><rect x="0px" y="0px" width="100%" height="100%" opacity="0" fill="#ffffff"/><defs><g transform="matrix(0.13671875 0 0 0.13671875 151 188)" id="L1_5"><path d="m392.691406 392.03125h30v104.96875h-30zm0 0" fill="#b77445"/><path d="m407.691406 392.03125h15v104.96875h-15zm0 0" fill="#a04010"/><path d="m512 302.71875c0 57.519531-46.789062 104.3125-104.308594 104.3125-57.519531 0-104.3125-46.792969-104.3125-104.3125s46.792969-104.308594 104.3125-104.308594c57.519532 0 104.308594 46.789063 104.308594 104.308594zm0 0" fill="#2f5995"/><path d="m512 302.71875c0 57.519531-46.789062 104.3125-104.308594 104.3125v-208.621094c57.519532 0 104.308594 46.789063 104.308594 104.308594zm0 0" fill="#183158"/><path d="m89.308594 392.03125h30v104.96875h-30zm0 0" fill="#b77445"/><path d="m104.308594 392.03125h15v104.96875h-15zm0 0" fill="#a04010"/><path d="m208.621094 302.71875c0 57.519531-46.792969 104.3125-104.3125 104.3125-57.519532 0-104.308594-46.792969-104.308594-104.3125s46.789062-104.308594 104.308594-104.308594c57.519531 0 104.3125 46.789063 104.3125 104.308594zm0 0" fill="#2f5995"/><path d="m208.621094 302.71875c0 57.519531-46.792969 104.3125-104.3125 104.3125v-208.621094c57.519531 0 104.3125 46.789063 104.3125 104.308594zm0 0" fill="#183158"/><path d="m447.101562 191.101562c0 105.378907-85.730468 191.097657-191.101562 191.097657s-191.101562-85.71875-191.101562-191.097657c0-105.371093 85.730468-191.101562 191.101562-191.101562s191.101562 85.730469 191.101562 191.101562zm0 0" fill="#60d64d"/><path d="m447.101562 191.101562c0 105.378907-85.730468 191.097657-191.101562 191.097657v-382.199219c105.371094 0 191.101562 85.730469 191.101562 191.101562zm0 0" fill="#00b563"/><path d="m364.550781 210.21875v22.710938c0 25.359374-20.640625 46-46 46h-15.550781v230.070312h-94v-248.21875h-16.328125c-25.371094 0-46-20.640625-46-46v-22.710938h30v22.710938c0 8.820312 7.167969 16 16 16h16.328125v-78.0625h94v96.210938h15.550781c8.820313 0 16-7.179688 16-16v-22.710938zm0 0" fill="#b77445"/><path d="m364.550781 210.21875v22.710938c0 25.359374-20.640625 46-46 46h-15.550781v230.070312h-47v-356.28125h47v96.210938h15.550781c8.820313 0 16-7.179688 16-16v-22.710938zm0 0" fill="#a04010"/><path d="m0 482h512v30h-512zm0 0" fill="#9ce78d"/><path d="m256 482h256v30h-256zm0 0" fill="#36cb8e"/></g><g transform="matrix(0.15247194468975067 0 0 0.15247194468975067 205.66842651367188 71.9671630859375)" id="L1_6"><path d="m369.929688 246.773438c1.429687 20.710937-4.390626 41.058593-16.707032 58.007812-12.339844 16.96875-29.910156 28.789062-50.046875 33.796875-11 17.570313-27.660156 30.609375-47.589843 37.089844-19.9375 6.46875-41.085938 5.710937-60.316407-2.050781-10.558593 4.261718-21.699219 6.410156-32.90625 6.421874-9.191406 0-18.421875-1.453124-27.410156-4.371093-19.929687-6.480469-36.589844-19.519531-47.585937-37.089844-20.121094-5-37.710938-16.816406-50.050782-33.796875-12.328125-16.949219-18.148437-37.316406-16.707031-58.007812-13.339844-15.910157-20.609375-35.796876-20.609375-56.757813 0-20.96875 7.269531-40.867187 20.609375-56.753906-1.441406-20.699219 4.378906-41.058594 16.707031-58.007813 12.339844-16.96875 29.910156-28.789062 50.050782-33.796875 10.996093-17.570312 27.65625-30.609375 47.585937-37.089843 19.9375-6.46875 41.085937-5.710938 60.316406 2.050781 19.21875-7.761719 40.378907-8.53125 60.316407-2.050781 19.929687 6.480468 36.589843 19.519531 47.589843 37.089843 20.117188 4.996094 37.707031 16.816407 50.046875 33.796875 12.328125 16.949219 18.148438 37.308594 16.707032 57.996094 13.332031 15.878906 20.609374 35.777344 20.609374 56.765625 0 20.96875-7.277343 40.871094-20.609374 56.757813zm0 0" fill="#c8fb78"/><path d="m369.929688 246.773438c1.429687 20.710937-4.390626 41.058593-16.707032 58.007812-12.339844 16.96875-29.910156 28.789062-50.046875 33.796875-11 17.570313-27.660156 30.609375-47.589843 37.089844-19.9375 6.46875-41.085938 5.710937-60.316407-2.050781v-367.199219c19.21875-7.761719 40.378907-8.53125 60.316407-2.050781 19.929687 6.480468 36.589843 19.519531 47.589843 37.089843 20.117188 4.996094 37.707031 16.816407 50.046875 33.796875 12.328125 16.949219 18.148438 37.308594 16.707032 57.996094 13.332031 15.878906 20.609374 35.777344 20.609374 56.765625 0 20.96875-7.277343 40.871094-20.609374 56.757813zm0 0" fill="#82e36f"/><path d="m303.8125 210.234375v22.710937c0 25.359376-20.636719 45.996094-45.996094 45.996094h-15.550781v230.058594h-93.992187v-248.207031h-16.332032c-25.367187 0-45.996094-20.636719-45.996094-45.996094v-22.710937h30v22.710937c0 8.820313 7.167969 16 15.996094 16h16.332032v-78.058594h93.992187v96.207031h15.550781c8.820313 0 16-7.179687 16-16v-22.710937zm0 0" fill="#b77445"/><path d="m303.8125 210.234375v22.710937c0 25.359376-20.636719 45.996094-45.996094 45.996094h-15.550781v230.058594h-46.996094v-356.261719h46.996094v96.207031h15.550781c8.820313 0 16-7.179687 16-16v-22.710937zm0 0" fill="#a04010"/><path d="m107.273438 482h175.992187v30h-175.992187zm0 0" fill="#9ce78d"/><path d="m195.269531 482h87.996094v30h-87.996094zm0 0" fill="#36cb8e"/></g><g transform="matrix(0.09765625 0 0 0.09765625 184 6)" id="L1_7"><path d="m315.007812 227.175781c-10.292968 44.125-37.027343 65.167969-57.636718 75.050781-21.722656 10.421876-40.785156 10.75-42.996094 10.75-.011719 0-.011719 0-.019531 0-2.113281 0-21.222657-.300781-43.015625-10.75-20.613282-9.882812-47.347656-30.925781-57.636719-75.050781-8.070313-34.625 4.769531-81.339843 38.164063-138.835937 24.011718-41.324219 49.804687-72.886719 50.894531-74.21875l11.59375-14.121094.019531.0195312 11.570312 14.1015628c1.089844 1.332031 26.882813 32.894531 50.894532 74.21875 33.394531 57.496094 46.238281 104.210937 38.167968 138.835937zm0 0" fill="#00ceb4"/><path d="m315.007812 227.175781c-10.292968 44.125-37.027343 65.167969-57.636718 75.050781-21.722656 10.421876-40.785156 10.75-42.996094 10.75v-312.9570308l11.570312 14.1015628c1.089844 1.332031 26.882813 32.894531 50.894532 74.21875 33.394531 57.496094 46.238281 104.210937 38.167968 138.835937zm0 0" fill="#008878"/><path d="m177.070312 307.015625c-8.929687 38.273437-32.164062 56.558594-50.078124 65.148437-18.921876 9.070313-35.601563 9.332032-37.441407 9.332032-1.839843 0-18.511719-.261719-37.4375-9.332032-17.921875-8.589843-41.152343-26.875-50.074219-65.148437-6.980468-29.921875 3.980469-70.058594 32.585938-119.304687 20.429688-35.171876 42.402344-62.066407 43.332031-63.1875l11.59375-14.128907 11.601563 14.128907c.917968 1.121093 22.890625 28.015624 43.324218 63.1875 28.601563 49.246093 39.574219 89.382812 32.59375 119.304687zm0 0" fill="#c8fb78"/><path d="m422.046875 243.539062c-8.320313 35.671876-29.992187 52.714844-46.714844 60.738282-17.640625 8.460937-33.242187 8.699218-34.964843 8.699218-1.707032 0-17.308594-.238281-34.953126-8.699218-16.722656-8.023438-38.394531-25.066406-46.714843-60.738282-6.492188-27.832031 3.640625-65.058593 30.113281-110.632812 18.84375-32.445312 39.113281-57.246094 39.964844-58.289062l11.589844-14.121094 11.601562 14.121094c.851562 1.042968 21.125 25.84375 39.964844 58.289062 26.472656 45.574219 36.605468 82.800781 30.113281 110.632812zm0 0" fill="#c8fb78"/><path d="m177.070312 307.015625c-8.929687 38.273437-32.164062 56.558594-50.078124 65.148437-18.921876 9.070313-35.601563 9.332032-37.441407 9.332032v-271.101563l11.601563 14.128907c.917968 1.121093 22.890625 28.015624 43.324218 63.1875 28.601563 49.246093 39.574219 89.382812 32.59375 119.304687zm0 0" fill="#82e36f"/><path d="m422.046875 243.539062c-8.320313 35.671876-29.992187 52.714844-46.714844 60.738282-17.640625 8.460937-33.242187 8.699218-34.964843 8.699218v-252.480468l11.601562 14.121094c.851562 1.042968 21.125 25.84375 39.964844 58.289062 26.472656 45.574219 36.605468 82.800781 30.113281 110.632812zm0 0" fill="#82e36f"/><path d="m355.371094 219.964844v100.261718c0 33.785157-27.484375 61.269532-61.257813 61.269532h-64.757812v115.503906h-30.003907v-52.007812h-63.535156c-33.785156 0-61.269531-27.484376-61.269531-61.265626v-92.753906h30.003906v92.753906c0 17.242188 14.023438 31.261719 31.265625 31.261719h63.535156v-232.945312h30.003907v169.449219h64.757812c17.230469 0 31.253907-14.023438 31.253907-31.265626v-100.261718zm0 0" fill="#b77445"/><path d="m355.371094 219.964844v100.261718c0 33.785157-27.484375 61.269532-61.257813 61.269532h-64.757812v115.503906h-14.980469v-314.957031h14.980469v169.449219h64.757812c17.230469 0 31.253907-14.023438 31.253907-31.265626v-100.261718zm0 0" fill="#a04010"/><path d="m126.34375 481.996094h176.019531v30.003906h-176.019531zm0 0" fill="#c7ac91"/><path d="m214.375 481.996094h87.988281v30.003906h-87.988281zm0 0" fill="#a07852"/></g><g transform="matrix(0.17578125 0 0 0.17578125 304 304)" id="L1_8"><path d="m450 442.5v16.398438h-30v-16.398438c0-22.328125-18.171875-40.5-40.5-40.5h-32.910156c5.710937 9.398438 9.011718 20.429688 9.011718 32.210938v14.300781h-30v-14.300781c0-17.75-14.441406-32.199219-32.203124-32.199219h-8.796876v-.011719h-66v.011719c-17.761718 0-32.203124 14.449219-32.203124 32.199219v14.300781h-30v-14.300781c0-11.78125 3.292968-22.8125 9.011718-32.210938h-32.910156c-22.328125 0-40.5 18.171875-40.5 40.5v16.398438h-30v-16.398438c0-38.871094 31.628906-70.5 70.5-70.5h75.5v-106h10.601562v-10h77.726563v10h7.671875v106h75.5c38.871094 0 70.5 31.628906 70.5 70.5zm0 0" fill="#c7ac91"/><path d="m450 442.5v16.398438h-30v-16.398438c0-22.328125-18.171875-40.5-40.5-40.5h-32.910156c5.710937 9.398438 9.011718 20.429688 9.011718 32.210938v14.300781h-30v-14.300781c0-17.75-14.441406-32.199219-32.203124-32.199219h-8.796876v-.011719h-28.601562v-146h40.328125v10h7.671875v106h75.5c38.871094 0 70.5 31.628906 70.5 70.5zm0 0" fill="#a07852"/><path d="m426.621094 170.480469c0 29.058593-19.792969 53.53125-46.910156 60.347656-6.429688 24.84375-28.839844 42.882813-55.632813 42.882813h-136.15625c-26.792969 0-49.203125-18.039063-55.632813-42.882813-27.117187-6.816406-46.910156-31.289063-46.910156-60.347656 0-32.691407 25.332032-59.570313 57.390625-62.058594 5.011719-25.800781 25.390625-46.171875 51.179688-51.171875 2.5625-32 29.410156-57.25 62.050781-57.25s59.5 25.25 62.050781 57.25c25.789063 5 46.167969 25.371094 51.179688 51.171875 32.058593 2.488281 57.390625 29.367187 57.390625 62.058594zm0 0" fill="#00b44b"/><path d="m324.078125 273.710938h-68.078125v-273.710938c32.640625 0 59.5 25.25 62.050781 57.25 25.789063 5 46.167969 25.371094 51.179688 51.171875 32.058593 2.488281 57.390625 29.367187 57.390625 62.058594 0 29.058593-19.792969 53.53125-46.910156 60.347656-6.429688 24.84375-28.839844 42.882813-55.632813 42.882813zm0 0" fill="#007f40"/><path d="m512 454v58h-512v-58c7.589844 0 10.691406-2.441406 16.308594-6.871094 7.121094-5.628906 16.882812-13.328125 34.890625-13.328125 18 0 27.761719 7.699219 34.890625 13.328125 5.621094 4.429688 8.710937 6.871094 16.308594 6.871094 7.589843 0 10.691406-2.441406 16.300781-6.871094 7.128906-5.628906 16.890625-13.328125 34.902343-13.328125 18 0 27.757813 7.699219 34.886719 13.328125 5.621094 4.429688 8.710938 6.871094 16.3125 6.871094 7.589844 0 10.679688-2.441406 16.300781-6.871094 7.128907-5.628906 16.886719-13.328125 34.886719-13.328125h.011719c18 0 27.761719 7.699219 34.878906 13.328125 5.621094 4.429688 8.722656 6.871094 16.3125 6.871094 7.597656 0 10.6875-2.441406 16.308594-6.871094 7.121094-5.628906 16.878906-13.328125 34.890625-13.328125 18.007813 0 27.757813 7.699219 34.890625 13.328125 5.617188 4.429688 8.707031 6.871094 16.308594 6.871094 7.601562 0 10.691406-2.441406 16.308594-6.871094 7.132812-5.628906 16.890624-13.328125 34.890624-13.328125 18.011719 0 27.769532 7.699219 34.902344 13.328125 5.617188 4.429688 8.707032 6.871094 16.308594 6.871094zm0 0" fill="#2f5995"/><path d="m512 454v58h-256v-78.199219c18 0 27.761719 7.699219 34.878906 13.328125 5.621094 4.429688 8.722656 6.871094 16.3125 6.871094 7.597656 0 10.6875-2.441406 16.308594-6.871094 7.121094-5.628906 16.878906-13.328125 34.890625-13.328125 18.007813 0 27.757813 7.699219 34.890625 13.328125 5.617188 4.429688 8.707031 6.871094 16.308594 6.871094 7.601562 0 10.691406-2.441406 16.308594-6.871094 7.132812-5.628906 16.890624-13.328125 34.890624-13.328125 18.011719 0 27.769532 7.699219 34.902344 13.328125 5.617188 4.429688 8.707032 6.871094 16.308594 6.871094zm0 0" fill="#183158"/></g><g transform="matrix(0.1171875 0 0 0.1171875 150 293)" id="L1_9"><path d="m351.558594 310.589844c0 57.558594-46.828125 104.390625-104.386719 104.390625-1.03125 0-35.683594-.058594-71.390625-.121094-36.992188-.058594-75.109375-.121094-78.171875-.128906l-1.019531-.03125c-26.308594-1.839844-50.691406-13.488281-68.667969-32.820313-18-19.367187-27.921875-44.6875-27.921875-71.289062 0-31.320313 13.679688-60.25 37.230469-79.941406-6.910157-12.878907-10.511719-27.1875-10.511719-42.117188 0-21.679688 7.859375-42.601562 22.121094-58.910156 10.429687-11.921875 23.761718-20.800782 38.539062-25.839844-.757812-4.691406-1.140625-9.453125-1.140625-14.242188 0-49.367187 40.171875-89.539062 89.542969-89.539062 49.367188 0 89.539062 40.171875 89.539062 89.539062 0 4.789063-.378906 9.550782-1.140624 14.242188 14.78125 5.039062 28.109374 13.917969 38.539062 25.839844 14.261719 16.308594 22.121094 37.230468 22.121094 58.910156 0 14.929688-3.601563 29.238281-10.511719 42.117188 23.550781 19.691406 37.230469 48.613281 37.230469 79.941406zm0 0" fill="#00b44b"/><path d="m351.558594 310.589844c0 57.558594-46.828125 104.390625-104.386719 104.390625-1.03125 0-35.683594-.058594-71.390625-.121094v-414.859375c49.367188 0 89.539062 40.171875 89.539062 89.539062 0 4.789063-.378906 9.550782-1.140624 14.242188 14.78125 5.039062 28.109374 13.917969 38.539062 25.839844 14.261719 16.308594 22.121094 37.230468 22.121094 58.910156 0 14.929688-3.601563 29.238281-10.511719 42.117188 23.550781 19.691406 37.230469 48.613281 37.230469 79.941406zm0 0" fill="#007f40"/><path d="m284.328125 289.425781v22.710938c0 25.359375-20.636719 46-46 46h-15.546875v150.863281h-94v-169.011719h-16.332031c-25.371094 0-46-20.640625-46-46v-22.710937h30v22.710937c0 8.820313 7.171875 16 16 16h16.332031v-141.988281h94v160.136719h15.546875c8.820313 0 16-7.179688 16-16v-22.710938zm0 0" fill="#f8bd2d"/><path d="m284.328125 289.425781v22.710938c0 25.359375-20.636719 46-46 46h-15.546875v150.863281h-47v-341h47v160.136719h15.546875c8.820313 0 16-7.179688 16-16v-22.710938zm0 0" fill="#ff8900"/><path d="m87.78125 482h176v30h-176zm0 0" fill="#9ce78d"/><path d="m175.78125 482h88v30h-88zm0 0" fill="#36cb8e"/></g><g transform="matrix(0.1171875 0 0 0.1171875 307 68)" id="L1_10"><path d="m227.898438 274.410156v153.578125h82.609374c8.832032 0 16.011719-7.1875 16.011719-16.007812v-31.671875h30v31.671875c0 25.371093-20.640625 46.007812-46.011719 46.007812h-82.609374v54.011719h-30v-54.011719h-81.589844c-25.378906 0-46.019532-20.636719-46.019532-46.007812v-31.671875h30v31.671875c0 8.820312 7.191407 16.007812 16.019532 16.007812h81.589844v-153.578125h-81.589844c-25.378906 0-46.019532-20.640625-46.019532-46.019531v-31.660156h30v31.660156c0 8.828125 7.191407 16.019531 16.019532 16.019531h81.589844v-162h30v162h82.609374c8.832032 0 16.011719-7.191406 16.011719-16.019531v-31.660156h30v31.660156c0 25.378906-20.640625 46.019531-46.011719 46.019531zm0 0" fill="#c7ac91"/><path d="m227.898438 274.410156v153.578125h82.609374c8.832032 0 16.011719-7.1875 16.011719-16.007812v-31.671875h30v31.671875c0 25.371093-20.640625 46.007812-46.011719 46.007812h-82.609374v54.011719h-14.449219v-429.589844h14.449219v162h82.609374c8.832032 0 16.011719-7.191406 16.011719-16.019531v-31.660156h30v31.660156c0 25.378906-20.640625 46.019531-46.011719 46.019531zm0 0" fill="#a07852"/><path d="m298.1875 60.328125v32.011719h-170.578125v-32.011719c0-33.257813 27.058594-60.328125 60.328125-60.328125h49.921875c33.269531 0 60.328125 27.070312 60.328125 60.328125zm0 0" fill="#ff7a53"/><path d="m110.25 119.386719h-49.917969c-33.265625 0-60.332031 27.0625-60.332031 60.332031v32.011719h170.585938v-32.011719c0-33.269531-27.066407-60.332031-60.335938-60.332031zm0 0" fill="#ff7a53"/><path d="m365.464844 119.386719h-49.917969c-33.269531 0-60.332031 27.0625-60.332031 60.332031v32.011719h170.585937v-32.011719c0-33.269531-27.066406-60.332031-60.335937-60.332031zm0 0" fill="#ff4f19"/><path d="m110.25 302.96875h-49.917969c-33.265625 0-60.332031 27.0625-60.332031 60.332031v32.011719h170.585938v-32.011719c0-33.269531-27.066407-60.332031-60.335938-60.332031zm0 0" fill="#ff7a53"/><g fill="#ff4f19"><path d="m365.464844 302.96875h-49.917969c-33.269531 0-60.332031 27.0625-60.332031 60.332031v32.011719h170.585937v-32.011719c0-33.269531-27.066406-60.332031-60.335937-60.332031zm0 0"/><path d="m298.1875 60.328125v32.011719h-84.738281v-92.339844h24.410156c33.269531 0 60.328125 27.070312 60.328125 60.328125zm0 0"/></g></g><g transform="matrix(0.1171875 0 0 0.1171875 74 258)" id="L1_11"><path d="m196.570312 269h119.460938v240h-119.460938zm0 0" fill="#c7ac91"/><path d="m256.300781 269h59.730469v240h-59.730469zm0 0" fill="#a07852"/><path d="m168.300781 482h176v30h-176zm0 0" fill="#9ce78d"/><path d="m511.859375 232.539062c0 12.722657-2.390625 25.082032-7.097656 36.8125v108.648438h-30v-96h-32.960938v71h-30v-71h-32.960937v96h-30v-96h-185.078125v96h-30v-96h-32.960938v71h-30v-71h-32.960937v96h-30v-106.828125c-5.199219-12.261719-7.839844-25.25-7.839844-38.632813 0-26.25 10.160156-50.988281 28.601562-69.660156 15.507813-15.699218 35.367188-25.589844 56.886719-28.539062 8.960938-32.28125 38.082031-55.511719 72.460938-56.320313 4.539062-19.5 14.8125-37.28125 29.730469-51.121093 18.71875-17.347657 43.089843-26.898438 68.621093-26.898438 25.507813 0 49.859375 9.539062 68.570313 26.851562 14.949218 13.847657 25.238281 31.660157 29.777344 51.1875 34.0625 1.132813 62.820312 24.25 71.722656 56.300782 21.519531 2.949218 41.378906 12.839844 56.878906 28.539062 18.449219 18.671875 28.609375 43.410156 28.609375 69.660156zm0 0" fill="#00ceb4"/><path d="m256.300781 482h88v30h-88zm0 0" fill="#36cb8e"/><path d="m511.859375 232.539062c0 12.722657-2.390625 25.082032-7.097656 36.8125v108.648438h-30v-96h-32.960938v71h-30v-71h-32.960937v96h-30v-96h-92.539063v-282c25.507813 0 49.859375 9.539062 68.570313 26.851562 14.949218 13.847657 25.238281 31.660157 29.777344 51.1875 34.0625 1.132813 62.820312 24.25 71.722656 56.300782 21.519531 2.949218 41.378906 12.839844 56.878906 28.539062 18.449219 18.671875 28.609375 43.410156 28.609375 69.660156zm0 0" fill="#008878"/></g><g transform="matrix(0.1171875 0 0 0.1171875 -7 137)" id="L1_12"><path d="m438 243v40.871094c0 25.050781-20.378906 45.429687-45.429688 45.429687h-63.570312v167.699219h-30v-10h-29v14h-30v-14h-27v10h-30v-167.699219h-63.570312c-25.050782 0-45.429688-20.378906-45.429688-45.429687v-40.871094h30v40.871094c0 8.507812 6.921875 15.429687 15.429688 15.429687h28.859374v-60.609375h30v60.609375h63.332032v-65.011719h30v65.011719h59v-60.609375h30v60.609375h31.949218c8.507813 0 15.429688-6.921875 15.429688-15.429687v-40.871094zm0 0" fill="#c7ac91"/><path d="m438 243v40.871094c0 25.050781-20.378906 45.429687-45.429688 45.429687h-63.570312v167.699219h-30v-10h-29v14h-14v-266.710938h15.621094v65.011719h59v-60.609375h30v60.609375h31.949218c8.507813 0 15.429688-6.921875 15.429688-15.429687v-40.871094zm0 0" fill="#a07852"/><path d="m150.121094 482h211.757812v30h-211.757812zm0 0" fill="#b77445"/><path d="m512 170.75c0 20.449219-13.46875 37.820312-32.011719 43.699219-.417969 25.921875-21.628906 46.878906-47.660156 46.878906-9.097656 0-17.839844-2.558594-25.328125-7.269531-7.488281 4.710937-16.230469 7.269531-25.328125 7.269531-9.113281 0-17.84375-2.558594-25.34375-7.269531-7.488281 4.710937-16.226563 7.269531-25.328125 7.269531s-17.839844-2.558594-25.328125-7.269531c-7.5 4.710937-16.230469 7.269531-25.34375 7.269531-8.699219 0-17.066406-2.339844-24.328125-6.65625-.339844-.203125-.671875-.402344-1-.613281-7.488281 4.710937-16.230469 7.269531-25.328125 7.269531-9.113281 0-17.84375-2.558594-25.34375-7.269531-7.488281 4.710937-16.226563 7.269531-25.328125 7.269531s-17.839844-2.558594-25.328125-7.269531c-7.5 4.710937-16.230469 7.269531-25.34375 7.269531-9.097656 0-17.839844-2.558594-25.328125-7.269531-7.488281 4.710937-16.230469 7.269531-25.328125 7.269531-26.261719 0-47.621094-21.328125-47.671875-47.566406-17.488281-6.460938-30-23.300781-30-43.011719 0-20.410156 13.410156-37.75 31.871094-43.660156 3.410156-21.878906 22.390625-38.679688 45.207031-38.679688.75 0 1.5.019532 2.242187.058594 7.050782-18.429688 24.917969-31.558594 45.800782-31.558594 13.097656 0 25.539062 5.351563 34.597656 14.351563 1-.402344 2.011719-.761719 3.042969-1.089844 3.410156-21.882813 22.378906-38.671875 45.199219-38.671875.75 0 1.5.019531 2.25.058594 7.039062-18.4375 24.910156-31.558594 45.789062-31.558594s38.75 13.121094 45.789062 31.558594c.75-.039063 1.5-.058594 2.25-.058594 22.820313 0 41.789063 16.789062 45.199219 38.671875 1.03125.328125 2.042969.6875 3.042969 1.089844 9.058594-9 21.5-14.351563 34.597656-14.351563 20.882813 0 38.75 13.128906 45.800782 31.558594.742187-.039062 1.492187-.058594 2.242187-.058594 22.816406 0 41.796875 16.800782 45.207031 38.679688 18.460938 5.910156 31.871094 23.25 31.871094 43.660156zm0 0" fill="#00ceb4"/><path d="m256 482h105.878906v30h-105.878906zm0 0" fill="#a04010"/><path d="m512 170.75c0 20.449219-13.46875 37.820312-32.011719 43.699219-.417969 25.921875-21.628906 46.878906-47.660156 46.878906-9.097656 0-17.839844-2.558594-25.328125-7.269531-7.488281 4.710937-16.230469 7.269531-25.328125 7.269531-9.113281 0-17.84375-2.558594-25.34375-7.269531-7.488281 4.710937-16.226563 7.269531-25.328125 7.269531s-17.839844-2.558594-25.328125-7.269531c-7.5 4.710937-16.230469 7.269531-25.34375 7.269531-8.699219 0-17.066406-2.339844-24.328125-6.65625v-254.671875c20.878906 0 38.75 13.121094 45.789062 31.558594.75-.039063 1.5-.058594 2.25-.058594 22.820313 0 41.789063 16.789062 45.199219 38.671875 1.03125.328125 2.042969.6875 3.042969 1.089844 9.058594-9 21.5-14.351563 34.597656-14.351563 20.882813 0 38.75 13.128906 45.800782 31.558594.742187-.039062 1.492187-.058594 2.242187-.058594 22.816406 0 41.796875 16.800782 45.207031 38.679688 18.460938 5.910156 31.871094 23.25 31.871094 43.660156zm0 0" fill="#008878"/></g><g transform="matrix(0.11718741804361343 0 0 0.11718741804361343 53.000003814697266 -5.000001907348633)" id="L1_13"><path d="m288.683594 509h-113.863282l2.609376-73.332031 1.070312-30 1.542969-43.339844 1.070312-30 1.539063-43.328125 1.070312-30 2.667969-74.933594 14.992187.542969h60.738282l14.992187-.542969 2.667969 74.933594 1.070312 30 1.539063 43.328125 1.070313 30 1.542968 43.339844 1.070313 30zm0 0" fill="#b77445"/><path d="m288.683594 509h-56.929688v-324.390625h30.367188l14.992187-.542969 2.667969 74.933594 1.070312 30 1.539063 43.328125 1.070313 30 1.542968 43.339844 1.070313 30zm0 0" fill="#a04010"/><g fill="#c7ac91"><path d="m280.851562 292h-98.199218l1.070312-30h96.058594zm0 0"/><path d="m283.460938 365.328125h-103.417969l1.070312-30h101.277344zm0 0"/><path d="m286.074219 438.667969h-108.644531l1.070312-30h106.503906zm0 0"/></g><path d="m449.375 48.398438-211.023438 142.699218-6.597656-9.761718-6.601562 9.761718-211.023438-142.699218 8.410156-12.433594c14.960938-22.128906 40.339844-34.878906 71.480469-35.8984378 29.351563-.9609372 60.632813 8.7187498 88.09375 27.2890628 21.1875 14.332031 38.308594 32.742187 49.640625 53.070312 11.328125-20.328125 28.449219-38.738281 49.636719-53.070312 27.460937-18.570313 58.742187-28.257813 88.09375-27.2890628 31.140625 1.0195318 56.519531 13.7695318 71.480469 35.8984378zm0 0" fill="#00b44b"/><path d="m463.503906 187.609375v15h-463.503906v-15c0-25.941406 13.46875-49.992187 37.929688-67.742187 23.011718-16.691407 53.359374-25.890626 85.453124-25.890626 32.078126 0 62.429688 9.199219 85.4375 25.890626 9.273438 6.71875 16.953126 14.359374 22.933594 22.648437 5.976563-8.289063 13.65625-15.929687 22.929688-22.648437 23.007812-16.691407 53.359375-25.890626 85.4375-25.890626 32.09375 0 62.441406 9.199219 85.453125 25.890626 24.460937 17.75 37.929687 41.800781 37.929687 67.742187zm0 0" fill="#60d64d"/><path d="m143.75 482h176.003906v30h-176.003906zm0 0" fill="#9ce78d"/><path d="m449.375 48.398438-211.023438 142.699218-6.597656-9.761718v-100.910157c11.328125-20.328125 28.449219-38.738281 49.636719-53.070312 27.460937-18.570313 58.742187-28.257813 88.09375-27.2890628 31.140625 1.0195318 56.519531 13.7695318 71.480469 35.8984378zm0 0" fill="#007f40"/><path d="m280.851562 292h-49.097656v-30h48.027344zm0 0" fill="#a07852"/><path d="m283.460938 365.328125h-51.707032v-30h50.636719zm0 0" fill="#a07852"/><path d="m286.074219 438.667969h-54.320313v-30h53.25zm0 0" fill="#a07852"/><path d="m231.753906 482h88v30h-88zm0 0" fill="#36cb8e"/><path d="m463.503906 187.609375v15h-231.75v-60.09375c5.976563-8.289063 13.65625-15.929687 22.929688-22.648437 23.007812-16.691407 53.359375-25.890626 85.4375-25.890626 32.09375 0 62.441406 9.199219 85.453125 25.890626 24.460937 17.75 37.929687 41.800781 37.929687 67.742187zm0 0" fill="#00b563"/></g><g transform="matrix(0.1171875 0 0 0.1171875 80 172)" id="L1_14"><path d="m80.101562 290.667969h96.320313v218.332031h-96.320313zm0 0" fill="#b77445"/><path d="m128.261719 290.667969h48.160156v218.332031h-48.160156zm0 0" fill="#a04010"/><path d="m40.261719 482h176v30h-176zm0 0" fill="#9ce78d"/><path d="m227.761719 221.121094c1.269531 4.859375 1.917969 9.890625 1.917969 14.957031 0 31.480469-24.78125 57.28125-55.859376 58.921875-10.929687 13.769531-27.671874 22.019531-45.558593 22.019531-17.890625 0-34.632813-8.25-45.5625-22.019531-31.078125-1.640625-55.859375-27.441406-55.859375-58.921875 0-5.066406.648437-10.097656 1.921875-14.949219-17.5-10.417968-28.761719-29.457031-28.761719-50.699218 0-18.269532 8.398438-35.160157 22.269531-46.179688-1.960937-5.941406-2.980469-12.179688-2.980469-18.53125 0-29.480469 21.730469-53.980469 50.011719-58.320312 5.949219-27.078126 30.128907-47.398438 58.960938-47.398438 28.828125 0 53.007812 20.320312 58.957031 47.398438 28.28125 4.339843 50.011719 28.839843 50.011719 58.320312 0 6.351562-1.011719 12.589844-2.980469 18.53125 13.871094 11.019531 22.269531 27.910156 22.269531 46.179688 0 21.242187-11.257812 40.28125-28.757812 50.691406zm0 0" fill="#f8bd2d"/><path d="m80.101562 341.828125h96.320313v30h-96.320313zm0 0" fill="#c7ac91"/><path d="m80.101562 414.671875h96.320313v30h-96.320313zm0 0" fill="#c7ac91"/><path d="m128.261719 341.828125h48.160156v30h-48.160156zm0 0" fill="#a07852"/><path d="m128.261719 414.671875h48.160156v30h-48.160156zm0 0" fill="#a07852"/><path d="m128.261719 482h88v30h-88zm0 0" fill="#36cb8e"/><path d="m227.761719 221.121094c1.269531 4.859375 1.917969 9.890625 1.917969 14.957031 0 31.480469-24.78125 57.28125-55.859376 58.921875-10.929687 13.769531-27.671874 22.019531-45.558593 22.019531v-317.019531c28.828125 0 53.007812 20.320312 58.957031 47.398438 28.28125 4.339843 50.011719 28.839843 50.011719 58.320312 0 6.351562-1.011719 12.589844-2.980469 18.53125 13.871094 11.019531 22.269531 27.910156 22.269531 46.179688 0 21.242187-11.257812 40.28125-28.757812 50.691406zm0 0" fill="#ff8900"/></g><g transform="matrix(0.1171875 0 0 0.1171875 241.99998474121094 2)" id="L1_15"><path d="m348.851562 174.429688c0 96.179687-78.25 174.429687-174.429687 174.429687-96.183594 0-174.421875-78.25-174.421875-174.429687 0-96.179688 78.238281-174.429688 174.421875-174.429688 96.179687 0 174.429687 78.25 174.429687 174.429688zm0 0" fill="#ffa7b8"/><path d="m348.851562 174.429688c0 96.179687-78.25 174.429687-174.429687 174.429687v-348.859375c96.179687 0 174.429687 78.25 174.429687 174.429688zm0 0" fill="#ff7cb8"/><path d="m327.808594 341.5v20.28125c0 30.449219-24.769532 55.21875-55.21875 55.21875h-83.167969v80h-30v-226h-16.332031c-25.359375 0-46-20.640625-46-46v-22.699219h30v22.699219c0 8.820312 7.179687 16 16 16h16.332031v-66.570312h30v212.570312h83.167969c13.898437 0 25.21875-11.308594 25.21875-25.21875v-20.28125zm0 0" fill="#b77445"/><path d="m327.808594 341.5v20.28125c0 30.449219-24.769532 55.21875-55.21875 55.21875h-83.167969v80h-15v-322.570312h15v212.570312h83.167969c13.898437 0 25.21875-11.308594 25.21875-25.21875v-20.28125zm0 0" fill="#a04010"/><path d="m86.421875 482h176v30h-176zm0 0" fill="#9ce78d"/><path d="m174.421875 482h88v30h-88zm0 0" fill="#36cb8e"/><path d="m413.300781 256c0 55.410156-45.082031 100.5-100.492187 100.5-55.417969 0-100.5-45.089844-100.5-100.5s45.082031-100.5 100.5-100.5c55.410156 0 100.492187 45.089844 100.492187 100.5zm0 0" fill="#ffa7b8"/><path d="m413.300781 256c0 55.410156-45.082031 100.5-100.492187 100.5v-201c55.410156 0 100.492187 45.089844 100.492187 100.5zm0 0" fill="#ff7cb8"/></g><g transform="matrix(0.1171875 0 0 0.1171875 233 258)" id="L1_16"><path d="m512 171c0 46.929688-27.5 90.578125-77.441406 122.898438-47.910156 31.023437-111.328125 48.101562-178.558594 48.101562s-130.648438-17.078125-178.558594-48.101562c-49.941406-32.320313-77.441406-75.96875-77.441406-122.898438s27.5-90.578125 77.441406-122.898438c47.910156-31.023437 111.328125-48.101562 178.558594-48.101562s130.648438 17.078125 178.558594 48.101562c49.941406 32.320313 77.441406 75.96875 77.441406 122.898438zm0 0" fill="#60d64d"/><path d="m512 171c0 46.929688-27.5 90.578125-77.441406 122.898438-47.910156 31.023437-111.328125 48.101562-178.558594 48.101562v-342c67.230469 0 130.648438 17.078125 178.558594 48.101562 49.941406 32.320313 77.441406 75.96875 77.441406 122.898438zm0 0" fill="#00b563"/><path d="m364.550781 198.621094v22.710937c0 25.359375-20.640625 46-46 46h-15.550781v241.667969h-94v-259.816406h-16.328125c-25.371094 0-46-20.640625-46-46v-22.710938h30v22.710938c0 8.820312 7.167969 16 16 16h16.328125v-66.464844h94v84.613281h15.550781c8.820313 0 16-7.179687 16-16v-22.710937zm0 0" fill="#b77445"/><path d="m364.550781 198.621094v22.710937c0 25.359375-20.640625 46-46 46h-15.550781v241.667969h-47v-356.28125h47v84.613281h15.550781c8.820313 0 16-7.179687 16-16v-22.710937zm0 0" fill="#a04010"/><path d="m168 482h176v30h-176zm0 0" fill="#9ce78d"/><path d="m256 482h88v30h-88zm0 0" fill="#36cb8e"/></g><g transform="matrix(0.1171875 0 0 0.1171875 323 231)" id="L1_17"><path d="m413.347656 117.25v35.570312c0 26.625-21.664062 48.289063-48.289062 48.289063h-56.523438v295.917969h-152.738281v-295.917969h-56.527344c-26.621093 0-48.285156-21.664063-48.285156-48.289063v-35.570312h29.949219v35.570312c0 10.113282 8.226562 18.339844 18.335937 18.339844h30.96875v-54.769531h29.949219v54.769531h57.003906v-53.910156h29.949219v53.910156h57.003906v-54.769531h29.949219v54.769531h30.964844c10.113281 0 18.339844-8.226562 18.339844-18.339844v-35.570312zm0 0" fill="#b77445"/><path d="m413.347656 117.25v35.570312c0 26.625-21.664062 48.289063-48.289062 48.289063h-56.523438v295.917969h-75.769531v-379.777344h14.375v53.910156h57.003906v-54.769531h29.949219v54.769531h30.964844c10.113281 0 18.339844-8.226562 18.339844-18.339844v-35.570312zm0 0" fill="#a04010"/><path d="m464.332031 88.507812c0 26.535157-21.59375 48.128907-48.128906 48.128907h-89.039063c-26.542968 0-48.128906-21.59375-48.128906-48.128907 0-24.105468 17.808594-44.132812 40.960938-47.597656 5.492187-23.417968 26.554687-40.910156 51.621094-40.910156h.0625c25.027343.03125 46.058593 17.5 51.550781 40.890625 23.222656 3.414063 41.101562 23.460937 41.101562 47.617187zm0 0" fill="#00b44b"/><path d="m185.296875 88.507812c0 26.535157-21.585937 48.128907-48.128906 48.128907h-89.039063c-26.535156 0-48.128906-21.59375-48.128906-48.128907 0-24.105468 17.808594-44.132812 40.96875-47.597656 5.492188-23.417968 26.546875-40.910156 51.613281-40.910156h.070313c25.039062.03125 46.0625 17.5 51.550781 40.890625 23.210937 3.414063 41.09375 23.460937 41.09375 47.617187zm0 0" fill="#00b44b"/><path d="m112.976562 482.050781h238.375v29.949219h-238.375zm0 0" fill="#9ce78d"/><path d="m232.765625 482.050781h118.585937v29.949219h-118.585937zm0 0" fill="#36cb8e"/><path d="m185.296875 88.507812c0 26.535157-21.585937 48.128907-48.128906 48.128907h-44.515625v-136.636719c25.039062.03125 46.0625 17.5 51.550781 40.890625 23.210937 3.414063 41.09375 23.460937 41.09375 47.617187zm0 0" fill="#007f40"/><path d="m464.332031 88.507812c0 26.535157-21.59375 48.128907-48.128906 48.128907h-44.523437v-136.636719c25.027343.03125 46.058593 17.5 51.550781 40.890625 23.222656 3.414063 41.101562 23.460937 41.101562 47.617187zm0 0" fill="#007f40"/><path d="m324.816406 88.507812c0 26.535157-21.589844 48.128907-48.136718 48.128907h-89.027344c-26.546875 0-48.140625-21.59375-48.140625-48.128907 0-24.105468 17.820312-44.132812 40.972656-47.597656 5.488281-23.417968 26.554687-40.910156 51.621094-40.910156.21875 0 .4375 0 .660156.0117188 24.765625.2968752 45.5 17.6796872 50.953125 40.8789062 23.21875 3.414063 41.097656 23.460937 41.097656 47.617187zm0 0" fill="#00b44b"/><path d="m276.679688 136.636719h-43.914063v-136.6250002c24.765625.2968752 45.5 17.6796872 50.953125 40.8789062 23.21875 3.414063 41.097656 23.460937 41.097656 47.617187 0 26.535157-21.589844 48.128907-48.136718 48.128907zm0 0" fill="#007f40"/></g><g transform="matrix(0.1171875 0 0 0.1171875 67 99)" id="L1_18"><path d="m483.121094 238.199219c.039062.878906.070312 1.769531.070312 2.660156 0 30.210937-24.582031 54.789063-54.800781 54.789063h-.730469c-6.898437 24.820312-29.699218 43.101562-56.699218 43.101562-8.390626 0-16.679688-1.828125-24.261719-5.261719-9.871094 8.613281-22.597657 13.5-36.027344 13.5-4.0625 0-8.113281-.457031-12.070313-1.347656-10.25 12.660156-25.851562 20.347656-42.601562 20.347656s-32.351562-7.6875-42.601562-20.347656c-3.957032.890625-8.007813 1.347656-12.070313 1.347656-13.429687 0-26.15625-4.886719-36.027344-13.5-7.582031 3.433594-15.871093 5.261719-24.261719 5.261719-27 0-49.800781-18.28125-56.699218-43.101562h-.730469c-30.21875 0-54.800781-24.578126-54.800781-54.789063 0-.890625.03125-1.78125.070312-2.660156-17.507812-9.328125-28.878906-27.621094-28.878906-48.320313 0-30.207031 24.578125-54.789062 54.789062-54.789062.621094 0 1.242188.011718 1.851563.03125 5.179687-18.199219 19.550781-32.582032 37.75-37.75-.019531-.679688-.03125-1.371094-.03125-2.0625 0-30.207032 24.582031-54.789063 54.789063-54.789063 7.371093 0 14.523437 1.441407 21.152343 4.21875 9.929688-8.5 22.710938-13.289062 36.050781-13.1875 8.796876-18.902343 27.878907-31.550781 49.648438-31.550781s40.851562 12.648438 49.648438 31.550781c13.351562-.109375 26.121093 4.6875 36.050781 13.1875 6.628906-2.777343 13.78125-4.21875 21.152343-4.21875 30.207032 0 54.789063 24.582031 54.789063 54.789063 0 .691406-.011719 1.382812-.03125 2.0625 18.199219 5.167968 32.570313 19.550781 37.75 37.75.609375-.019532 1.230469-.03125 1.851563-.03125 30.210937 0 54.789062 24.582031 54.789062 54.789062 0 20.699219-11.371094 38.992188-28.878906 48.320313zm0 0" fill="#ffa7b8"/><path d="m483.121094 238.199219c.039062.878906.070312 1.769531.070312 2.660156 0 30.210937-24.582031 54.789063-54.800781 54.789063h-.730469c-6.898437 24.820312-29.699218 43.101562-56.699218 43.101562-8.390626 0-16.679688-1.828125-24.261719-5.261719-9.871094 8.613281-22.597657 13.5-36.027344 13.5-4.0625 0-8.113281-.457031-12.070313-1.347656-10.25 12.660156-25.851562 20.347656-42.601562 20.347656v-365.988281c21.769531 0 40.851562 12.648438 49.648438 31.550781 13.351562-.109375 26.121093 4.6875 36.050781 13.1875 6.628906-2.777343 13.78125-4.21875 21.152343-4.21875 30.207032 0 54.789063 24.582031 54.789063 54.789063 0 .691406-.011719 1.382812-.03125 2.0625 18.199219 5.167968 32.570313 19.550781 37.75 37.75.609375-.019532 1.230469-.03125 1.851563-.03125 30.210937 0 54.789062 24.582031 54.789062 54.789062 0 20.699219-11.371094 38.992188-28.878906 48.320313zm0 0" fill="#ff7cb8"/><path d="m364.550781 198.621094v22.710937c0 25.359375-20.640625 46-46 46h-15.550781v241.667969h-94v-259.816406h-16.328125c-25.371094 0-46-20.640625-46-46v-22.710938h30v22.710938c0 8.820312 7.167969 16 16 16h16.328125v-66.464844h94v84.613281h15.550781c8.820313 0 16-7.179687 16-16v-22.710937zm0 0" fill="#b77445"/><path d="m364.550781 198.621094v22.710937c0 25.359375-20.640625 46-46 46h-15.550781v241.667969h-47v-356.28125h47v84.613281h15.550781c8.820313 0 16-7.179687 16-16v-22.710937zm0 0" fill="#a04010"/><path d="m168 482h176v30h-176zm0 0" fill="#9ce78d"/><path d="m256 482h88v30h-88zm0 0" fill="#36cb8e"/></g><g transform="matrix(0.1171875 0 0 0.1171875 265 158)" id="L1_19"><path d="m254.257812 399.75 14.160157 26.449219-59.269531 31.75v43.609375h-30v-43.207032l-60.019532-32.152343 14.167969-26.449219 45.851563 24.570312v-136.621093l-60.019532-32.160157 14.167969-26.449218 45.851563 24.570312v-110.660156h30v110.261719l45.109374-24.171875 14.160157 26.449218-59.269531 31.761719v136.621094zm0 0" fill="#f8bd2d"/><path d="m254.257812 399.75 14.160157 26.449219-59.269531 31.75v43.609375h-15.75v-358.558594h15.75v110.261719l45.109374-24.171875 14.160157 26.449218-59.269531 31.761719v136.621094zm0 0" fill="#ff8900"/><path d="m106.148438 482h176v30h-176zm0 0" fill="#c7ac91"/><path d="m271.757812 77.609375c0 42.800781-34.8125 77.621094-77.609374 77.621094-.25 0-.5 0-.75-.011719-42.460938-.398438-76.863282-35.058594-76.863282-77.609375 0-42.539063 34.402344-77.199219 76.863282-77.5976562.25-.0117188.5-.0117188.75-.0117188 42.796874 0 77.609374 34.820312 77.609374 77.609375zm0 0" fill="#2f5995"/><path d="m77.613281 125.226562c-42.796875 0-77.613281 34.816407-77.613281 77.613282s34.816406 77.613281 77.613281 77.613281 77.613281-34.816406 77.613281-77.613281-34.816406-77.613282-77.613281-77.613282zm0 0" fill="#2f5995"/><path d="m233.066406 202.839844c0 42.796875 34.816406 77.613281 77.613282 77.613281 42.796874 0 77.613281-34.816406 77.613281-77.613281s-34.816407-77.613282-77.613281-77.613282c-42.796876 0-77.613282 34.816407-77.613282 77.613282zm0 0" fill="#183158"/><path d="m77.613281 290.746094c-42.796875 0-77.613281 34.816406-77.613281 77.613281s34.816406 77.613281 77.613281 77.613281 77.613281-34.816406 77.613281-77.613281-34.816406-77.613281-77.613281-77.613281zm0 0" fill="#2f5995"/><path d="m310.679688 290.746094c-42.796876 0-77.613282 34.816406-77.613282 77.613281s34.816406 77.613281 77.613282 77.613281c42.796874 0 77.613281-34.816406 77.613281-77.613281s-34.816407-77.613281-77.613281-77.613281zm0 0" fill="#183158"/><path d="m194.148438 155.230469c-.25 0-.5 0-.75-.011719v-155.2070312c.25-.0117188.5-.0117188.75-.0117188 42.796874 0 77.609374 34.820312 77.609374 77.609375 0 42.800781-34.8125 77.621094-77.609374 77.621094zm0 0" fill="#183158"/><path d="m193.398438 482h88.75v30h-88.75zm0 0" fill="#a07852"/></g><g transform="matrix(0.1171875 0 0 0.1171875 120 34)" id="L1_20"><path d="m216.441406 95.328125h30v105.320313h-30zm0 0" fill="#c7ac91"/><path d="m318.671875 251.941406v43.847656c0 24.222657-19.710937 43.929688-43.941406 43.929688h-19.019531v170.28125h-107.070313v-266.398438h-23.871094c-24.230469 0-43.929687-19.710937-43.929687-43.941406v-48.648437h30v48.648437c0 7.691406 6.25 13.941406 13.929687 13.941406h130.941407v96.117188h19.019531c7.691406 0 13.941406-6.25 13.941406-13.929688v-43.847656zm0 0" fill="#c7ac91"/><path d="m318.671875 251.941406v43.847656c0 24.222657-19.710937 43.929688-43.941406 43.929688h-19.019531v170.28125h-55.960938v-296.398438h55.960938v96.117188h19.019531c7.691406 0 13.941406-6.25 13.941406-13.929688v-43.847656zm0 0" fill="#a07852"/><path d="m111.753906 482h176v30h-176zm0 0" fill="#9ce78d"/><path d="m199.753906 482h88v30h-88zm0 0" fill="#36cb8e"/><path d="m216.441406 95.328125h30v105.320313h-30zm0 0" fill="#a07852"/><path d="m326.777344 95.328125v15h-190.667969v-15c0-52.558594 42.769531-95.328125 95.328125-95.328125 52.574219 0 95.339844 42.769531 95.339844 95.328125zm0 0" fill="#2f5995"/><path d="m191.167969 153.011719v15h-190.667969v-15c0-52.570313 42.769531-95.339844 95.339844-95.339844 52.558594 0 95.328125 42.769531 95.328125 95.339844zm0 0" fill="#2f5995"/><path d="m191.167969 153.011719v15h-95.328125v-110.339844c52.558594 0 95.328125 42.769531 95.328125 95.339844zm0 0" fill="#183158"/><path d="m326.777344 95.328125v15h-95.339844v-110.328125c52.574219 0 95.339844 42.769531 95.339844 95.328125zm0 0" fill="#183158"/><path d="m407.585938 249.695312v15.3125h-207.832032v-15.3125c0-57.300781 46.613282-103.914062 103.914063-103.914062 57.292969 0 103.917969 46.613281 103.917969 103.914062zm0 0" fill="#2f5995"/><path d="m407.585938 249.695312v15.3125h-103.914063v-119.226562c57.289063 0 103.914063 46.613281 103.914063 103.914062zm0 0" fill="#183158"/></g><g transform="matrix(0.1171875 0 0 0.1171875 139 114)" id="L1_21"><path d="m422.71875 278.539062v32.78125c0 28.757813-23.398438 52.148438-52.160156 52.148438h-100.308594v133.53125h-30v-100.519531h-95.960938c-28.757812 0-52.160156-23.402344-52.160156-52.160157v-28.851562h30v28.851562c0 12.21875 9.941406 22.160157 22.160156 22.160157h95.960938v-142.058594h30v109.046875h100.308594c12.222656 0 22.160156-9.9375 22.160156-22.148438v-32.78125zm0 0" fill="#c7ac91"/><path d="m422.71875 278.539062v32.78125c0 28.757813-23.398438 52.148438-52.160156 52.148438h-100.308594v133.53125h-14.25v-272.578125h14.25v109.046875h100.308594c12.222656 0 22.160156-9.9375 22.160156-22.148438v-32.78125zm0 0" fill="#a07852"/><path d="m423.460938 159.328125c0 44.160156-35.921876 80.09375-80.082032 80.09375h-174.757812c-44.160156 0-80.082032-35.933594-80.082032-80.09375 0-43.546875 34.941407-79.089844 78.269532-80.058594 5.171875-44.558593 43.140625-79.269531 89.070312-79.269531h.121094c45.871094.0585938 83.78125 34.75 88.941406 79.269531 43.4375.832031 78.519532 36.429688 78.519532 80.058594zm0 0" fill="#00ceb4"/><path d="m209.488281 277.160156c0 29.390625-23.910156 53.308594-53.308593 53.308594h-102.871094c-29.386719 0-53.308594-23.917969-53.308594-53.308594 0-27.238281 20.53125-49.769531 46.929688-52.929687 5.53125-26.808594 29.320312-47.03125 57.742187-47.03125h.078125c28.378906.039062 52.140625 20.242187 57.660156 47.011719 26.46875 3.089843 47.078125 25.660156 47.078125 52.949218zm0 0" fill="#00ceb4"/><path d="m168 482h176v30h-176zm0 0" fill="#b77445"/><path d="m256 482h88v30h-88zm0 0" fill="#a04010"/><path d="m423.460938 159.328125c0 44.160156-35.921876 80.09375-80.082032 80.09375h-87.378906v-239.421875c45.871094.0585938 83.78125 34.75 88.941406 79.269531 43.4375.832031 78.519532 36.429688 78.519532 80.058594zm0 0" fill="#008878"/><path d="m209.488281 277.160156c0 29.390625-23.910156 53.308594-53.308593 53.308594h-51.429688v-153.269531c28.378906.039062 52.140625 20.242187 57.660156 47.011719 26.46875 3.089843 47.078125 25.660156 47.078125 52.949218zm0 0" fill="#008878"/><path d="m512 235.75c0 30.269531-24.628906 54.898438-54.910156 54.898438h-107.148438c-30.28125 0-54.910156-24.628907-54.910156-54.898438 0-28.210938 21.378906-51.519531 48.789062-54.570312 5.519532-27.859376 30.160157-48.929688 59.621094-48.929688 1.527344 0 3.058594.058594 4.558594.171875 27.410156 2.039063 49.820312 22.339844 55.058594 48.738281 27.480468 2.988282 48.941406 26.328125 48.941406 54.589844zm0 0" fill="#00ceb4"/><path d="m512 235.75c0 30.269531-24.628906 54.898438-54.910156 54.898438h-49.089844v-158.226563c27.410156 2.039063 49.820312 22.339844 55.058594 48.738281 27.480468 2.988282 48.941406 26.328125 48.941406 54.589844zm0 0" fill="#008878"/></g></defs><g fi:class="KUsePattern"><pattern id="pattern_L1_5" width="350" height="350" patternUnits="userSpaceOnUse"><use xlink:href="#L1_5" x="-350" y="-350"/><use xlink:href="#L1_5" x="0" y="-350"/><use xlink:href="#L1_5" x="350" y="-350"/><use xlink:href="#L1_5" x="-350" y="0"/><use xlink:href="#L1_5" x="0" y="0"/><use xlink:href="#L1_5" x="350" y="0"/><use xlink:href="#L1_5" x="-350" y="350"/><use xlink:href="#L1_5" x="0" y="350"/><use xlink:href="#L1_5" x="350" y="350"/></pattern><rect x="0" y="0" width="100%" height="100%" fill="url(#pattern_L1_5)"/></g><g fi:class="KUsePattern"><pattern id="pattern_L1_6" width="350" height="350" patternUnits="userSpaceOnUse"><use xlink:href="#L1_6" x="-350" y="-350"/><use xlink:href="#L1_6" x="0" y="-350"/><use xlink:href="#L1_6" x="350" y="-350"/><use xlink:href="#L1_6" x="-350" y="0"/><use xlink:href="#L1_6" x="0" y="0"/><use xlink:href="#L1_6" x="350" y="0"/><use xlink:href="#L1_6" x="-350" y="350"/><use xlink:href="#L1_6" x="0" y="350"/><use xlink:href="#L1_6" x="350" y="350"/></pattern><rect x="0" y="0" width="100%" height="100%" fill="url(#pattern_L1_6)"/></g><g fi:class="KUsePattern"><pattern id="pattern_L1_7" width="350" height="350" patternUnits="userSpaceOnUse"><use xlink:href="#L1_7" x="-350" y="-350"/><use xlink:href="#L1_7" x="0" y="-350"/><use xlink:href="#L1_7" x="350" y="-350"/><use xlink:href="#L1_7" x="-350" y="0"/><use xlink:href="#L1_7" x="0" y="0"/><use xlink:href="#L1_7" x="350" y="0"/><use xlink:href="#L1_7" x="-350" y="350"/><use xlink:href="#L1_7" x="0" y="350"/><use xlink:href="#L1_7" x="350" y="350"/></pattern><rect x="0" y="0" width="100%" height="100%" fill="url(#pattern_L1_7)"/></g><g fi:class="KUsePattern"><pattern id="pattern_L1_8" width="350" height="350" patternUnits="userSpaceOnUse"><use xlink:href="#L1_8" x="-350" y="-350"/><use xlink:href="#L1_8" x="0" y="-350"/><use xlink:href="#L1_8" x="350" y="-350"/><use xlink:href="#L1_8" x="-350" y="0"/><use xlink:href="#L1_8" x="0" y="0"/><use xlink:href="#L1_8" x="350" y="0"/><use xlink:href="#L1_8" x="-350" y="350"/><use xlink:href="#L1_8" x="0" y="350"/><use xlink:href="#L1_8" x="350" y="350"/></pattern><rect x="0" y="0" width="100%" height="100%" fill="url(#pattern_L1_8)"/></g><g fi:class="KUsePattern"><pattern id="pattern_L1_9" width="350" height="350" patternUnits="userSpaceOnUse"><use xlink:href="#L1_9" x="-350" y="-350"/><use xlink:href="#L1_9" x="0" y="-350"/><use xlink:href="#L1_9" x="350" y="-350"/><use xlink:href="#L1_9" x="-350" y="0"/><use xlink:href="#L1_9" x="0" y="0"/><use xlink:href="#L1_9" x="350" y="0"/><use xlink:href="#L1_9" x="-350" y="350"/><use xlink:href="#L1_9" x="0" y="350"/><use xlink:href="#L1_9" x="350" y="350"/></pattern><rect x="0" y="0" width="100%" height="100%" fill="url(#pattern_L1_9)"/></g><g fi:class="KUsePattern"><pattern id="pattern_L1_10" width="350" height="350" patternUnits="userSpaceOnUse"><use xlink:href="#L1_10" x="-350" y="-350"/><use xlink:href="#L1_10" x="0" y="-350"/><use xlink:href="#L1_10" x="350" y="-350"/><use xlink:href="#L1_10" x="-350" y="0"/><use xlink:href="#L1_10" x="0" y="0"/><use xlink:href="#L1_10" x="350" y="0"/><use xlink:href="#L1_10" x="-350" y="350"/><use xlink:href="#L1_10" x="0" y="350"/><use xlink:href="#L1_10" x="350" y="350"/></pattern><rect x="0" y="0" width="100%" height="100%" fill="url(#pattern_L1_10)"/></g><g fi:class="KUsePattern"><pattern id="pattern_L1_11" width="350" height="350" patternUnits="userSpaceOnUse"><use xlink:href="#L1_11" x="-350" y="-350"/><use xlink:href="#L1_11" x="0" y="-350"/><use xlink:href="#L1_11" x="350" y="-350"/><use xlink:href="#L1_11" x="-350" y="0"/><use xlink:href="#L1_11" x="0" y="0"/><use xlink:href="#L1_11" x="350" y="0"/><use xlink:href="#L1_11" x="-350" y="350"/><use xlink:href="#L1_11" x="0" y="350"/><use xlink:href="#L1_11" x="350" y="350"/></pattern><rect x="0" y="0" width="100%" height="100%" fill="url(#pattern_L1_11)"/></g><g fi:class="KUsePattern"><pattern id="pattern_L1_12" width="350" height="350" patternUnits="userSpaceOnUse"><use xlink:href="#L1_12" x="-350" y="-350"/><use xlink:href="#L1_12" x="0" y="-350"/><use xlink:href="#L1_12" x="350" y="-350"/><use xlink:href="#L1_12" x="-350" y="0"/><use xlink:href="#L1_12" x="0" y="0"/><use xlink:href="#L1_12" x="350" y="0"/><use xlink:href="#L1_12" x="-350" y="350"/><use xlink:href="#L1_12" x="0" y="350"/><use xlink:href="#L1_12" x="350" y="350"/></pattern><rect x="0" y="0" width="100%" height="100%" fill="url(#pattern_L1_12)"/></g><g fi:class="KUsePattern"><pattern id="pattern_L1_13" width="350" height="350" patternUnits="userSpaceOnUse"><use xlink:href="#L1_13" x="-350" y="-350"/><use xlink:href="#L1_13" x="0" y="-350"/><use xlink:href="#L1_13" x="350" y="-350"/><use xlink:href="#L1_13" x="-350" y="0"/><use xlink:href="#L1_13" x="0" y="0"/><use xlink:href="#L1_13" x="350" y="0"/><use xlink:href="#L1_13" x="-350" y="350"/><use xlink:href="#L1_13" x="0" y="350"/><use xlink:href="#L1_13" x="350" y="350"/></pattern><rect x="0" y="0" width="100%" height="100%" fill="url(#pattern_L1_13)"/></g><g fi:class="KUsePattern"><pattern id="pattern_L1_14" width="350" height="350" patternUnits="userSpaceOnUse"><use xlink:href="#L1_14" x="-350" y="-350"/><use xlink:href="#L1_14" x="0" y="-350"/><use xlink:href="#L1_14" x="350" y="-350"/><use xlink:href="#L1_14" x="-350" y="0"/><use xlink:href="#L1_14" x="0" y="0"/><use xlink:href="#L1_14" x="350" y="0"/><use xlink:href="#L1_14" x="-350" y="350"/><use xlink:href="#L1_14" x="0" y="350"/><use xlink:href="#L1_14" x="350" y="350"/></pattern><rect x="0" y="0" width="100%" height="100%" fill="url(#pattern_L1_14)"/></g><g fi:class="KUsePattern"><pattern id="pattern_L1_15" width="350" height="350" patternUnits="userSpaceOnUse"><use xlink:href="#L1_15" x="-350" y="-350"/><use xlink:href="#L1_15" x="0" y="-350"/><use xlink:href="#L1_15" x="350" y="-350"/><use xlink:href="#L1_15" x="-350" y="0"/><use xlink:href="#L1_15" x="0" y="0"/><use xlink:href="#L1_15" x="350" y="0"/><use xlink:href="#L1_15" x="-350" y="350"/><use xlink:href="#L1_15" x="0" y="350"/><use xlink:href="#L1_15" x="350" y="350"/></pattern><rect x="0" y="0" width="100%" height="100%" fill="url(#pattern_L1_15)"/></g><g fi:class="KUsePattern"><pattern id="pattern_L1_16" width="350" height="350" patternUnits="userSpaceOnUse"><use xlink:href="#L1_16" x="-350" y="-350"/><use xlink:href="#L1_16" x="0" y="-350"/><use xlink:href="#L1_16" x="350" y="-350"/><use xlink:href="#L1_16" x="-350" y="0"/><use xlink:href="#L1_16" x="0" y="0"/><use xlink:href="#L1_16" x="350" y="0"/><use xlink:href="#L1_16" x="-350" y="350"/><use xlink:href="#L1_16" x="0" y="350"/><use xlink:href="#L1_16" x="350" y="350"/></pattern><rect x="0" y="0" width="100%" height="100%" fill="url(#pattern_L1_16)"/></g><g fi:class="KUsePattern"><pattern id="pattern_L1_17" width="350" height="350" patternUnits="userSpaceOnUse"><use xlink:href="#L1_17" x="-350" y="-350"/><use xlink:href="#L1_17" x="0" y="-350"/><use xlink:href="#L1_17" x="350" y="-350"/><use xlink:href="#L1_17" x="-350" y="0"/><use xlink:href="#L1_17" x="0" y="0"/><use xlink:href="#L1_17" x="350" y="0"/><use xlink:href="#L1_17" x="-350" y="350"/><use xlink:href="#L1_17" x="0" y="350"/><use xlink:href="#L1_17" x="350" y="350"/></pattern><rect x="0" y="0" width="100%" height="100%" fill="url(#pattern_L1_17)"/></g><g fi:class="KUsePattern"><pattern id="pattern_L1_18" width="350" height="350" patternUnits="userSpaceOnUse"><use xlink:href="#L1_18" x="-350" y="-350"/><use xlink:href="#L1_18" x="0" y="-350"/><use xlink:href="#L1_18" x="350" y="-350"/><use xlink:href="#L1_18" x="-350" y="0"/><use xlink:href="#L1_18" x="0" y="0"/><use xlink:href="#L1_18" x="350" y="0"/><use xlink:href="#L1_18" x="-350" y="350"/><use xlink:href="#L1_18" x="0" y="350"/><use xlink:href="#L1_18" x="350" y="350"/></pattern><rect x="0" y="0" width="100%" height="100%" fill="url(#pattern_L1_18)"/></g><g fi:class="KUsePattern"><pattern id="pattern_L1_19" width="350" height="350" patternUnits="userSpaceOnUse"><use xlink:href="#L1_19" x="-350" y="-350"/><use xlink:href="#L1_19" x="0" y="-350"/><use xlink:href="#L1_19" x="350" y="-350"/><use xlink:href="#L1_19" x="-350" y="0"/><use xlink:href="#L1_19" x="0" y="0"/><use xlink:href="#L1_19" x="350" y="0"/><use xlink:href="#L1_19" x="-350" y="350"/><use xlink:href="#L1_19" x="0" y="350"/><use xlink:href="#L1_19" x="350" y="350"/></pattern><rect x="0" y="0" width="100%" height="100%" fill="url(#pattern_L1_19)"/></g><g fi:class="KUsePattern"><pattern id="pattern_L1_20" width="350" height="350" patternUnits="userSpaceOnUse"><use xlink:href="#L1_20" x="-350" y="-350"/><use xlink:href="#L1_20" x="0" y="-350"/><use xlink:href="#L1_20" x="350" y="-350"/><use xlink:href="#L1_20" x="-350" y="0"/><use xlink:href="#L1_20" x="0" y="0"/><use xlink:href="#L1_20" x="350" y="0"/><use xlink:href="#L1_20" x="-350" y="350"/><use xlink:href="#L1_20" x="0" y="350"/><use xlink:href="#L1_20" x="350" y="350"/></pattern><rect x="0" y="0" width="100%" height="100%" fill="url(#pattern_L1_20)"/></g><g fi:class="KUsePattern"><pattern id="pattern_L1_21" width="350" height="350" patternUnits="userSpaceOnUse"><use xlink:href="#L1_21" x="-350" y="-350"/><use xlink:href="#L1_21" x="0" y="-350"/><use xlink:href="#L1_21" x="350" y="-350"/><use xlink:href="#L1_21" x="-350" y="0"/><use xlink:href="#L1_21" x="0" y="0"/><use xlink:href="#L1_21" x="350" y="0"/><use xlink:href="#L1_21" x="-350" y="350"/><use xlink:href="#L1_21" x="0" y="350"/><use xlink:href="#L1_21" x="350" y="350"/></pattern><rect x="0" y="0" width="100%" height="100%" fill="url(#pattern_L1_21)"/></g></svg>