<svg xmlns="http://www.w3.org/2000/svg" xmlns:xlink="http://www.w3.org/1999/xlink" xmlns:fi="http://pattern.flaticon.com/" x="0" y="0" width="700" height="350" viewBox="0 0 700 350"><rect x="0px" y="0px" width="100%" height="100%" opacity="0" fill="#9fb4a3"/><defs><g transform="matrix(1.4067085992277215 -1.167833566850771 1.167833566850771 1.4067085992277215 166.3209877861266 247.21574484611816)" id="L1_86" fill="#000000"><path d="m26 15c.5522847 0 1-.4477153 1-1v-2c0-.5522847-.4477153-1-1-1s-1 .4477153-1 1v2c0 .5522847.4477153 1 1 1z" id="L1_78" fill="#f6e497"/><path d="m22.334 20.6c.5140664-.1889931.780449-.7563535.5975023-1.2726027-.1829466-.5162491-.7471415-.7892723-1.2655023-.6123973-1.3790221.4799844-2.8982976.3395809-4.166-.385-.4748504-.2484017-1.0611063-.0783237-1.3292932.3856398-.268187.4639634-.1229594 1.0568642.3292932 1.3443602 1.7727151 1.0249258 3.9053211 1.2222539 5.836.54z" id="L1_79" fill="#f6e497"/><path d="m20 17c1.6568542 0 3-1.3431458 3-3s-1.3431458-3-3-3-3 1.3431458-3 3 1.3431458 3 3 3zm0-4c.5522847 0 1 .4477153 1 1s-.4477153 1-1 1-1-.4477153-1-1 .4477153-1 1-1z" id="L1_80" fill="#f6e497"/><path d="m34.5 18.33c-1.2671645.7239832-2.7855741.8643741-4.164.385-.5183608-.176875-1.0825557.0961482-1.2655023.6123973-.1829467.5162492.0834359 1.0836096.5975023 1.2726027 1.9306789.6822539 4.0632849.4849258 5.836-.54.3254784-.1702629.5314125-.5052613.5363839-.8725499s-.1918202-.7077381-.5125711-.886748c-.3207508-.1790098-.7138237-.1677615-1.0238128.0292979z" id="L1_81" fill="#f6e497"/><path d="m32 17c1.6568542 0 3-1.3431458 3-3s-1.3431458-3-3-3-3 1.3431458-3 3 1.3431458 3 3 3zm0-4c.5522847 0 1 .4477153 1 1s-.4477153 1-1 1-1-.4477153-1-1 .4477153-1 1-1z" id="L1_82" fill="#f6e497"/><path d="m23.975 41c.0979976.0081329.1948656.026568.289.055-.4038831.4326258-.7717718.8975033-1.1 1.39-.306518.4595009-.1825009 1.0804819.277 1.387.4595009.306518 1.080482.1825009 1.387-.277.3376885-.5146757.7306952-.9908443 1.172-1.42.4399067.4293648.8315656.9055256 1.168 1.42.1982824.297245.5400812.4661283.8966441.4430332s.6737195-.2346599.832-.555.1336383-.7007882-.0646441-.9980332c-.3278948-.4924262-.6958061-.9569979-1.1-1.389.0947333-.0275681.1918135-.0463146.29-.056.5522847-.0060751.9950751-.4587153.989-1.011s-.4587153-.9950751-1.011-.989c-.7097381.0432811-1.3973296.2636542-2 .641-.6026704-.3773458-1.2902619-.5977189-2-.641-.5392892.001046-.9778979.4347565-.985.974-.0082514.544619.4160348.9980749.96 1.026z" id="L1_83" fill="#f6e497"/><path d="m2 49.816v2.184c0 1.1045695.8954305 2 2 2h4c1.1045695 0 2-.8954305 2-2v-2.184c1.1943509-.4222546 1.9947486-1.5492146 2-2.816v-4c-.0001714-.579819-.1016995-1.1551449-.3-1.7l4.34-.292c.0732701.7534047.2898195 1.485871.638 2.158-1.5786572 2.3241209-2.5035912 5.0298463-2.678 7.834-.0001037.4306074.2754572.8129281.684.949.025.008.169.052.377.1-.0816441 1.2988531-.0776354 2.6016739.012 3.9.1206731 2.0815431 1.7108781 3.7798652 3.78 4.037.1286488.0117104.2578413.016384.387.014 1.6051591-.009638 3.0644475-.9333365 3.76-2.38.6258901-1.3195684 1.0602688-2.7217022 1.29-4.164.2951345.4461511.6298174.8648394 1 1.251.3904999.3903819 1.0235001.3903819 1.414 0 .3701826-.3861606.7048655-.8048489 1-1.251.2295706 1.4400373.6629154 2.8400742 1.287 4.158.6952595 1.4519088 2.1592263 2.3786864 3.769 2.386.1311729.0019369.2623564-.0030701.393-.015 2.0659008-.2592026 3.6528048-1.9554322 3.774-4.034.0894995-1.298331.0935082-2.6011429.012-3.9.208-.05.352-.093.377-.1.4092423-.1363037.6849662-.5196567.684-.951-.173388-2.8042021-1.0972814-5.5102599-2.675-7.835.3478596-.6719718.5647142-1.4039834.639-2.157l6.825.46c.071 0 .141.007.211.007v13.525c0 .5522847.4477153 1 1 1s1-.4477153 1-1v-14.3c.6389478-.566522 1.0046711-1.379567 1.0046711-2.2335s-.3657233-1.666978-1.0046711-2.2335v-22.412c1.9245271-.8206977 3.1254261-2.7625514 3-4.851 0-1.737-1.437-5.343-2.642-8.06-.2264511-.55015559-.7625619-.90923551-1.3575-.90923551s-1.1310489.35907992-1.3575.90923551c-1.206 2.717-2.643 6.323-2.643 8.06-.1254261 2.0884486 1.0754729 4.0303023 3 4.851v21.6l-7.384-1.361c-.1463091-.0222015-.2940201-.0338981-.442-.035-.1917007-.8145167-.4253453-1.6185879-.7-2.409 3.0331154-3.8812469 4.6319931-8.6913039 4.526-13.616 0-9.925-5.832-18-13-18s-13 8.075-13 18c-.1071316 4.9242117 1.4903161 9.7342181 4.522 13.616-.2743824.7901603-.5080232 1.5938845-.7 2.408-.1429361.0008541-.28563.011882-.427.033l-7.938 1.459c-1.24722763.2360979-2.21171896 1.2302043-2.41 2.484h-1.047c-2.76005315.0033061-4.99669388 2.2399468-5 5v4c.00525139 1.2667854.80564914 2.3937454 2 2.816zm2 2.184v-2h4v2zm22-16c2.5612823-.0478824 5.0161535-1.0330329 6.9-2.769.3546286 1.2017255.6196882 2.4280856.793 3.669.07.445.13.91.175 1.412.061.586.105 1.2.131 1.846.0425151.7682272-.1306748 1.5330337-.5 2.208-.0526481.0898109-.1107573.1763067-.174.259-.015.022-.03.042-.043.065-.0949317.1247279-.2006744.2408441-.316.347-1.4378286 1.1227187-3.1862399 1.7759291-5.008 1.871-1.3000972.1230007-2.6089028.1230007-3.909 0-1.8223022-.0945701-3.5714031-.7474281-5.01-1.87-.116479-.1066977-.222925-.2238552-.318-.35-.012-.021-.026-.04-.04-.06-.0662653-.0874883-.1270484-.1789968-.182-.274-.3655919-.6732377-.5359867-1.4351656-.492-2.2.026-.639.07-1.256.133-1.858.043-.486.1-.951.174-1.41.1733135-1.2362315.438039-2.457913.792-3.655 1.8823091 1.7346074 4.3347978 2.7196584 6.894 2.769zm-6.76 22c-.065 0-.126 0-.186 0-1.1072853-.1613714-1.9423627-1.0889084-1.987-2.207-.081786-1.1824401-.0864626-2.368952-.014-3.552.7544859-.0210654 1.4973762-.1909854 2.186-.5.174515.7378562.5377088 1.4177247 1.054 1.973.1886329.184985.4428058.2878046.707.286.4037544-.0182164.8031211-.0915626 1.187-.218-.2006359 1.0178509-.5271442 2.0067815-.972 2.944-.36093.767062-1.1273579 1.2614565-1.975 1.274zm15.693-2.208c-.0428766 1.1168482-.8753252 2.0446859-1.981 2.208-.0435382.0041242-.0872741.0057935-.131.005-.8670025-.0068591-1.6559914-.5021538-2.039-1.28-.4433437-.9354576-.7688331-1.9223388-.969-2.938.3841169.1247386.783478.1964016 1.187.213.2651948-.0000566.5195073-.1054506.707-.293.5162912-.5552753.879485-1.2351438 1.054-1.973.6891085.3086184 1.4322455.4785171 2.187.5.071835 1.1850796.0668245 2.3735682-.015 3.558zm-2.226-6.5c-.2861229-.2860368-.7164079-.3714873-1.0901167-.2164868-.3737088.1550004-.6172016.5199089-.6168833.9244868-.0114048.6682673-.1626519 1.3267372-.444 1.933-.728915-.1924743-1.3352373-.6977429-1.656-1.38-.187968-.3152706-.5279475-.5083906-.895-.5083906s-.707032.19312-.895.5083906c-.3296386.6438549-.7004061 1.2658091-1.11 1.862-.4059079-.5969782-.7733207-1.2192417-1.1-1.863-.1691635-.3394145-.5157659-.5539339-.895-.5539339s-.7258365.2145194-.895.5539339c-.3258751.6798243-.9339135 1.1821964-1.663 1.374-.2810429-.6040233-.4332719-1.2599363-.447-1.926-.0000863-.4043959-.2437275-.7689341-.6173454-.923678-.373618-.1547439-.8036603-.0692299-1.0896546.216678-.8846904.7888204-2.0846886 1.1237123-3.25.907.2849502-1.9200495.9605261-3.7612915 1.985-5.41 1.695943 1.2434835 3.7123286 1.9756421 5.811 2.11 1.4383959.1373364 2.8866041.1373364 4.325 0 2.0973498-.1339321 4.1126216-.8650233 5.808-2.107 1.0244739 1.6487085 1.7000498 3.4899505 1.985 5.41-1.1657257.2146662-2.3652451-.1211992-3.25-.91zm9.293-40.322c.3735638-2.14039476 1.0468485-4.21747807 2-6.17.9532876 1.95246697 1.6265786 4.02956991 2 6.17 0 1.642-.916 3.03-2 3.03s-2-1.388-2-3.03zm1.182 28.514c.4970695.0979581.8460105.547145.818 1.053-.0147395.2680743-.1372936.518786-.339776.6950869-.2024823.1763009-.4676711.2631961-.735224.2409131l-7-.471c-.023-.3-.047-.6-.078-.882-.046-.532-.113-1.041-.186-1.513-.025-.177-.06-.346-.088-.521zm-18.182-35.41v4.926c0 .55228475.4477153 1 1 1s1-.44771525 1-1v-4.926c5.6.738 10 7.6 10 15.926s-4.4 15.188-10 15.926v-15.926c0-.5522847-.4477153-1-1-1s-1 .4477153-1 1v15.926c-5.6-.738-10-7.6-10-15.926s4.4-15.188 10-15.926zm-16.18 35.409 7.6-1.4c-.027.17-.062.335-.086.507-.075.486-.142.995-.187 1.511-.03.286-.042.6-.064.9l-7.015.472c-.54872622.0390189-1.0259267-.3724995-1.068-.921-.03392071-.5116997.31698877-.9691658.82-1.069zm-6.82 5.517c0-1.6568542 1.34314575-3 3-3h1.43c.53541361.9079047 1.50800844 1.4682286 2.562 1.476.07 0 .143 0 .215-.008l.348-.024c.29172422.4664913.445962 1.0058035.445 1.556v4c0 .5522847-.44771525 1-1 1h-6c-.55228475 0-1-.4477153-1-1z" id="L1_87" fill="#f6e497"/><circle cx="4" cy="44" r="1" id="L1_84" fill="#f6e497"/><circle cx="8" cy="44" r="1" id="L1_94" fill="#f6e497"/></g><g transform="matrix(0.23772606253623962 0 0 0.23772606253623962 55.142127990722656 189.14212799072266)" id="L1_97"><path d="m192.667 486.208c-75.901-26.799-126.897-98.914-126.897-179.448v-101.53c0-104.893 85.336-190.23 190.23-190.23 50.82 0 98.593 19.789 134.517 55.723 6.721 6.721 12.968 13.975 18.57 21.562 2.461 3.332 7.155 4.038 10.488 1.579 3.332-2.46 4.039-7.156 1.578-10.489-6.044-8.186-12.783-16.011-20.029-23.258-38.757-38.767-90.296-60.117-145.124-60.117-113.164 0-205.23 92.066-205.23 205.23v101.53c0 86.882 55.018 164.681 136.903 193.592.826.292 1.668.43 2.497.43 3.091 0 5.984-1.925 7.072-5.005 1.379-3.906-.67-8.191-4.575-9.569z" fill="#faf4af"/><path d="m440.062 114.364c-1.837-3.712-6.335-5.232-10.048-3.397-3.713 1.837-5.233 6.335-3.397 10.048 13.015 26.308 19.613 54.642 19.613 84.214v101.53c0 104.9-85.336 190.241-190.23 190.241-10.302 0-20.639-.832-30.726-2.473-4.1-.665-7.941 2.111-8.606 6.199s2.109 7.942 6.198 8.607c10.881 1.77 22.029 2.667 33.134 2.667 113.164 0 205.23-92.07 205.23-205.24v-101.53c0-31.9-7.122-62.472-21.168-90.866z" fill="#faf4af"/><path d="m108.915 226.181c-2.76 12.559 2.08 25.635 12.328 33.312 12.989 9.733 28.452 14.878 44.717 14.878 16.271 0 31.738-5.145 44.727-14.876 8.324-6.234 13.099-15.785 13.099-26.204s-4.774-19.969-13.094-26.2c-12.977-9.735-28.444-14.88-44.731-14.88-9.599 0-18.939 1.796-27.765 5.34-3.844 1.543-5.708 5.911-4.165 9.754 1.544 3.845 5.914 5.707 9.755 4.166 7.039-2.827 14.5-4.26 22.175-4.26 13.016 0 25.37 4.108 35.734 11.883 4.507 3.375 7.091 8.549 7.091 14.197s-2.584 10.822-7.092 14.198c-10.374 7.773-22.73 11.882-35.733 11.882-12.996 0-25.349-4.109-35.724-11.882-5.638-4.224-8.194-11.155-6.671-18.088.889-4.045-1.67-8.046-5.716-8.935-4.044-.89-8.046 1.669-8.935 5.715z" fill="#faf4af"/><path d="m390.761 259.494c8.322-6.235 13.095-15.787 13.095-26.206 0-10.418-4.772-19.97-13.095-26.205-12.987-9.731-28.452-14.875-44.724-14.875-16.271 0-31.736 5.144-44.725 14.875-8.322 6.235-13.095 15.787-13.095 26.205 0 10.419 4.772 19.97 13.095 26.206 12.989 9.731 28.455 14.875 44.725 14.875 16.271 0 31.735-5.144 44.724-14.875zm-87.543-26.206c0-5.649 2.584-10.825 7.089-14.2 10.373-7.771 22.729-11.879 35.73-11.879 13.003 0 25.357 4.108 35.729 11.879 4.505 3.375 7.089 8.551 7.089 14.2s-2.584 10.826-7.089 14.202c-10.372 7.771-22.728 11.879-35.729 11.879s-25.357-4.108-35.73-11.879c-4.505-3.376-7.089-8.552-7.089-14.202z" fill="#faf4af"/><path d="m197.48 430.663c16.993 12.732 37.229 19.462 58.52 19.462s41.526-6.73 58.52-19.462c10.521-7.883 16.556-19.959 16.556-33.133s-6.034-25.25-16.556-33.133c-16.993-12.732-37.229-19.462-58.52-19.462s-41.526 6.73-58.52 19.462c-10.521 7.883-16.557 19.96-16.557 33.134s6.036 25.249 16.557 33.132zm108.045-12.005c-14.378 10.773-31.504 16.467-49.525 16.467s-35.147-5.694-49.525-16.467c-5.975-4.477-9.671-11.082-10.407-18.415 1.283-.516 3.524-1.229 7.25-1.903 15.231-2.77 33.449-4.233 52.683-4.233s37.451 1.464 52.688 4.234c3.721.674 5.96 1.386 7.243 1.901-.736 7.334-4.432 13.94-10.407 18.416zm-42.025-39.478v-18.902c5.618.5 11.118 1.565 16.445 3.172v16.42c-5.354-.348-10.848-.582-16.445-.69zm-15 0c-5.597.108-11.091.343-16.445.69v-16.42c5.327-1.606 10.827-2.671 16.445-3.172zm63.716 4.559c-.306-.057-.594-.109-.849-.156-5.18-.942-10.679-1.739-16.421-2.39v-11.531c3.661 1.964 7.199 4.205 10.58 6.738 2.729 2.045 4.974 4.539 6.69 7.339zm-105.741-7.339c3.381-2.533 6.919-4.775 10.58-6.738v11.531c-5.74.65-11.237 1.447-16.415 2.389-.257.046-.547.1-.856.157 1.715-2.8 3.961-5.294 6.691-7.339z" fill="#faf4af"/><path d="m188.411 149.134h-64.104c-4.143 0-7.5 3.358-7.5 7.5s3.357 7.5 7.5 7.5h64.104c22.656 0 41.088 18.432 41.088 41.088v108.556c0 14.612 11.889 26.5 26.501 26.5s26.501-11.888 26.501-26.5v-108.556c0-22.656 18.432-41.088 41.088-41.088h64.104c4.143 0 7.5-3.358 7.5-7.5s-3.357-7.5-7.5-7.5h-64.104c-30.927 0-56.088 25.161-56.088 56.088v108.556c0 6.341-5.159 11.5-11.501 11.5s-11.501-5.159-11.501-11.5v-108.556c0-30.927-25.161-56.088-56.088-56.088z" fill="#faf4af"/><path d="m373.522 94.765c1.739 0 3.486-.602 4.904-1.829 3.133-2.71 3.475-7.447.765-10.579l-.354-.41c-2.712-3.133-7.448-3.474-10.579-.764-3.133 2.71-3.475 7.447-.765 10.579l.354.41c1.484 1.715 3.574 2.593 5.675 2.593z" fill="#faf4af"/><path d="m336.395 87.326c-3.133 2.71-3.475 7.447-.765 10.579l.354.41c1.483 1.714 3.573 2.592 5.675 2.592 1.739 0 3.486-.602 4.904-1.829 3.133-2.71 3.475-7.447.765-10.579l-.354-.41c-2.711-3.132-7.449-3.473-10.579-.763z" fill="#faf4af"/><path d="m349.229 73.975c1.483 1.714 3.573 2.592 5.675 2.592 1.739 0 3.486-.602 4.904-1.829 3.133-2.71 3.475-7.447.765-10.579l-.354-.41c-2.712-3.133-7.448-3.474-10.579-.764-3.133 2.71-3.475 7.447-.765 10.579z" fill="#faf4af"/></g><g transform="matrix(0.2399057149887085 0 0 0.2399057149887085 115.93077662635164 60.584136962890625)" id="L1_98"><circle cx="306" cy="502" r="10" fill="#fcfae1"/><path d="m433.361 277.14c-6.291-6.25-13.231-11.936-20.928-16.249 2.04-7.82 3.517-14.661 3.567-20.721v-.25c-.101-5.79-1.49-11.96-3.55-19.44-1.608-5.688-3.598-11.744-5.661-17.588 10.706-12.298 17.211-28.345 17.211-45.892 0-8.962-1.711-17.526-4.794-25.409 13.007-6.697 21.794-20.303 21.794-35.591 0-22.056-17.944-40-40-40-1.694 0-3.361.118-5 .324v-46.324c0-2.63-1.07-5.21-2.931-7.07-1.859-1.86-4.439-2.93-7.069-2.93h-260c-2.63 0-5.21 1.07-7.07 2.93s-2.93 4.44-2.93 7.07v46.324c-1.639-.206-3.306-.324-5-.324-22.056 0-40 17.944-40 40 0 15.288 8.788 28.894 21.794 35.591-3.083 7.883-4.794 16.447-4.794 25.409 0 17.548 6.505 33.596 17.212 45.895-2.314 6.552-4.213 12.455-5.662 17.585-2.06 7.47-3.45 13.64-3.55 19.44v.01.2.04c.05 6.07 1.529 12.899 3.569 20.719-7.699 4.314-14.638 9.999-20.93 16.25-19.717 19.592-30.139 46.689-30.139 78.361 0 31.713 10.404 58.964 30.088 78.809 10.372 10.457 23.105 18.385 37.412 23.49v44.201c0 2.63 1.07 5.21 2.93 7.07s4.44 2.93 7.07 2.93h135.21c5.51 0 9.99-4.49 9.99-10s-4.471-9.99-9.98-10h-.01-125.21v-29.089c6.474 1.049 13.158 1.589 20 1.589 12.147 0 25.247-3.558 40.415-7.677 17.814-4.839 38.005-10.323 59.585-10.323 19.481 0 39.756 5.354 57.644 10.078 15.429 4.074 30.001 7.922 42.356 7.922 6.842 0 13.526-.54 20-1.589v29.089h-24.79c-5.521 0-10 4.49-10 10s4.479 10 10 10h34.79c2.63 0 5.21-1.07 7.069-2.93 1.86-1.86 2.931-4.44 2.931-7.07v-44.202c14.307-5.104 27.04-13.033 37.412-23.49 19.684-19.844 30.088-47.096 30.088-78.809 0-31.671-10.422-58.768-30.139-78.359zm-32.361-201.14c11.028 0 20 8.972 20 20 0 7.954-4.755 14.991-11.687 18.176-7.292-9.397-16.909-16.904-27.995-21.622 1.641-9.388 9.831-16.554 19.682-16.554zm-69.215 147.365c6.985 2.345 14.45 3.635 22.215 3.635 13.32 0 25.782-3.743 36.393-10.228 1.389 4.23 2.542 8.069 3.437 11.438 1.29 4.77 2.17 9.59 2.17 11.78v.01.17c.044 2.397-.852 7.556-2.228 13.027-11.617-3.766-24.285-5.697-37.772-5.697-6.723 0-14.042 1.186-22.009 2.994 1.328-3.365 2.009-6.875 2.009-10.494 0-6.017-1.529-11.684-4.215-16.635zm22.215-16.365c-24.156 0-44.363-17.219-48.999-40.026 0 0-1.001-9.107-1.001-9.974 0-27.57 22.43-50 50-50s50 22.43 50 50-22.43 50-50 50zm-175.889 43.518c-8.006-1.821-15.359-3.018-22.111-3.018-13.487 0-26.155 1.931-37.771 5.697-.025-.101-.054-.207-.079-.307-1.32-5.2-2.19-10.31-2.15-12.72v-.09c-.04-2.48 1.11-8.31 2.8-14.18.828-2.94 1.791-6.027 2.809-9.126 10.611 6.484 23.072 10.226 36.391 10.226 7.765 0 15.23-1.29 22.215-3.635-2.686 4.951-4.215 10.618-4.215 16.635 0 3.16.547 6.742 2.111 10.518zm-20.111-43.518c-27.57 0-50-22.43-50-50s22.43-50 50-50 50 22.43 50 50c0 .866-1.002 9.978-1.002 9.978-4.637 22.806-24.844 40.022-48.998 40.022zm-7-126c0-11.028 8.972-20 20-20s20 8.972 20 20c0 4.467-1.514 8.763-4.193 12.228-8.793-3.988-18.541-6.228-28.807-6.228-2.017 0-4.01.105-5.984.273-.665-2.007-1.016-4.116-1.016-6.273zm55 25c0-11.028 8.972-20 20-20s20 8.972 20 20-8.972 20-20 20c-1.952 0-3.853-.278-5.683-.821-3.666-7.15-8.522-13.588-14.312-19.054 0-.042-.005-.083-.005-.125zm2.058 119.293 16.942 12.707c1.799 1.349 3.904 2 5.992 2 3.04 0 6.043-1.381 8.008-4 3.314-4.418 2.418-10.686-2-14l-15.349-11.512 8.185-64.676c10.388-.993 19.624-5.978 26.164-13.397 6.54 7.419 15.776 12.403 26.164 13.397l8.185 64.676-15.349 11.512c-4.418 3.314-5.313 9.582-2 14 1.965 2.62 4.967 4 8.008 4 2.088 0 4.193-.651 5.992-2l16.942-12.707c6.867 1.372 12.058 7.443 12.058 14.707 0 5.903-6.688 12.242-18.352 17.391-11.206 4.948-28.442 8.149-41.437 8.564-24.592-.818-60.211-13.803-60.211-25.955 0-7.264 5.191-13.335 12.058-14.707zm57.942-119.293c0-11.028 8.972-20 20-20s20 8.972 20 20c0 .042-.005.083-.005.125-5.79 5.466-10.646 11.904-14.312 19.054-1.83.543-3.731.821-5.683.821-11.028 0-20-8.972-20-20zm55-25c0-11.028 8.972-20 20-20s20 8.972 20 20c0 2.157-.351 4.266-1.015 6.273-1.975-.168-3.967-.273-5.985-.273-10.266 0-20.014 2.24-28.806 6.228-2.68-3.465-4.194-7.761-4.194-12.228zm-185-61h240v41.663c-6.828-12.31-19.955-20.663-35-20.663-18.112 0-33.442 12.104-38.349 28.645-5.073-2.333-10.71-3.645-16.651-3.645-11.938 0-22.665 5.264-30 13.585-7.335-8.321-18.062-13.585-30-13.585-5.941 0-11.578 1.312-16.651 3.645-4.907-16.541-20.237-28.645-38.349-28.645-15.046 0-28.172 8.353-35 20.662zm-33.313 94.175c-6.933-3.184-11.687-10.221-11.687-18.175 0-11.028 8.972-20 20-20 9.851 0 18.041 7.166 19.682 16.554-11.087 4.717-20.703 12.224-27.995 21.621zm-3.104 146.765c.007.029.006.023 0 0zm256.417 183.56c-9.76 0-23.112-3.526-37.25-7.259-19.063-5.035-40.672-10.741-62.75-10.741-24.248 0-45.807 5.855-64.828 11.022-13.786 3.744-25.692 6.978-35.172 6.978-52.336 0-87.5-35.767-87.5-89 0-53.458 34.346-88 87.5-88 9.26 0 22.457 3.565 36.428 7.34 19.361 5.231 42.979 11.132 65.245 11.132 21.113-.549 43.509-6.164 61.899-11.132 13.972-3.775 27.168-7.34 36.428-7.34 53.154 0 87.5 34.542 87.5 88 0 53.233-35.163 89-87.5 89z" fill="#fcfae1"/><path d="m356 288c-9.66 0-24.621 3.697-41.944 7.979-19.956 4.931-42.576 10.521-58.056 10.521s-38.099-5.59-58.056-10.521c-17.323-4.282-32.284-7.979-41.944-7.979-37.22 0-67.5 30.28-67.5 67.5s30.28 67.5 67.5 67.5c9.738 0 24.034-3.227 40.586-6.962 19.807-4.471 42.255-9.538 59.414-9.538 15.479 0 37.834 4.944 57.558 9.306 17.456 3.86 32.531 7.194 42.442 7.194 37.22 0 67.5-30.28 67.5-67.5s-30.28-67.5-67.5-67.5zm46.634 58.5h-26.634v-34.069c13.602 6.342 23.719 18.936 26.634 34.069zm-46.634 0h-35v-31.636c14.58-3.599 28.112-6.864 35-6.864zm-55 46.12c-12.01-2.504-24.165-4.717-35-5.648v-20.472h35zm-90-26.12h35v20.426c-11.146.87-23.175 3.001-35 5.467zm0-46.789c12.032 2.789 24.175 5.237 35 6.266v20.523h-35zm55 26.789v-20.523c10.825-1.029 22.968-3.477 35-6.266v26.789zm-75-31.635v31.635h-35v-38.5c6.888 0 20.421 3.265 35 6.865zm-55-2.434v34.069h-26.634c2.915-15.133 13.032-27.727 26.634-34.069zm-26.2 54.069h26.2v32.069c-12.998-6.06-22.81-17.83-26.2-32.069zm46.2 0h35v30.295c-14.303 3.227-27.692 6.205-35 6.205zm165 30.468v-30.468h35v36.5c-7.208 0-20.547-2.843-35-6.032zm55 1.601v-32.069h26.2c-3.39 14.239-13.202 26.009-26.2 32.069z" fill="#fcfae1"/><path d="m188 157c0-16.542-13.458-30-30-30s-30 13.458-30 30 13.458 30 30 30 30-13.458 30-30zm-40 0c0-5.514 4.486-10 10-10s10 4.486 10 10-4.486 10-10 10-10-4.486-10-10z" fill="#fcfae1"/><path d="m354 127c-16.542 0-30 13.458-30 30s13.458 30 30 30 30-13.458 30-30-13.458-30-30-30zm0 40c-5.514 0-10-4.486-10-10s4.486-10 10-10 10 4.486 10 10-4.486 10-10 10z" fill="#fcfae1"/></g><g transform="matrix(0.26331518586279595 0.17554345568373197 -0.17554345568373197 0.26331518586279595 75.24573202884547 -46.34882611148228)" id="L1_99"><path d="M97.158,402.851c0.717,0,1.434-0.275,1.984-0.822l50.721-50.715c1.093-1.084,1.093-2.878,0-3.962l-46.721-46.718    l48.767-48.769c1.086-1.084,1.086-2.867,0-3.961l-46.537-46.523l49.002-49.002c1.092-1.095,1.092-2.871,0-3.962l-46.715-46.72    l48.767-48.766c1.091-1.092,1.091-2.871,0-3.962l-48.15-48.148c-1.092-1.095-2.871-1.095-3.961,0c-1.092,1.09-1.092,2.867,0,3.961    l46.167,46.165l-48.739,48.736c-1.09,1.094-1.09,2.87,0,3.961c0.08,0.08,0.175,0.107,0.257,0.17    c0.096,0.134,0.153,0.285,0.271,0.402l46.166,46.172l-48.737,48.736c-0.696,0.695-0.898,1.653-0.715,2.545    c-0.016,0.738,0.25,1.482,0.808,2.041l46.167,46.183l-48.739,48.723c-1.085,1.096-1.085,2.879,0,3.963    c0.08,0.087,0.17,0.114,0.254,0.164c0.094,0.131,0.145,0.284,0.273,0.405l46.166,46.161l-48.731,48.728    c-1.092,1.095-1.092,2.884,0,3.962C95.716,402.585,96.441,402.851,97.158,402.851z" fill="#fcfae1"/><path d="M172.782,402.851c0.717,0,1.433-0.275,1.982-0.822l50.718-50.715c1.083-1.084,1.083-2.878,0-3.962l-46.712-46.718    l48.771-48.769c1.078-1.084,1.078-2.867,0-3.961L181,201.381l49.007-49.002c1.088-1.095,1.088-2.871,0-3.962l-46.715-46.714    l48.769-48.767c1.093-1.091,1.093-2.87,0-3.961L183.908,0.832c-1.09-1.094-2.875-1.094-3.961,0c-1.091,1.091-1.091,2.867,0,3.961    l46.165,46.165l-48.731,48.737c-1.092,1.094-1.092,2.87,0,3.961c0.074,0.074,0.161,0.101,0.246,0.164    c0.096,0.134,0.146,0.29,0.274,0.408l46.171,46.173l-48.735,48.736c-0.689,0.69-0.892,1.643-0.713,2.534    c-0.018,0.738,0.241,1.494,0.806,2.06l46.184,46.178l-48.766,48.721c-1.085,1.084-1.085,2.878,0,3.962    c0.08,0.076,0.17,0.115,0.248,0.153c0.101,0.131,0.152,0.295,0.28,0.405l46.164,46.174l-48.734,48.727    c-1.095,1.094-1.095,2.872,0,3.961C171.339,402.585,172.056,402.851,172.782,402.851z" fill="#fcfae1"/><path d="M248.409,402.851c0.729,0,1.441-0.275,1.983-0.822l50.726-50.715c1.093-1.084,1.093-2.878,0-3.962l-46.72-46.718    l48.765-48.769c1.094-1.084,1.094-2.867,0-3.961l-46.532-46.523l49.007-49.002c1.07-1.095,1.07-2.871,0-3.962l-46.732-46.72    l48.769-48.766c1.087-1.092,1.087-2.871,0-3.962L259.517,0.821c-1.094-1.095-2.883-1.095-3.961,0c-1.093,1.09-1.093,2.867,0,3.961    l46.155,46.165l-48.728,48.736c-1.094,1.094-1.094,2.87,0,3.961c0.079,0.08,0.159,0.107,0.263,0.17    c0.109,0.134,0.139,0.285,0.265,0.402l46.173,46.172l-48.746,48.736c-0.69,0.695-0.876,1.653-0.71,2.545    c-0.013,0.738,0.249,1.482,0.818,2.041l46.173,46.183l-48.742,48.723c-1.083,1.096-1.083,2.879,0,3.963    c0.075,0.087,0.164,0.114,0.249,0.164c0.102,0.131,0.134,0.284,0.274,0.405l46.173,46.161l-48.731,48.728    c-1.097,1.095-1.097,2.884,0,3.962C246.975,402.585,247.688,402.851,248.409,402.851z" fill="#fcfae1"/></g><g transform="matrix(0.30109344084880807 -0.08265310290402995 0.08265310290402995 0.30109344084880807 247.8563669203803 111.67765103830922)" id="L1_100"><path d="m168.113281 318.359375c7.953125-.167969 15.617188-3 21.765625-8.046875 6.664063-5.046875 8.625-14.210938 4.617188-21.546875-4.433594-9.792969-12.617188-17.394531-22.707032-21.101563-10.089843-3.703124-21.246093-3.203124-30.964843 1.390626-4.914063 1.882812-8.714844 5.882812-10.34375 10.886718-1.527344 4.742188-.828125 9.917969 1.902343 14.082032 6.363282 11.921874 17.46875 20.601562 30.574219 23.894531 1.703125.289062 3.425781.4375 5.15625.441406zm-21.394531-33.195313c.085938-.105468.203125-.183593.332031-.21875 5.824219-3.039062 12.652344-3.480468 18.816407-1.21875 6.164062 2.261719 11.089843 7.015626 13.570312 13.09375-3.761719 3.257813-8.707031 4.804688-13.65625 4.269532-8.167969-2.65625-14.996094-8.359375-19.0625-15.925782zm0 0" fill="#fcfae1"/><path d="m205.113281 273.074219c5-.039063 9.722657-2.3125 12.875-6.195313 9.242188-10.039062 13.855469-23.488281 12.722657-37.085937-.664063-12.21875-4.660157-24.023438-11.550782-34.132813-2.96875-4.925781-8.296875-7.933594-14.046875-7.933594s-11.078125 3.007813-14.046875 7.933594c-6.890625 10.109375-10.886718 21.914063-11.554687 34.132813-1.132813 13.597656 3.484375 27.050781 12.734375 37.085937 3.144531 3.886719 7.867187 6.160156 12.867187 6.195313zm0-67.6875c4.941407 7.246093 7.882813 15.664062 8.53125 24.40625.996094 9.5-1.988281 18.992187-8.242187 26.214843-6.691406-6.992187-9.925782-16.597656-8.824219-26.214843.652344-8.742188 3.59375-17.160157 8.535156-24.40625zm0 0" fill="#fcfae1"/><path d="m269.402344 269.054688c-9.71875-4.582032-20.871094-5.078126-30.960938-1.371094-10.085937 3.703125-18.269531 11.296875-22.714844 21.082031-4.011718 7.339844-2.042968 16.507813 4.625 21.554687 6.148438 5.042969 13.8125 7.871094 21.761719 8.039063 1.714844-.003906 3.429688-.152344 5.121094-.441406 13.105469-3.292969 24.207031-11.972657 30.566406-23.894531 2.734375-4.167969 3.4375-9.351563 1.910157-14.097657-1.625-4.988281-5.410157-8.984375-10.308594-10.871093zm-5.871094 15.667968c-3.945312 7.777344-10.820312 13.667969-19.113281 16.367188-4.929688.460937-9.847657-1.015625-13.707031-4.121094 3.539062-8.488281 11.683593-14.148438 20.875-14.507812 3.992187.089843 7.933593.921874 11.621093 2.457031l3.117188-7.945313zm0 0" fill="#fcfae1"/><path d="m256.3125 334.804688c-24.746094 0-35.773438-10.179688-40.292969-16.597657-1.101562-2.488281-2.371093-4.894531-3.808593-7.203125-.074219-.109375-.21875-.152344-.304688-.265625-.261719-.347656-.546875-.675781-.855469-.980469-.382812-.367187-.796875-.695312-1.246093-.980468-.472657-.335938-.976563-.621094-1.507813-.851563-.238281-.09375-.417969-.285156-.667969-.359375-.246094-.078125-.554687 0-.851562-.085937-.5625-.117188-1.132813-.175781-1.707032-.171875-.574218-.003906-1.144531.054687-1.707031.171875-.273437.058593-.546875 0-.851562.085937-.234375.109375-.464844.230469-.683594.367188-.527344.230468-1.03125.519531-1.503906.851562-.449219.300782-.875.640625-1.261719 1.015625-.308594.296875-.59375.617188-.851562.957031-.085938.109376-.222657.144532-.300782.253907-1.476562 2.390625-2.789062 4.878906-3.925781 7.449219-4.566406 6.394531-15.613281 16.351562-40.175781 16.351562-4.710938 0-8.53125 3.820312-8.53125 8.535156 0 4.710938 3.820312 8.53125 8.53125 8.53125 10.679687.207032 21.289062-1.75 31.191406-5.75-3.855469 18.054688-5.695312 36.484375-5.488281 54.945313-.097657 5.058593 1.316406 10.035156 4.0625 14.285156-7.429688 3.90625-12.222657 11.460937-12.59375 19.847656 0 14.363281 14.992187 25.601563 34.132812 25.601563s34.132813-11.238282 34.132813-25.601563c-.371094-8.386719-5.167969-15.941406-12.59375-19.847656 2.746094-4.25 4.160156-9.226563 4.058594-14.285156.175781-18.46875-1.699219-36.898438-5.585938-54.953125 9.902344 4 20.511719 5.953125 31.1875 5.75 4.714844 0 8.535156-3.820313 8.535156-8.535156 0-4.710938-3.820312-8.53125-8.535156-8.53125zm-51.199219 108.9375c-10.417969 0-17.066406-5.054688-17.066406-8.535157s6.648437-8.53125 17.066406-8.53125 17.066407 5.050781 17.066407 8.53125-6.648438 8.535157-17.066407 8.535157zm-8.535156-42.667969c-.410156-21.523438 2.46875-42.984375 8.535156-63.640625 6.0625 20.65625 8.941407 42.117187 8.53125 63.640625 0 4.710937-3.820312 8.53125-8.53125 8.53125-4.714843 0-8.535156-3.820313-8.535156-8.53125zm0 0" fill="#fcfae1"/><path d="m405.578125 1.109375c-2.355469-1.335937-5.207031-1.472656-7.679687-.367187-71.570313 31.8125-74.035157 92.773437-73.488282 107.824218l-13.203125 19.628906c-2.347656-3.984374-5-7.777343-7.933593-11.351562-.070313-.101562-.136719-.175781-.207032-.269531-10.082031-11.710938-22.667968-21-36.828125-27.179688-.265625-.132812-.535156-.25-.8125-.351562-38.5625-16.25-82.054687-16.25-120.617187 0-.292969.128906-.582032.222656-.855469.375-14.144531 6.179687-26.722656 15.457031-36.792969 27.15625-.078125.109375-.171875.195312-.242187.304687-2.929688 3.570313-5.578125 7.363282-7.925781 11.339844l-13.167969-19.539062c.46875-13.226563-1.558594-26.421876-5.972657-38.894532-11.667968-31.574218-36.230468-56.683594-67.539062-69.042968-2.472656-1.105469-5.316406-.96875-7.675781.359374-2.355469 1.328126-3.941407 3.695313-4.273438 6.378907-1.109375 14.34375.855469 28.753906 5.761719 42.277343 11.355469 30.710938 34.984375 55.3125 65.21875 67.890626l19.421875 28.75c-3.433594 10.59375-5.164063 21.667968-5.121094 32.808593 0 34.851563 5.640625 60.324219 17.066407 77.917969.128906 50.324219 7.308593 100.378906 21.335937 148.710938l-62.542969 92.867187c-1.765625 2.527344-2.03125 5.808594-.695312 8.585937 1.335937 2.78125 4.066406 4.621094 7.144531 4.820313 3.078125.195313 6.019531-1.28125 7.699219-3.867187l55.210937-81.917969c18.339844 50.484375 44.382813 85.683593 74.25 85.683593 29.867188 0 55.910157-35.199218 74.238281-85.691406l55.210938 81.917969c2.667969 3.820313 7.90625 4.792969 11.765625 2.1875 3.863281-2.601563 4.921875-7.824219 2.382813-11.726563l-62.574219-92.859374c14.039062-48.328126 21.234375-98.386719 21.375-148.710938 11.4375-17.59375 17.066406-43.066406 17.066406-77.917969.058594-11.136719-1.65625-22.210937-5.074219-32.808593l19.378906-28.75c79.121094-36.660157 71.03125-109.433594 70.960938-110.167969-.332031-2.679688-1.914062-5.042969-4.265625-6.371094zm-388.199219 21.238281c28.710938 14.558594 48.015625 42.753906 51.199219 74.785156-28.707031-14.558593-48.011719-42.753906-51.199219-74.785156zm270.6875 102.785156c2.757813 17.003907-.402344 34.441407-8.953125 49.398438-1.425781-1.757812-2.890625-3.457031-4.402343-5.121094-.386719-.515625-.835938-.984375-1.332032-1.398437-2.515625-2.675781-5.164062-5.226563-7.933594-7.636719 5.472657-15.375 8.121094-31.613281 7.804688-47.933594 5.4375 3.609375 10.414062 7.871094 14.816406 12.691406zm-33.1875-22.1875c2.515625 15.699219 1.175782 31.773438-3.898437 46.839844-3.570313-2.144531-7.277344-4.046875-11.09375-5.699218-.957031-.429688-1.894531-.855469-2.859375-1.257813-1.605469-.636719-3.21875-1.191406-4.847656-1.707031-.410157-.132813-.808594-.304688-1.21875-.433594 3.363281-14.253906 4.917968-28.875 4.625-43.519531 6.578124 1.394531 13.03125 3.328125 19.292968 5.785156zm-36.445312-8.414062c.601562 14.304688-.777344 28.621094-4.105469 42.546875-6.121094-.726563-12.308594-.726563-18.429687 0-3.328126-13.925781-4.710938-28.242187-4.105469-42.546875 4.46875-.394531 8.933593-.65625 13.320312-.65625s8.847657.261719 13.320313.664062zm-105.601563 110.933594c-1.085937 2.609375-2.089843 5.265625-3.011719 7.96875-.144531.425781-.273437.855468-.410156 1.289062-.851562 2.679688-1.707031 5.375-2.429687 8.132813-3.066407-14.34375-4.496094-28.984375-4.269531-43.648438-.027344-8.160156 1.054687-16.289062 3.210937-24.15625 2.632813 11.195313 6.820313 21.96875 12.441406 32.007813l1.75 3.414062c-2.601562 4.574219-4.914062 9.304688-6.929687 14.164063zm42.515625-102.484375c6.246094-2.46875 12.691406-4.414063 19.257813-5.820313-.292969 14.640625 1.261719 29.265625 4.625 43.519532-.410157.128906-.808594.296874-1.21875.433593-1.628907.539063-3.242188 1.09375-4.847657 1.707031-.964843.386719-1.902343.855469-2.859374 1.253907-3.820313 1.65625-7.523438 3.558593-11.09375 5.703125-5.058594-15.066406-6.386719-31.132813-3.863282-46.824219zm-18.375 9.488281c-.3125 16.316406 2.332032 32.554688 7.808594 47.929688-2.769531 2.414062-5.417969 4.960937-7.933594 7.636718-.5.417969-.945312.890625-1.332031 1.410156-1.511719 1.65625-2.980469 3.351563-4.402344 5.121094-8.550781-14.957031-11.710937-32.394531-8.953125-49.402344 4.398438-4.828124 9.375-9.101562 14.8125-12.722656zm68.140625 382.472656c-42.265625 0-85.332031-120.585937-85.332031-238.933594 0-.375 0-.734374.050781-1.109374v-.058594c.167969-20.121094 5.628907-39.839844 15.835938-57.175782 2.886719 16.53125 9.761719 32.113282 20.027343 45.390626 1.855469 2.449218 4.882813 3.710937 7.929688 3.304687 3.042969-.40625 5.636719-2.417969 6.785156-5.265625 1.148438-2.851562.679688-6.097656-1.230468-8.503906-12.027344-15.65625-18.492188-34.871094-18.382813-54.613282 14.09375-15.09375 33.671875-23.878906 54.316406-24.371093 20.640625.492187 40.210938 9.269531 54.304688 24.355469.113281 19.742187-6.355469 38.957031-18.378907 54.613281-1.910156 2.40625-2.382812 5.652343-1.234374 8.5 1.152343 2.851562 3.742187 4.859375 6.789062 5.265625 3.042969.40625 6.070312-.855469 7.925781-3.304688 10.265625-13.277344 17.140625-28.855468 20.027344-45.386718 10.210937 17.335937 15.671875 37.054687 15.839844 57.171874v.058594c0 .378906.050781.734375.050781 1.109375.007812 118.367188-43.058594 238.953125-85.324219 238.953125zm98.132813-272.113281c-.707032-2.753906-1.554688-5.453125-2.433594-8.128906-.136719-.429688-.261719-.855469-.40625-1.289063-.921875-2.710937-1.925781-5.367187-3.015625-7.972656l-.347656-.851562c-2.015625-4.859376-4.332031-9.589844-6.929688-14.164063l1.707031-3.414063c5.617188-10.039062 9.808594-20.8125 12.441407-32.007812 2.175781 7.882812 3.269531 16.027344 3.25 24.207031.230469 14.65625-1.203125 29.289063-4.265625 43.621094zm38.511718-125.769531c3.339844-31.875 22.5-59.929688 50.976563-74.632813-3.339844 31.875-22.5 59.925781-50.976563 74.632813zm0 0" fill="#fcfae1"/></g><path d="M0,112.399c0-5.523,4.478-10,10-10h67.895L43.765,68.27c-3.905-3.906-3.905-10.237,0-14.143  c3.908-3.905,10.238-3.905,14.143,0l51.199,51.199c3.905,3.905,3.905,10.237,0,14.142l-51.199,51.202  c-1.952,1.953-4.512,2.929-7.071,2.929s-5.118-0.976-7.071-2.929c-3.905-3.905-3.905-10.237,0-14.142l34.129-34.13H10  C4.478,122.399,0,117.922,0,112.399z M105.328,68.27c-3.905-3.905-3.905-10.237,0-14.142c3.906-3.905,10.236-3.906,14.143,0  l48.271,48.272h165.057V61.199c0-3.688,2.03-7.077,5.281-8.817c3.253-1.74,7.198-1.549,10.266,0.496l76.801,51.2  c2.782,1.854,4.453,4.977,4.453,8.32c0,3.343-1.671,6.466-4.453,8.32l-76.801,51.202c-3.921,2.316-7.421,2.212-10.266,0.497  c-3.158-1.904-5.281-5.129-5.281-8.817v-41.201H167.741l-48.271,48.272c-3.906,3.905-10.236,3.906-14.143,0  c-3.905-3.905-3.905-10.237,0-14.142l44.13-44.131L105.328,68.27z M352.799,144.915l48.773-32.517l-48.773-32.515V144.915z   M324.271,361.33c3.905,3.905,3.905,10.237,0,14.142c-1.953,1.952-4.513,2.929-7.071,2.929c-2.56,0-5.118-0.976-7.071-2.929  L261.858,327.2H96.801v41.201c0,3.688-2.03,7.077-5.281,8.817c-3.252,1.74-7.198,1.549-10.266-0.497L4.453,325.519  C1.671,323.665,0,320.542,0,317.199c0-3.344,1.671-6.466,4.453-8.32l76.801-51.2c3.067-2.045,7.014-2.237,10.266-0.497  c3.251,1.74,5.281,5.129,5.281,8.817V307.2h165.056l48.272-48.272c3.906-3.904,10.236-3.904,14.143,0  c3.905,3.905,3.905,10.237,0,14.143l-44.13,44.129L324.271,361.33z M76.801,284.684l-48.773,32.515l48.773,32.517V284.684z   M419.6,307.2h-67.894l34.13-34.13c3.905-3.905,3.905-10.237,0-14.143c-3.906-3.904-10.236-3.904-14.143,0l-51.2,51.201  c-3.905,3.905-3.905,10.236,0,14.142l51.2,51.202c1.953,1.953,4.512,2.929,7.071,2.929c2.559,0,5.118-0.977,7.071-2.929  c3.905-3.905,3.905-10.237,0-14.142l-34.129-34.13H419.6c5.522,0,10-4.477,10-10S425.122,307.2,419.6,307.2z" transform="matrix(0.13966479897499084 0 0 0.13966479897499084 55 128.00000051146776)" id="L1_101" fill="#ffffff"/><path d="m491.873 235.873h-64c-8.226 0-15.515-4.935-18.569-12.572-2.505-6.262-1.772-13.056 2.008-18.641 3.781-5.584 9.817-8.787 16.562-8.787h38c26.508-.983 26.488-39.026 0-40h-38c-15.191 0-29.587 5.728-40.526 15.756-12.15-18.937-28.293-35.08-47.23-47.23 10.028-10.939 15.756-25.335 15.756-40.526v-38c-.983-26.508-39.026-26.488-40 0v38c0 6.744-3.203 12.781-8.787 16.562-5.585 3.781-12.378 4.512-18.641 2.008-7.638-3.055-12.572-10.344-12.572-18.57v-64c-.983-26.508-39.026-26.488-40 0v64c0 8.226-4.935 15.515-12.572 18.57-6.263 2.503-13.057 1.772-18.641-2.008-5.584-3.781-8.787-9.817-8.787-16.562v-38c-.983-26.508-39.026-26.488-40 0v38c0 15.381 5.872 29.948 16.135 40.936-18.86 12.229-34.915 28.428-46.974 47.406-11.013-10.392-25.675-16.342-41.16-16.342h-38c-26.508.983-26.488 39.026 0 40h38c6.744 0 12.78 3.203 16.562 8.787 3.78 5.584 4.513 12.379 2.008 18.641-3.055 7.637-10.344 12.572-18.569 12.572h-64c-26.508.983-26.488 39.026 0 40h64c8.226 0 15.515 4.935 18.569 12.572 2.505 6.262 1.772 13.056-2.009 18.641-3.78 5.584-9.816 8.787-16.561 8.787h-38c-26.508.983-26.488 39.026 0 40h38c15.67 0 30.497-6.092 41.553-16.716 12.139 18.906 28.257 35.024 47.163 47.163-10.623 11.056-16.716 25.883-16.716 41.553v38c.983 26.508 39.026 26.488 40 0v-38c0-6.744 3.203-12.781 8.787-16.562 5.585-3.781 12.38-4.513 18.641-2.008 7.638 3.055 12.572 10.344 12.572 18.57v64c.983 26.508 39.026 26.488 40 0v-64c0-8.226 4.935-15.515 12.572-18.57 12.761-5.434 27.734 4.705 27.428 18.57v38c.983 26.508 39.026 26.488 40 0v-38c0-15.485-5.95-30.147-16.342-41.16 18.979-12.059 35.177-28.114 47.406-46.974 10.987 10.263 25.554 16.135 40.936 16.135h38c26.508-.983 26.488-39.026 0-40h-38c-6.744 0-12.78-3.203-16.561-8.787s-4.514-12.379-2.009-18.641c3.055-7.637 10.344-12.572 18.569-12.572h64c26.507-.984 26.487-39.027-.001-40.001zm-235.5 135c-63.687 0-115.5-51.813-115.5-115.5 5.807-153.016 225.216-152.974 231 .001 0 63.686-51.813 115.499-115.5 115.499zm30.5-115c0 16.569-13.431 30-30 30-39.752-1.471-39.741-58.535 0-60 16.569 0 30 13.432 30 30z" transform="matrix(0.23264047421080647 0.0916462474263407 -0.0916462474263407 0.23264047421080647 -26.34579693481824 239.71131726841094)" id="L1_102" fill="#bda94f"/><path d="M193.673,235.931c5.825,5.824,13.475,8.736,21.127,8.736s15.305-2.914,21.13-8.738  c11.649-11.651,11.648-30.606-0.001-42.255c-5.628-5.629-13.131-8.729-21.128-8.729c-7.996,0-15.5,3.1-21.128,8.729  C182.023,205.322,182.023,224.278,193.673,235.931z M207.815,207.815c1.926-1.926,4.456-2.889,6.986-2.889  c2.53,0,5.061,0.963,6.986,2.889c3.852,3.852,3.851,10.121,0,13.973c-3.853,3.851-10.12,3.852-13.972-0.001  C203.963,217.935,203.963,211.667,207.815,207.815z M208.8,122.457L96.343,206.8c-2.518,1.889-4,4.853-4,8s1.482,6.111,4,8  L208.8,307.144c1.778,1.333,3.889,2,6,2s4.222-0.667,6-2L333.258,222.8c2.518-1.889,4-4.853,4-8s-1.482-6.111-4-8L220.8,122.457  C217.245,119.79,212.356,119.79,208.8,122.457z M310.591,214.8L214.8,286.644L119.009,214.8l95.791-71.843L310.591,214.8z   M425.601,206.8L220.8,53.2c-3.556-2.667-8.444-2.667-12,0L4,206.8c-2.518,1.889-4,4.853-4,8s1.482,6.111,4,8l204.8,153.6  c1.778,1.333,3.889,2,6,2s4.222-0.667,6-2l204.8-153.6c2.518-1.889,4-4.853,4-8S428.119,208.689,425.601,206.8z M214.8,355.901  L26.667,214.8L214.8,73.7l188.134,141.1L214.8,355.901z" transform="matrix(-0.08519427909293484 -0.15927625870552725 0.15927625870552725 -0.08519427909293484 174.07278006088416 70.38943065355366)" id="L1_103" fill="#b8996c"/><g transform="matrix(-0.2285462686516447 0.061630434419140345 -0.061630434419140345 -0.2285462686516447 345.2854121644906 76.73042345390624)" id="L1_104"><path d="m60.237 155.487c0 11.573 4.381 22.139 11.566 30.138-7.185 7.999-11.566 18.565-11.566 30.138 0 24.896 20.255 45.151 45.151 45.151h15.125v-101.612c-20.83-2.985-39.708-12.091-54.753-25.433-3.519 6.424-5.523 13.791-5.523 21.618z" fill="#fcfae1"/><path d="m446.249 133.884c-15.102 13.387-34.065 22.505-54.985 25.452v101.578h15.349c24.896 0 45.151-20.255 45.151-45.151 0-11.573-4.381-22.139-11.566-30.138 7.185-7.999 11.566-18.565 11.566-30.138-.001-7.82-2.002-15.182-5.515-21.603z" fill="#fcfae1"/><path d="m93.552 40.125h-18.289c-8.284 0-15 6.716-15 15 0 36.505 26.133 67.011 60.671 73.82 1.484-10.917 6.915-20.59 14.81-27.536-20.7-14.423-35.996-36.082-42.192-61.284z" fill="#fcfae1"/><path d="m451.763 55.125c0-8.284-6.716-15-15-15h-18.289c-6.21 25.258-21.56 46.958-42.331 61.38 7.846 6.948 13.236 16.6 14.705 27.484 34.658-6.714 60.915-37.273 60.915-73.864z" fill="#fcfae1"/><path d="m301.138 262.711v41.009c17.531 6.196 30.125 22.937 30.125 42.562 0 24.882-20.243 45.125-45.125 45.125h-60.25c-24.882 0-45.125-20.243-45.125-45.125 0-19.626 12.594-36.366 30.125-42.562v-41.009c-8.881 5.172-19.19 8.151-30.188 8.151s-21.306-2.979-30.188-8.151v204.539c0 24.675 20.075 44.75 44.75 44.75h121.25c24.675 0 44.75-20.075 44.75-44.75v-204.395c-8.825 5.083-19.043 8.007-29.938 8.007-10.996 0-21.305-2.979-30.186-8.151zm15.125 219.039c-8.284 0-15-6.716-15-15 0-8.34-6.785-15.125-15.125-15.125h-60.25c-8.34 0-15.125 6.785-15.125 15.125 0 8.284-6.716 15-15 15s-15-6.716-15-15c0-24.882 20.243-45.125 45.125-45.125h60.25c24.882 0 45.125 20.243 45.125 45.125 0 8.284-6.716 15-15 15z" fill="#fcfae1"/><path d="m165.263 120.25c-8.133 0-14.75 6.617-14.75 14.75v23.639c8.881-5.172 19.19-8.151 30.188-8.151s21.306 2.979 30.188 8.151v-38.389h-15.125z" fill="#fcfae1"/><path d="m361.263 158.495v-23.495c0-8.133-6.617-14.75-14.75-14.75h-30.25-15.125v38.389c8.881-5.172 19.19-8.151 30.188-8.151 10.894-.001 21.112 2.924 29.937 8.007z" fill="#fcfae1"/><path d="m240.888 120.25v195.907c0 8.284-6.716 15-15 15-8.34 0-15.125 6.785-15.125 15.125s6.785 15.125 15.125 15.125h60.25c8.34 0 15.125-6.785 15.125-15.125s-6.785-15.125-15.125-15.125c-8.284 0-15-6.716-15-15v-195.907z" fill="#fcfae1"/><circle cx="180" cy="210" r="30" fill="#fcfae1"/><circle cx="331" cy="210" r="30" fill="#fcfae1"/><path d="m376.513 0h-60.25c-24.618 0-46.512 11.884-60.25 30.216-13.737-18.332-35.631-30.216-60.25-30.216h-60.25c-8.284 0-15 6.716-15 15 0 41.493 33.757 75.25 75.25 75.25h120.5c41.493 0 75.25-33.757 75.25-75.25 0-8.284-6.716-15-15-15z" fill="#fcfae1"/></g></defs><g fi:class="KUsePattern"><pattern id="pattern_L1_86" width="350" height="350" patternUnits="userSpaceOnUse"><use xlink:href="#L1_86" x="-350" y="-350"/><use xlink:href="#L1_86" x="0" y="-350"/><use xlink:href="#L1_86" x="350" y="-350"/><use xlink:href="#L1_86" x="-350" y="0"/><use xlink:href="#L1_86" x="0" y="0"/><use xlink:href="#L1_86" x="350" y="0"/><use xlink:href="#L1_86" x="-350" y="350"/><use xlink:href="#L1_86" x="0" y="350"/><use xlink:href="#L1_86" x="350" y="350"/></pattern><rect x="0" y="0" width="100%" height="100%" fill="url(#pattern_L1_86)"/></g><g fi:class="KUsePattern"><pattern id="pattern_L1_97" width="350" height="350" patternUnits="userSpaceOnUse"><use xlink:href="#L1_97" x="-350" y="-350"/><use xlink:href="#L1_97" x="0" y="-350"/><use xlink:href="#L1_97" x="350" y="-350"/><use xlink:href="#L1_97" x="-350" y="0"/><use xlink:href="#L1_97" x="0" y="0"/><use xlink:href="#L1_97" x="350" y="0"/><use xlink:href="#L1_97" x="-350" y="350"/><use xlink:href="#L1_97" x="0" y="350"/><use xlink:href="#L1_97" x="350" y="350"/></pattern><rect x="0" y="0" width="100%" height="100%" fill="url(#pattern_L1_97)"/></g><g fi:class="KUsePattern"><pattern id="pattern_L1_98" width="350" height="350" patternUnits="userSpaceOnUse"><use xlink:href="#L1_98" x="-350" y="-350"/><use xlink:href="#L1_98" x="0" y="-350"/><use xlink:href="#L1_98" x="350" y="-350"/><use xlink:href="#L1_98" x="-350" y="0"/><use xlink:href="#L1_98" x="0" y="0"/><use xlink:href="#L1_98" x="350" y="0"/><use xlink:href="#L1_98" x="-350" y="350"/><use xlink:href="#L1_98" x="0" y="350"/><use xlink:href="#L1_98" x="350" y="350"/></pattern><rect x="0" y="0" width="100%" height="100%" fill="url(#pattern_L1_98)"/></g><g fi:class="KUsePattern"><pattern id="pattern_L1_99" width="350" height="350" patternUnits="userSpaceOnUse"><use xlink:href="#L1_99" x="-350" y="-350"/><use xlink:href="#L1_99" x="0" y="-350"/><use xlink:href="#L1_99" x="350" y="-350"/><use xlink:href="#L1_99" x="-350" y="0"/><use xlink:href="#L1_99" x="0" y="0"/><use xlink:href="#L1_99" x="350" y="0"/><use xlink:href="#L1_99" x="-350" y="350"/><use xlink:href="#L1_99" x="0" y="350"/><use xlink:href="#L1_99" x="350" y="350"/></pattern><rect x="0" y="0" width="100%" height="100%" fill="url(#pattern_L1_99)"/></g><g fi:class="KUsePattern"><pattern id="pattern_L1_100" width="350" height="350" patternUnits="userSpaceOnUse"><use xlink:href="#L1_100" x="-350" y="-350"/><use xlink:href="#L1_100" x="0" y="-350"/><use xlink:href="#L1_100" x="350" y="-350"/><use xlink:href="#L1_100" x="-350" y="0"/><use xlink:href="#L1_100" x="0" y="0"/><use xlink:href="#L1_100" x="350" y="0"/><use xlink:href="#L1_100" x="-350" y="350"/><use xlink:href="#L1_100" x="0" y="350"/><use xlink:href="#L1_100" x="350" y="350"/></pattern><rect x="0" y="0" width="100%" height="100%" fill="url(#pattern_L1_100)"/></g><g fi:class="KUsePattern"><pattern id="pattern_L1_101" width="350" height="350" patternUnits="userSpaceOnUse"><use xlink:href="#L1_101" x="-350" y="-350"/><use xlink:href="#L1_101" x="0" y="-350"/><use xlink:href="#L1_101" x="350" y="-350"/><use xlink:href="#L1_101" x="-350" y="0"/><use xlink:href="#L1_101" x="0" y="0"/><use xlink:href="#L1_101" x="350" y="0"/><use xlink:href="#L1_101" x="-350" y="350"/><use xlink:href="#L1_101" x="0" y="350"/><use xlink:href="#L1_101" x="350" y="350"/></pattern><rect x="0" y="0" width="100%" height="100%" fill="url(#pattern_L1_101)"/></g><g fi:class="KUsePattern"><pattern id="pattern_L1_102" width="350" height="350" patternUnits="userSpaceOnUse"><use xlink:href="#L1_102" x="-350" y="-350"/><use xlink:href="#L1_102" x="0" y="-350"/><use xlink:href="#L1_102" x="350" y="-350"/><use xlink:href="#L1_102" x="-350" y="0"/><use xlink:href="#L1_102" x="0" y="0"/><use xlink:href="#L1_102" x="350" y="0"/><use xlink:href="#L1_102" x="-350" y="350"/><use xlink:href="#L1_102" x="0" y="350"/><use xlink:href="#L1_102" x="350" y="350"/></pattern><rect x="0" y="0" width="100%" height="100%" fill="url(#pattern_L1_102)"/></g><g fi:class="KUsePattern"><pattern id="pattern_L1_103" width="350" height="350" patternUnits="userSpaceOnUse"><use xlink:href="#L1_103" x="-350" y="-350"/><use xlink:href="#L1_103" x="0" y="-350"/><use xlink:href="#L1_103" x="350" y="-350"/><use xlink:href="#L1_103" x="-350" y="0"/><use xlink:href="#L1_103" x="0" y="0"/><use xlink:href="#L1_103" x="350" y="0"/><use xlink:href="#L1_103" x="-350" y="350"/><use xlink:href="#L1_103" x="0" y="350"/><use xlink:href="#L1_103" x="350" y="350"/></pattern><rect x="0" y="0" width="100%" height="100%" fill="url(#pattern_L1_103)"/></g><g fi:class="KUsePattern"><pattern id="pattern_L1_104" width="350" height="350" patternUnits="userSpaceOnUse"><use xlink:href="#L1_104" x="-350" y="-350"/><use xlink:href="#L1_104" x="0" y="-350"/><use xlink:href="#L1_104" x="350" y="-350"/><use xlink:href="#L1_104" x="-350" y="0"/><use xlink:href="#L1_104" x="0" y="0"/><use xlink:href="#L1_104" x="350" y="0"/><use xlink:href="#L1_104" x="-350" y="350"/><use xlink:href="#L1_104" x="0" y="350"/><use xlink:href="#L1_104" x="350" y="350"/></pattern><rect x="0" y="0" width="100%" height="100%" fill="url(#pattern_L1_104)"/></g></svg>